<svg width="18" height="22" viewBox="0 0 18 22" fill="none" xmlns="http://www.w3.org/2000/svg">
<path fill-rule="evenodd" clip-rule="evenodd" d="M9 21.2727C9 21.2727 0 14.3092 0 9.21818C0 4.12712 4.02944 0 9 0C13.9706 0 18 4.12712 18 9.21818C18 11.0057 16.8904 13.0241 15.4505 14.8909L12.8077 17.8672C10.8107 19.8718 9 21.2727 9 21.2727ZM8.83807 13.0245C10.6364 13.0245 12.0942 11.5667 12.0942 9.76839C12.0942 7.97008 10.6364 6.51226 8.83807 6.51226C7.03976 6.51226 5.58194 7.97008 5.58194 9.76839C5.58194 11.5667 7.03976 13.0245 8.83807 13.0245Z" fill="#0088F8"/>
</svg>
