<svg width="18" height="18" viewBox="0 0 18 18" fill="none" xmlns="http://www.w3.org/2000/svg">
<g clip-path="url(#clip0)">
<path d="M10.789 -0.527267L8.07996 4.6163L13.0771 6.33693L16.6648 -0.527267H10.789Z" fill="white"/>
<path d="M10.789 -0.527267L8.07996 4.6163L9.65414 5.18374L12.5096 -0.527267H10.789Z" fill="#2157CC"/>
<path d="M11.5029 5.76949L13.0771 6.33693L16.6648 -0.527267H14.9442L11.5029 5.76949Z" fill="#DF202A"/>
<path d="M7.36605 -0.527267L10.0751 4.6163L5.07798 6.33693L1.4903 -0.527267H7.36605Z" fill="white"/>
<path d="M7.36607 -0.527267L10.0751 4.6163L8.50095 5.18374L5.64545 -0.527267H7.36607Z" fill="#2378F1"/>
<path d="M6.65217 5.76949L5.07798 6.33693L1.4903 -0.527267H3.21092L6.65217 5.76949Z" fill="#F5222D"/>
<path d="M3.65032 4.45157L6.90852 4.61631L9.03185 2.32825L11.1552 4.61631L14.5598 4.45157L14.3951 7.70978L16.8296 9.96123L14.3951 12.0846L14.5415 15.4892L11.3016 15.3428L9.01354 17.7773L6.72548 15.3428L3.48558 15.4892L3.63201 12.0846L1.19751 9.96123L3.65032 7.70978L3.50388 4.45157H3.65032Z" fill="#DFE8ED"/>
<path d="M4.93158 9.90633C4.93158 12.1944 6.78034 14.0615 9.08671 14.0615C11.3931 14.0615 13.2418 12.2127 13.2418 9.90633C13.2418 7.61827 11.3931 5.75121 9.08671 5.75121C6.78034 5.75121 4.93158 7.61827 4.93158 9.90633Z" fill="#C2CBD4"/>
<path d="M10.0569 11.7368L9.08677 11.1693L8.11663 11.7368C8.06171 11.7734 8.0068 11.7734 7.95189 11.7368C7.89697 11.7002 7.86036 11.627 7.89697 11.572L8.13493 10.4189L7.31123 9.65006C7.25631 9.59515 7.2197 9.54023 7.25631 9.48532C7.29292 9.43041 7.34784 9.37549 7.40275 9.37549L8.51933 9.26567L8.97694 8.204C9.01355 8.14909 9.06846 8.09418 9.12337 8.09418C9.17829 8.09418 9.2332 8.14909 9.26981 8.204L9.72742 9.26567L10.844 9.37549C10.8989 9.37549 10.9538 9.43041 10.9538 9.48532C10.9904 9.54023 10.9538 9.63176 10.9172 9.65006L10.0935 10.4189L10.3315 11.572C10.3315 11.627 10.3315 11.7185 10.2766 11.7368C10.2033 11.7734 10.1118 11.7734 10.0569 11.7368Z" fill="#DFE8ED"/>
</g>
<defs>
<clipPath id="clip0">
<rect width="18" height="18" fill="white"/>
</clipPath>
</defs>
</svg>
