<svg width="19" height="19" viewBox="0 0 19 19" fill="none" xmlns="http://www.w3.org/2000/svg">
<rect x="7.89954" y="0.315477" width="2.57193" height="18.3709" rx="1.28596" fill="#BBDBFC"/>
<rect x="0.587646" y="6.02187" width="2.57193" height="18.3709" rx="1.28596" transform="rotate(-60 0.587646 6.02187)" fill="#BBDBFC"/>
<rect x="1.87366" y="15.2073" width="2.57193" height="18.3709" rx="1.28596" transform="rotate(-120 1.87366 15.2073)" fill="#BBDBFC"/>
<rect width="1.24412" height="8.88659" rx="0.622061" transform="matrix(0.5 0.866025 0.866025 -0.5 5.02637 11.1839)" fill="#D6EAFF"/>
<rect width="1.24412" height="8.88659" rx="0.622061" transform="matrix(1 0 0 -1 8.56335 13.9442)" fill="#D6EAFF"/>
<rect width="1.24412" height="8.88659" rx="0.622061" transform="matrix(0.5 -0.866025 -0.866025 -0.5 12.7224 12.2613)" fill="#D6EAFF"/>
<rect opacity="0.6" x="12.4696" y="6.54634" width="2.93935" height="1.10226" rx="0.551128" transform="rotate(-80.4781 12.4696 6.54634)" fill="#BBDBFC"/>
<rect opacity="0.6" x="13.5676" y="7.29642" width="2.93935" height="1.10226" rx="0.551128" transform="rotate(17.9927 13.5676 7.29642)" fill="#BBDBFC"/>
<rect opacity="0.6" x="8.15002" y="4.97069" width="2.93935" height="1.10226" rx="0.551127" transform="rotate(-138.356 8.15002 4.97069)" fill="#BBDBFC"/>
<rect opacity="0.6" x="9.36914" y="4.25594" width="2.93935" height="1.10225" rx="0.551127" transform="rotate(-39.8849 9.36914 4.25594)" fill="#BBDBFC"/>
<rect opacity="0.6" x="4.45935" y="8.05453" width="2.93935" height="1.10226" rx="0.551128" transform="rotate(161.55 4.45935 8.05453)" fill="#BBDBFC"/>
<rect opacity="0.6" x="4.44763" y="6.64142" width="2.93935" height="1.10225" rx="0.551127" transform="rotate(-99.9789 4.44763 6.64142)" fill="#BBDBFC"/>
<rect opacity="0.6" x="13.8256" y="11.3707" width="2.93935" height="1.10226" rx="0.551128" transform="rotate(-30.644 13.8256 11.3707)" fill="#BBDBFC"/>
<path opacity="0.6" d="M13.5924 12.8543C13.8957 12.8285 14.1624 13.0536 14.1882 13.3569L14.3433 15.1874C14.369 15.4907 14.144 15.7574 13.8407 15.7831C13.5374 15.8088 13.2707 15.5838 13.245 15.2805L13.0898 13.45C13.0641 13.1467 13.2892 12.88 13.5924 12.8543Z" fill="#BBDBFC"/>
<rect opacity="0.6" x="10.2572" y="14.1503" width="2.93935" height="1.10225" rx="0.551127" transform="rotate(30.1864 10.2572 14.1503)" fill="#BBDBFC"/>
<path opacity="0.6" d="M8.48088 14.6699C8.65115 14.9222 8.58466 15.2648 8.33236 15.4351L6.80961 16.4627C6.55732 16.633 6.21476 16.5665 6.04448 16.3142C5.87421 16.0619 5.9407 15.7194 6.193 15.5491L7.71575 14.5214C7.96804 14.3511 8.3106 14.4176 8.48088 14.6699Z" fill="#BBDBFC"/>
<rect opacity="0.6" x="5.36426" y="12.576" width="2.93935" height="1.10226" rx="0.551128" transform="rotate(92.4113 5.36426 12.576)" fill="#BBDBFC"/>
<path opacity="0.6" d="M4.43166 11.5715C4.28778 11.8397 3.9537 11.9405 3.68548 11.7966L2.06659 10.9282C1.79836 10.7844 1.69756 10.4503 1.84144 10.1821C1.98532 9.91384 2.3194 9.81303 2.58763 9.95691L4.20651 10.8253C4.47474 10.9692 4.57554 11.3033 4.43166 11.5715Z" fill="#BBDBFC"/>
</svg>
