<svg width="24" height="24" viewBox="0 0 24 24" fill="none" xmlns="http://www.w3.org/2000/svg">
<path d="M14.09 11.86C14.1094 11.8778 14.1249 11.8994 14.1355 11.9235C14.1461 11.9476 14.1516 11.9737 14.1516 12C14.1516 12.0263 14.1461 12.0524 14.1355 12.0765C14.1249 12.1006 14.1094 12.1222 14.09 12.14L7.09002 19.14C7.07062 19.1578 7.05513 19.1794 7.04454 19.2035C7.03394 19.2276 7.02847 19.2537 7.02847 19.28C7.02847 19.3063 7.03394 19.3324 7.04454 19.3565C7.05513 19.3806 7.07062 19.4022 7.09002 19.42L8.21002 20.57C8.24852 20.6044 8.29837 20.6235 8.35002 20.6235C8.40168 20.6235 8.45152 20.6044 8.49002 20.57L16.92 12.14C16.9394 12.1222 16.9549 12.1006 16.9655 12.0765C16.9761 12.0524 16.9816 12.0263 16.9816 12C16.9816 11.9737 16.9761 11.9476 16.9655 11.9235C16.9549 11.8994 16.9394 11.8778 16.92 11.86L8.49002 3.42999C8.45152 3.39556 8.40168 3.37652 8.35002 3.37652C8.29837 3.37652 8.24852 3.39556 8.21002 3.42999L7.08002 4.56999C7.06062 4.58779 7.04513 4.60943 7.03454 4.63353C7.02394 4.65763 7.01847 4.68367 7.01847 4.70999C7.01847 4.73632 7.02394 4.76236 7.03454 4.78646C7.04513 4.81056 7.06062 4.83219 7.08002 4.84999L14.09 11.86Z" fill="black" fill-opacity="0.88"/>
</svg>
