<svg width="24" height="24" viewBox="0 0 24 24" fill="none" xmlns="http://www.w3.org/2000/svg">
<path d="M9.90998 12.1401C9.89058 12.1223 9.87509 12.1006 9.8645 12.0765C9.8539 12.0524 9.84843 12.0264 9.84843 12.0001C9.84843 11.9737 9.8539 11.9477 9.8645 11.9236C9.87509 11.8995 9.89058 11.8779 9.90998 11.8601L16.91 4.86006C16.9294 4.84226 16.9449 4.82063 16.9555 4.79653C16.9661 4.77243 16.9715 4.74639 16.9715 4.72006C16.9715 4.69374 16.9661 4.6677 16.9555 4.6436C16.9449 4.6195 16.9294 4.59786 16.91 4.58006L15.79 3.43006C15.7515 3.39563 15.7016 3.37659 15.65 3.37659C15.5983 3.37659 15.5485 3.39563 15.51 3.43006L7.07998 11.8601C7.06058 11.8779 7.04509 11.8995 7.0345 11.9236C7.0239 11.9477 7.01843 11.9737 7.01843 12.0001C7.01843 12.0264 7.0239 12.0524 7.0345 12.0765C7.04509 12.1006 7.06058 12.1223 7.07998 12.1401L15.51 20.5701C15.5485 20.6045 15.5983 20.6235 15.65 20.6235C15.7016 20.6235 15.7515 20.6045 15.79 20.5701L16.92 19.4301C16.9394 19.4123 16.9549 19.3906 16.9655 19.3665C16.9761 19.3424 16.9815 19.3164 16.9815 19.2901C16.9815 19.2637 16.9761 19.2377 16.9655 19.2136C16.9549 19.1895 16.9394 19.1679 16.92 19.1501L9.90998 12.1401Z" fill="black" fill-opacity="0.88"/>
</svg>
