<svg width="26" height="26" viewBox="0 0 26 26" fill="none" xmlns="http://www.w3.org/2000/svg">
<g clip-path="url(#clip0)">
<path d="M0 13C0 16.4478 1.36964 19.7544 3.80761 22.1924C6.24558 24.6304 9.55219 26 13 26C16.4478 26 19.7544 24.6304 22.1924 22.1924C24.6304 19.7544 26 16.4478 26 13C26 9.55219 24.6304 6.24558 22.1924 3.80761C19.7544 1.36964 16.4478 0 13 0C9.55219 0 6.24558 1.36964 3.80761 3.80761C1.36964 6.24558 0 9.55219 0 13H0Z" fill="#698DFE"/>
<path d="M19.6638 8.59481C19.5249 8.44499 19.3567 8.32542 19.1696 8.24359C18.9824 8.16177 18.7804 8.11944 18.5762 8.11927C18.2026 8.11927 17.8453 8.25915 17.5604 8.52331L11.2556 14.8267L8.45645 12.0266C8.18031 11.7585 7.81038 11.609 7.42555 11.6098C7.0404 11.6087 6.67019 11.7587 6.39439 12.0276C6.25437 12.1627 6.14254 12.3243 6.06537 12.503C5.98821 12.6816 5.94725 12.8738 5.94485 13.0684C5.94166 13.2636 5.97732 13.4576 6.04977 13.6389C6.12221 13.8203 6.22999 13.9854 6.36683 14.1247L10.2086 17.9668C10.4878 18.246 10.8596 18.4005 11.2551 18.4005C11.6506 18.4005 12.0221 18.246 12.3016 17.9668L19.6638 10.607C20.1853 10.0425 20.1853 9.15875 19.6638 8.59481Z" fill="white"/>
</g>
<defs>
<clipPath id="clip0">
<rect width="26" height="26" fill="white"/>
</clipPath>
</defs>
</svg>
