<svg width="16" height="18" viewBox="0 0 16 18" fill="none" xmlns="http://www.w3.org/2000/svg">
<g clip-path="url(#clip0)">
<path d="M3.848 16.7866C3.64 16.7866 3.472 16.729 3.352 16.6633C2.88 16.4002 2.776 15.8577 2.76 15.7508L2.752 15.7097V13.7122C1 12.3066 0 10.3009 0 8.14716C0 4.09461 3.592 0.7901 8 0.7901C12.408 0.7901 16 4.09461 16 8.14716C16 12.2079 12.408 15.5042 8 15.5042C7.52 15.5042 7.032 15.4631 6.56 15.3809L4.456 16.6222C4.224 16.7455 4.024 16.7866 3.848 16.7866ZM3.872 15.5946C3.872 15.6029 3.88 15.6193 3.888 15.6275C3.904 15.6193 3.936 15.6111 3.976 15.5946L6.36 14.1808L6.56 14.2219C7.032 14.3123 7.52 14.3616 8 14.3616C11.792 14.3616 14.88 11.575 14.88 8.15538C14.88 4.73579 11.792 1.94915 8 1.94915C4.208 1.94915 1.12 4.72757 1.12 8.14716C1.12 10.0131 2.04 11.764 3.64 12.9478L3.872 13.1204V15.5946Z" fill="#8E8E8E"/>
<path d="M3.37598 8.13138C3.37598 8.38645 3.47459 8.63108 3.65012 8.81145C3.82566 8.99181 4.06373 9.09314 4.31198 9.09314C4.56022 9.09314 4.79829 8.99181 4.97383 8.81145C5.14936 8.63108 5.24798 8.38645 5.24798 8.13138C5.24798 7.8763 5.14936 7.63168 4.97383 7.45131C4.79829 7.27095 4.56022 7.16962 4.31198 7.16962C4.06373 7.16962 3.82566 7.27095 3.65012 7.45131C3.47459 7.63168 3.37598 7.8763 3.37598 8.13138Z" fill="#8E8E8E"/>
<path d="M7.02405 8.13138C7.02405 8.38645 7.12266 8.63108 7.2982 8.81145C7.47373 8.99181 7.71181 9.09314 7.96005 9.09314C8.20829 9.09314 8.44637 8.99181 8.6219 8.81145C8.79743 8.63108 8.89605 8.38645 8.89605 8.13138C8.89605 8.00508 8.87184 7.88001 8.8248 7.76333C8.77776 7.64664 8.70882 7.54062 8.6219 7.45131C8.53498 7.362 8.4318 7.29116 8.31824 7.24283C8.20468 7.19449 8.08297 7.16962 7.96005 7.16962C7.83713 7.16962 7.71542 7.19449 7.60186 7.24283C7.4883 7.29116 7.38511 7.362 7.2982 7.45131C7.21128 7.54062 7.14233 7.64664 7.0953 7.76333C7.04826 7.88001 7.02405 8.00508 7.02405 8.13138Z" fill="#8E8E8E"/>
<path d="M10.672 8.13138C10.672 8.38645 10.7706 8.63108 10.9461 8.81145C11.1217 8.99181 11.3598 9.09314 11.608 9.09314C11.8562 9.09314 12.0943 8.99181 12.2698 8.81145C12.4454 8.63108 12.544 8.38645 12.544 8.13138C12.544 7.8763 12.4454 7.63168 12.2698 7.45131C12.0943 7.27095 11.8562 7.16962 11.608 7.16962C11.3598 7.16962 11.1217 7.27095 10.9461 7.45131C10.7706 7.63168 10.672 7.8763 10.672 8.13138Z" fill="#8E8E8E"/>
</g>
<defs>
<clipPath id="clip0">
<rect width="16" height="16.4404" fill="white" transform="translate(0 0.568787)"/>
</clipPath>
</defs>
</svg>
