<svg width="16" height="14" viewBox="0 0 16 14" fill="none" xmlns="http://www.w3.org/2000/svg">
<path d="M11.5372 0C10.016 0 8.71077 1.06215 8 1.79262C7.27877 1.06154 5.984 0 4.46277 0C1.832 0 0 1.78277 0 4.34585C0 7.16185 2.28 8.98523 4.48185 10.7378C5.52431 11.576 6.59631 12.4338 7.42523 13.3895C7.56123 13.5458 7.76554 13.6425 7.97969 13.6425H8.01908C8.23262 13.6425 8.43815 13.5458 8.57354 13.3895C9.40308 12.4338 10.4745 11.5766 11.5169 10.7477C13.72 8.98523 16 7.16185 16 4.34585C16 1.78277 14.168 0 11.5372 0Z" fill="#FF8058"/>
</svg>
