<svg width="16" height="18" viewBox="0 0 16 18" fill="none" xmlns="http://www.w3.org/2000/svg">
<path d="M7.42523 15.5384L7.80731 15.2159C6.96034 14.2125 5.87647 13.3172 4.85964 12.4773C4.83983 12.4609 4.82005 12.4446 4.8003 12.4282L4.7984 12.4267C3.68903 11.5193 2.6119 10.6337 1.80547 9.62691C1.0085 8.63197 0.5 7.54714 0.5 6.24579C0.5 5.04796 0.914544 4.06314 1.59847 3.37894C2.28239 2.69474 3.26649 2.28033 4.46277 2.28033C5.76212 2.28033 6.92908 3.22882 7.63933 3.96857L8.00249 4.34683L8.36305 3.96609C9.05928 3.23087 10.2373 2.28033 11.5372 2.28033C12.7335 2.28033 13.7176 2.69474 14.4015 3.37894C15.0855 4.06314 15.5 5.04796 15.5 6.24579C15.5 7.54712 14.9915 8.632 14.1942 9.62836C13.3875 10.6365 12.3102 11.5245 11.2 12.4371C10.1643 13.2833 9.05589 14.1926 8.19158 15.2157L8.19124 15.2161C8.14787 15.2676 8.08064 15.2983 8.01908 15.2983H7.97969C7.91839 15.2983 7.85164 15.2682 7.80681 15.2153L7.42523 15.5384ZM7.42523 15.5384C7.56123 15.699 7.76554 15.7983 7.97969 15.7983H8.01908C8.23262 15.7983 8.43815 15.699 8.57354 15.5384L7.64362 3.27146C6.89097 2.57241 5.75909 1.78033 4.46277 1.78033C1.832 1.78033 0 3.61217 0 6.24579C0 9.13929 2.28 11.0129 4.48185 12.8137L4.52451 12.849C5.5535 13.699 6.60761 14.5698 7.42523 15.5384Z" stroke="#8E8E8E"/>
</svg>
