<svg width="23" height="24" viewBox="0 0 23 24" fill="none" xmlns="http://www.w3.org/2000/svg">
<g clip-path="url(#clip0)">
<path d="M21.1212 10.9351L12.3795 10.9351L12.3787 2.1926C12.3787 1.9075 12.2675 1.64012 12.0657 1.43836C11.8651 1.23773 11.5977 1.12723 11.3145 1.12761C11.1747 1.127 11.0362 1.15416 10.9069 1.2075C10.7777 1.26084 10.6604 1.33931 10.5617 1.43836C10.3596 1.64049 10.2487 1.90825 10.2487 2.1926L10.2483 10.9347L1.50624 10.9351C1.36632 10.9347 1.22771 10.9621 1.09844 11.0156C0.96917 11.0691 0.851799 11.1478 0.753122 11.247C0.552115 11.448 0.441618 11.7153 0.441241 12.0001C0.440705 12.1398 0.467932 12.2783 0.521341 12.4075C0.574751 12.5366 0.653278 12.6539 0.752368 12.7524C0.953752 12.9538 1.22113 13.0651 1.50624 13.0651L10.2495 13.0651L10.2483 21.8072C10.2479 21.9472 10.2753 22.0859 10.3289 22.2152C10.3826 22.3446 10.4613 22.462 10.5606 22.5607C10.7616 22.7617 11.0294 22.8725 11.3137 22.8725C11.5984 22.8722 11.8658 22.7617 12.0668 22.5607C12.2678 22.3597 12.3787 22.0919 12.3787 21.8075L12.3795 13.0651H21.1212C21.4055 13.0651 21.6737 12.9538 21.8747 12.7528C22.0761 12.5514 22.1862 12.2844 22.1862 12.0008C22.1858 11.7184 22.0735 11.4476 21.8738 11.2479C21.674 11.0482 21.4033 10.9358 21.1208 10.9355L21.1212 10.9351Z" fill="#8E8E8E"/>
</g>
<defs>
<clipPath id="clip0">
<rect width="16" height="16" fill="white" transform="translate(0 12) rotate(-45)"/>
</clipPath>
</defs>
</svg>
