<svg width="24" height="24" viewBox="0 0 24 24" fill="none" xmlns="http://www.w3.org/2000/svg">
<g clip-path="url(#clip0)">
<path d="M17.1177 18.8663C21.8443 16.1374 23.4638 10.0934 20.7349 5.36678C18.0059 0.640115 11.962 -0.979352 7.23531 1.74959C2.50865 4.47853 0.889178 10.5225 3.61812 15.2491C6.34706 19.9758 12.391 21.5953 17.1177 18.8663ZM16.4118 17.6437C12.3606 19.9826 7.17968 18.5944 4.84074 14.5432C2.5018 10.4921 3.89003 5.31115 7.94119 2.97221C11.9924 0.633271 17.1733 2.0215 19.5122 6.07266C21.8512 10.1238 20.4629 15.3048 16.4118 17.6437Z" fill="#666666"/>
<path d="M16.4117 17.6436C17.2268 17.173 17.8696 17.3453 18.3402 18.1604L20.4579 21.8282C20.9285 22.6433 20.7562 23.2862 19.9411 23.7567C19.126 24.2273 18.4832 24.0551 18.0126 23.24L15.895 19.5721C15.4244 18.757 15.5966 18.1142 16.4117 17.6436Z" fill="#666666"/>
</g>
<defs>
<clipPath id="clip0">
<rect width="24" height="24" fill="white"/>
</clipPath>
</defs>
</svg>
