<svg width="16" height="18" viewBox="0 0 16 18" fill="none" xmlns="http://www.w3.org/2000/svg">
<g clip-path="url(#clip0)">
<path d="M7.99976 0.568787C8.18011 0.568787 8.35307 0.642401 8.48059 0.773436C8.60812 0.90447 8.67976 1.08219 8.67976 1.2675C8.67976 1.45281 8.60812 1.63053 8.48059 1.76157C8.35307 1.8926 8.18011 1.96622 7.99976 1.96622C6.68649 1.96622 5.40272 2.36637 4.31077 3.11606C3.21883 3.86575 2.36777 4.93132 1.8652 6.17802C1.36263 7.42471 1.23114 8.79654 1.48735 10.12C1.74355 11.4435 2.37595 12.6592 3.30457 13.6134C4.23319 14.5676 5.41633 15.2174 6.70436 15.4806C7.99239 15.7439 9.32748 15.6088 10.5408 15.0924C11.7541 14.576 12.7911 13.7015 13.5207 12.5795C14.2503 11.4575 14.6398 10.1384 14.6398 8.78897C14.6398 8.60366 14.7114 8.42594 14.8389 8.2949C14.9665 8.16387 15.1394 8.09025 15.3198 8.09025C15.5001 8.09025 15.6731 8.16387 15.8006 8.2949C15.9281 8.42594 15.9998 8.60366 15.9998 8.78897C15.9998 10.4148 15.5306 12.0041 14.6515 13.3559C13.7725 14.7077 12.523 15.7613 11.0612 16.3834C9.59942 17.0056 7.99089 17.1684 6.43904 16.8512C4.88719 16.534 3.46173 15.7511 2.34291 14.6015C1.22409 13.4519 0.462159 11.9872 0.153477 10.3926C-0.155205 8.79809 0.00322211 7.14528 0.608723 5.64324C1.21422 4.1412 2.2396 2.85738 3.5552 1.95414C4.87079 1.05089 6.41751 0.568787 7.99976 0.568787V0.568787ZM12.1175 4.06471C12.002 3.93353 11.9402 3.76161 11.9449 3.58477C11.9497 3.40793 12.0207 3.2398 12.1431 3.11539C12.2655 2.99098 12.4299 2.91988 12.602 2.91691C12.7742 2.91394 12.9408 2.97932 13.0672 3.09943L14.2398 4.30309C14.594 4.66714 14.594 5.25429 14.2398 5.61598L13.0683 6.81964C12.9409 6.93651 12.7749 6.99885 12.6042 6.99389C12.4335 6.98893 12.2711 6.91704 12.1503 6.79296C12.0296 6.66888 11.9596 6.50202 11.9548 6.32661C11.9499 6.15121 12.0106 5.98056 12.1243 5.84966L12.322 5.64534H11.4603C9.11518 5.64534 8.3186 6.67168 8.3186 9.77422C8.3186 9.95626 8.24823 10.1308 8.12295 10.2596C7.99768 10.3883 7.82777 10.4606 7.65061 10.4606C7.47345 10.4606 7.30354 10.3883 7.17827 10.2596C7.053 10.1308 6.98262 9.95626 6.98262 9.77422C6.98262 5.93774 8.34606 4.27375 11.4603 4.27375H12.3221L12.1186 4.06471H12.1175Z" fill="#8E8E8E"/>
</g>
<defs>
<clipPath id="clip0">
<rect width="16" height="16.4404" fill="white" transform="translate(0 0.568787)"/>
</clipPath>
</defs>
</svg>
