<svg width="16" height="16" viewBox="0 0 16 16" fill="none" xmlns="http://www.w3.org/2000/svg">
<path d="M15.688 14.182L9.50667 8.00066L15.688 1.81826C15.8896 1.61666 16 1.34893 16 1.06359C16 0.779859 15.8891 0.512659 15.6885 0.312659C15.5901 0.213383 15.473 0.134636 15.3439 0.0809865C15.2148 0.0273368 15.0763 -0.000148199 14.9365 0.000125711C14.6507 0.000125711 14.3829 0.111059 14.1819 0.312126L8 6.49346L1.81814 0.312126C1.71948 0.212914 1.60212 0.134254 1.47285 0.0806996C1.34359 0.027145 1.20499 -0.000241314 1.06507 0.000125711C0.780805 0.000125711 0.513605 0.111059 0.312005 0.312126C0.212801 0.410572 0.134138 0.527741 0.0805786 0.656832C0.0270195 0.785923 -0.000368055 0.924365 5.16956e-06 1.06413C5.16956e-06 1.34893 0.110405 1.61666 0.312005 1.81826L6.4944 8.00066L0.312005 14.1815C0.212729 14.2802 0.134033 14.3976 0.0804762 14.527C0.0269195 14.6563 -0.000432458 14.795 5.16956e-06 14.9351C5.16956e-06 15.2193 0.110938 15.4871 0.312005 15.6881C0.513605 15.8892 0.780805 16.0001 1.06507 16.0001C1.34934 16.0001 1.61707 15.8892 1.81814 15.6881L8.00054 9.50679L14.1819 15.6881C14.3829 15.8892 14.6512 16.0001 14.9355 16.0001C15.2203 16.0001 15.4869 15.8892 15.6875 15.6887C15.8869 15.4887 15.999 15.2178 15.999 14.9353C15.999 14.6529 15.8869 14.382 15.6875 14.182H15.688Z" fill="#8E8E8E"/>
</svg>
