<svg width="80" height="80" viewBox="0 0 80 80" fill="none" xmlns="http://www.w3.org/2000/svg">
<circle cx="40" cy="40" r="40" fill="#698DFE" fill-opacity="0.6"/>
<g clip-path="url(#clip0)">
<path d="M39.5118 29.5366C34.1235 29.5366 29.7561 33.9041 29.7561 39.2923C29.7561 44.6798 34.1235 49.048 39.5118 49.048C44.9001 49.048 49.2675 44.6798 49.2675 39.2923C49.2675 36.705 48.2397 34.2236 46.4101 32.394C44.5806 30.5645 42.0992 29.5366 39.5118 29.5366ZM45.0609 44.0477C44.1191 45.1465 42.8726 45.9413 41.4791 46.3317C40.0855 46.7221 38.6075 46.6905 37.232 46.2408C35.8564 45.7912 34.6451 44.9437 33.7512 43.8056C32.8573 42.6675 32.321 41.2898 32.2101 39.8469C32.0992 38.404 32.4187 36.9606 33.1281 35.6992C33.8376 34.4379 34.9052 33.4152 36.1958 32.7607C37.4865 32.1061 38.9423 31.8489 40.3791 32.0217C41.816 32.1946 43.1693 32.7896 44.2679 33.7316C44.999 34.3571 45.5996 35.1208 46.0352 35.9787C46.4708 36.8367 46.7329 37.7721 46.8065 38.7315C46.88 39.6909 46.7637 40.6554 46.464 41.5698C46.1643 42.4841 45.6873 43.3304 45.0601 44.0601V44.0477H45.0609Z" fill="white"/>
<path d="M39.5119 34.4146C38.2182 34.4146 36.9775 34.9285 36.0627 35.8433C35.1479 36.7581 34.634 37.9988 34.634 39.2925C34.634 39.4542 34.6983 39.6094 34.8127 39.7237C34.9271 39.8381 35.0822 39.9024 35.244 39.9024C35.4057 39.9024 35.5609 39.8381 35.6752 39.7237C35.7896 39.6094 35.8539 39.4542 35.8539 39.2925C35.8539 38.3222 36.2393 37.3917 36.9252 36.7056C37.6112 36.0194 38.5417 35.6339 39.5119 35.6337C39.6736 35.6337 39.8288 35.5694 39.9432 35.455C40.0576 35.3406 40.1218 35.1855 40.1218 35.0237C40.1218 34.862 40.0576 34.7068 39.9432 34.5925C39.8288 34.4781 39.6736 34.4138 39.5119 34.4138V34.4146Z" fill="white"/>
<path d="M55.9625 28.3168L50.6819 27.4388L49.0117 23.293C48.7388 22.6144 48.2687 22.0332 47.6621 21.6245C47.0555 21.2157 46.3404 20.9982 45.6089 21H33.4151C32.6823 20.9991 31.9661 21.2184 31.3594 21.6293C30.7527 22.0402 30.2834 22.6239 30.0123 23.3047L28.3421 27.488L23.0615 28.3168C22.198 28.4596 21.4142 28.9073 20.8526 29.5786C20.291 30.2499 19.9887 31.1004 20.0006 31.9756V50.2672C20.0005 50.7477 20.095 51.2235 20.2789 51.6674C20.4627 52.1114 20.7322 52.5148 21.072 52.8545C21.4118 53.1943 21.8151 53.4638 22.2591 53.6476C22.703 53.8315 23.1789 53.926 23.6594 53.9259H55.3646C55.8451 53.926 56.321 53.8315 56.7649 53.6476C57.2089 53.4638 57.6122 53.1943 57.952 52.8545C58.2918 52.5148 58.5613 52.1114 58.7451 51.6674C58.929 51.2235 59.0235 50.7477 59.0234 50.2672V31.9756C59.0353 31.1004 58.733 30.2499 58.1714 29.5786C57.6098 28.9073 56.826 28.4596 55.9625 28.3168ZM56.5845 50.2672C56.5845 50.5907 56.456 50.901 56.2272 51.1297C55.9984 51.3585 55.6882 51.487 55.3646 51.487H23.6594C22.9858 51.487 22.4395 50.9407 22.4395 50.2672V31.9756C22.4356 31.6831 22.5369 31.399 22.725 31.1751C22.9132 30.9512 23.1755 30.8023 23.4642 30.7557L30.0981 29.6459L32.2811 24.1827C32.4731 23.7285 32.921 23.4343 33.4151 23.4389H45.6089C46.1084 23.4389 46.5587 23.7433 46.7429 24.2069L48.9259 29.6701L55.5598 30.7557C55.8485 30.8023 56.1108 30.9512 56.299 31.1751C56.4871 31.399 56.5884 31.6831 56.5845 31.9756V50.2672Z" fill="white"/>
</g>
<defs>
<clipPath id="clip0">
<rect width="39" height="33.5597" fill="white" transform="translate(20 21)"/>
</clipPath>
</defs>
</svg>
