<svg width="18" height="22" viewBox="0 0 18 22" fill="none" xmlns="http://www.w3.org/2000/svg">
<path fill-rule="evenodd" clip-rule="evenodd" d="M9 21.2727C9 21.2727 0 14.3092 0 9.21818C0 4.12712 4.02944 0 9 0C13.9706 0 18 4.12712 18 9.21818C18 11.0057 16.8904 13.0241 15.4505 14.8909L12.8077 17.8672C10.8107 19.8718 9 21.2727 9 21.2727ZM8.83804 12.0245C10.6364 12.0245 12.0942 10.5667 12.0942 8.7684C12.0942 6.97009 10.6364 5.51227 8.83804 5.51227C7.03973 5.51227 5.58191 6.97009 5.58191 8.7684C5.58191 10.5667 7.03973 12.0245 8.83804 12.0245Z" fill="#698DFE"/>
</svg>
