<svg width="36" height="36" viewBox="0 0 36 36" fill="none" xmlns="http://www.w3.org/2000/svg">
<path d="M26.114 4.27147C26.0332 4.28202 25.9488 4.27499 25.868 4.27499C24.532 4.27499 23.1961 4.27147 21.8601 4.2785C21.4734 4.2785 21.0902 4.32772 20.7211 4.4578C20.0672 4.68632 19.6734 5.14335 19.5117 5.8078C19.4519 6.05389 19.4273 6.3035 19.4273 6.55663C19.4273 8.91913 19.4238 11.2781 19.4308 13.6406C19.4308 14.1258 19.4625 14.6109 19.6488 15.075C19.8914 15.6762 20.3414 16.0312 20.9601 16.1894C21.1816 16.2457 21.4101 16.2668 21.6387 16.2668H29.3027C29.5945 16.2668 29.8863 16.2422 30.1746 16.1859C31.0324 16.0277 31.5949 15.4582 31.7531 14.6039C31.7672 14.5266 31.739 14.4211 31.8551 14.3859V6.22968C31.841 6.21561 31.8375 6.19803 31.8375 6.17694C31.7847 6.00819 31.7777 5.83241 31.7215 5.66014C31.4719 4.92186 30.9586 4.48593 30.2168 4.29608C29.9918 4.23983 29.7668 4.21171 29.5312 4.22225C29.4855 4.22577 29.4258 4.25741 29.3941 4.19061H26.2652C26.2512 4.28202 26.1703 4.26444 26.114 4.27147ZM29.584 5.70233C29.7246 5.70233 29.8687 5.73397 30.0023 5.77616C30.2449 5.8535 30.3785 6.04335 30.3785 6.30702C30.3785 8.93671 30.382 11.5664 30.375 14.1961C30.375 14.5898 30.0726 14.8289 29.6332 14.8324C28.2902 14.843 26.9508 14.8359 25.6078 14.8359H21.6351C21.4769 14.8359 21.3328 14.7902 21.1887 14.741C20.8898 14.632 20.8512 14.3719 20.8476 14.1117C20.8406 12.7933 20.8441 11.475 20.8441 10.1566V6.44764C20.8441 6.21913 20.8969 6.00819 21.0867 5.84999C21.2484 5.71639 21.4488 5.69882 21.6351 5.69882C24.2859 5.6953 26.9367 5.69882 29.584 5.70233Z" fill="black"/>
<path d="M26.086 4.21873C24.6973 4.22224 23.3086 4.22224 21.9235 4.22224C21.593 4.22224 21.2695 4.2574 20.9496 4.33123C20.5418 4.42615 20.1727 4.60193 19.8949 4.91833C19.5223 5.34372 19.3746 5.86404 19.3746 6.41599C19.3676 8.86286 19.3676 11.3133 19.3746 13.7601C19.3746 14.08 19.3992 14.4035 19.4731 14.7164C19.5715 15.1277 19.7402 15.5074 20.0602 15.7886C20.4715 16.1508 20.9707 16.316 21.5192 16.316C24.1242 16.3195 26.7328 16.3195 29.3379 16.316C29.6649 16.316 29.9953 16.2984 30.3117 16.2105C30.9797 16.0207 31.493 15.6515 31.718 14.9519C31.7778 14.7656 31.7813 14.5687 31.8516 14.3859C31.7391 14.4211 31.7637 14.5265 31.7496 14.6039C31.5914 15.4617 31.0289 16.0277 30.1711 16.1859C29.8828 16.2386 29.591 16.2668 29.2992 16.2668H21.6352C21.4067 16.2668 21.1781 16.2457 20.9567 16.1894C20.3414 16.0312 19.8879 15.6761 19.6453 15.075C19.459 14.6144 19.4274 14.1258 19.4274 13.6406C19.4203 11.2781 19.4238 8.91911 19.4238 6.55662C19.4238 6.30349 19.4485 6.05388 19.5082 5.80779C19.6699 5.14333 20.0637 4.6863 20.7176 4.45779C21.0867 4.32771 21.4699 4.28201 21.8567 4.27849C23.1926 4.27146 24.5285 4.27498 25.8645 4.27498C25.9453 4.27498 26.0297 4.28201 26.1106 4.27146C26.1703 4.26443 26.2477 4.27849 26.2582 4.18708C26.216 4.26091 26.1457 4.21873 26.086 4.21873ZM4.23985 14.4246C4.31017 14.864 4.43321 15.2824 4.74259 15.6199C5.14688 16.0664 5.67423 16.2527 6.25431 16.2562C8.89454 16.2668 11.5348 16.2668 14.1785 16.2562C14.509 16.2562 14.843 16.2211 15.1664 16.1191C16.0277 15.8484 16.541 15.1593 16.541 14.2523C16.541 11.6508 16.541 9.05271 16.5445 6.45115C16.5445 6.22615 16.5164 6.00818 16.4602 5.79021C16.2563 5.00271 15.5988 4.4156 14.7902 4.3031C14.6461 4.28201 14.502 4.26443 14.3543 4.26443C14.284 4.26443 14.1961 4.28552 14.1715 4.18005H11.0426C10.9969 4.25388 10.9266 4.21169 10.8703 4.21169C9.4254 4.21521 7.98048 4.20466 6.53556 4.21873C6.01524 4.22224 5.50899 4.31013 5.05196 4.5949C4.61251 4.86912 4.35587 5.26638 4.21876 5.75505C4.19063 5.84997 4.21173 5.95544 4.15196 6.04333V14.2347C4.25392 14.2664 4.22931 14.3578 4.23985 14.4246ZM5.62853 6.30349C5.62853 6.01872 5.84649 5.79021 6.13829 5.73044C6.29298 5.6988 6.44767 5.69529 6.60235 5.69529H14.3016C14.4527 5.69529 14.5969 5.72341 14.7375 5.7656C15.0012 5.84997 15.1172 6.00818 15.1172 6.27888V14.2066C15.1172 14.4949 14.9836 14.6742 14.7094 14.7656C14.5688 14.8113 14.4246 14.8394 14.2735 14.8359C12.9656 14.8324 11.6613 14.8324 10.3535 14.8324C9.02814 14.8324 7.70626 14.8359 6.38087 14.8289C6.15938 14.8289 5.9379 14.7972 5.77267 14.6144C5.67774 14.509 5.62853 14.3929 5.62853 14.2593C5.62501 11.6121 5.62501 8.95779 5.62853 6.30349Z" fill="black"/>
<path d="M4.1836 14.3262C4.18712 14.639 4.27501 14.9344 4.4086 15.2086C4.77423 15.9609 5.42462 16.2984 6.22267 16.3055C8.84181 16.3265 11.4609 16.3125 14.0766 16.3125C14.4035 16.3125 14.7305 16.2844 15.0504 16.207C16.0031 15.9715 16.5832 15.2789 16.5902 14.2945C16.6078 11.7 16.5973 9.10545 16.5973 6.51092C16.5973 6.33866 16.5973 6.16639 16.5656 5.99413C16.4602 5.4246 16.1895 4.96053 15.7149 4.62303C15.3281 4.34882 14.8887 4.23632 14.4176 4.22225C14.3367 4.21874 14.2453 4.26444 14.175 4.19061C14.1996 4.29608 14.291 4.27499 14.3578 4.27499C14.5055 4.27499 14.6496 4.29608 14.7938 4.31366C15.6024 4.42616 16.2598 5.01327 16.4637 5.80077C16.5199 6.01874 16.5481 6.23671 16.5481 6.46171C16.5445 9.06327 16.5481 11.6613 16.5445 14.2629C16.5445 15.1664 16.0313 15.8555 15.1699 16.1297C14.8465 16.2316 14.5125 16.2668 14.182 16.2668C11.5418 16.2738 8.90157 16.2773 6.25782 16.2668C5.67774 16.2633 5.15392 16.0769 4.7461 15.6305C4.43673 15.2894 4.31368 14.8746 4.24337 14.4351C4.23282 14.3683 4.25743 14.2734 4.15196 14.2523C4.19767 14.2558 4.1836 14.298 4.1836 14.3262ZM6.74298 31.0324C6.81681 31.0219 6.89415 31.0289 6.97149 31.0289H14.2137C14.509 31.0289 14.7973 30.9937 15.082 30.9199C15.9785 30.6879 16.5375 29.9742 16.541 29.0496C16.5445 28.1601 16.541 27.2672 16.541 26.3777V21.1746C16.541 20.039 15.7887 19.1988 14.6567 19.0758C14.2559 19.0336 13.8516 19.016 13.4473 19.0054C12.2344 18.9808 11.0215 19.023 9.81212 19.0512C8.65196 19.0793 7.49181 19.0582 6.33517 19.0758C5.93087 19.0828 5.54063 19.1707 5.18556 19.3605C4.70743 19.6137 4.41563 20.0109 4.28204 20.5347C4.25743 20.6332 4.27852 20.7633 4.15196 20.816V29.0426C4.22227 29.2359 4.22931 29.4433 4.28907 29.6437C4.49649 30.3715 4.9711 30.8144 5.68829 31.0113C5.91681 31.0746 6.15235 31.0922 6.3879 31.0851C6.43712 31.0851 6.50392 31.0465 6.54259 31.1168H6.6129C6.61993 31.0359 6.68673 31.0394 6.74298 31.0324ZM6.3422 29.6051C5.91329 29.6051 5.61446 29.373 5.61798 28.8844C5.63204 26.3074 5.62501 23.7304 5.62149 21.15C5.62149 20.7351 5.86759 20.5137 6.26485 20.4996C8.88751 20.4152 11.5067 20.482 14.1293 20.4715C14.3543 20.4715 14.6004 20.4574 14.8184 20.5769C15.0082 20.6824 15.1172 20.8301 15.1172 21.0586C15.1137 22.3769 15.1172 23.6953 15.1172 25.0137C15.1172 26.3215 15.1102 27.6258 15.1207 28.9336C15.1242 29.359 14.8465 29.5523 14.4633 29.6121C14.161 29.6578 13.8656 29.6121 13.5668 29.6086C11.1586 29.6015 8.7504 29.6051 6.3422 29.6051Z" fill="black"/>
<path d="M6.80273 31.0851C9.18633 31.0816 11.5734 31.0816 13.957 31.0851C14.2875 31.0851 14.6145 31.0781 14.9414 31.0113C15.3809 30.9234 15.7781 30.7371 16.084 30.4101C16.425 30.0445 16.5938 29.5875 16.5938 29.0883C16.6008 26.4762 16.5973 23.8605 16.5973 21.2484C16.5973 21.0269 16.5832 20.8125 16.527 20.598C16.3406 19.8984 15.9187 19.4133 15.2367 19.1461C14.7691 18.9633 14.277 18.9703 13.7953 18.9598C12.9832 18.9422 12.1711 18.9281 11.359 18.9773C10.691 19.0195 10.016 18.9879 9.34453 19.0125C8.37422 19.0441 7.40039 19.023 6.42656 19.0195C6.20156 19.0195 5.98008 19.0406 5.75859 19.0898C5.11172 19.2375 4.61602 19.575 4.33125 20.1902C4.23984 20.3906 4.23281 20.6121 4.14844 20.8125C4.27852 20.7598 4.25391 20.6297 4.27852 20.5312C4.41211 20.0074 4.70742 19.6101 5.18203 19.357C5.54062 19.1672 5.92734 19.0793 6.33164 19.0723C7.4918 19.0547 8.64844 19.0758 9.80859 19.0476C11.0215 19.0195 12.2309 18.9773 13.4437 19.0019C13.848 19.009 14.2523 19.0266 14.6531 19.0723C15.7852 19.1953 16.534 20.0355 16.5375 21.1711V26.3742C16.5375 27.2637 16.541 28.1566 16.5375 29.0461C16.5305 29.9742 15.975 30.6844 15.0785 30.9164C14.7937 30.9902 14.5055 31.0254 14.2102 31.0254H6.96797C6.89062 31.0254 6.8168 31.0219 6.73945 31.0289C6.6832 31.0359 6.61641 31.0289 6.60938 31.1133C6.66211 31.0465 6.73945 31.0851 6.80273 31.0851Z" fill="black"/>
<path d="M5.04844 4.60195C5.50547 4.3207 6.01172 4.2293 6.53203 4.22578C7.97695 4.21172 9.42187 4.22227 10.8668 4.21875C10.923 4.21875 10.9934 4.26094 11.0391 4.18711C10.9793 4.22227 10.9125 4.20469 10.8492 4.20469C9.27422 4.21523 7.69922 4.17656 6.12422 4.22578C5.45977 4.24687 4.89727 4.51055 4.48945 5.05547C4.26797 5.35078 4.16953 5.68828 4.14844 6.05039C4.21172 5.96602 4.19063 5.86055 4.21523 5.76211C4.35586 5.27344 4.60898 4.87617 5.04844 4.60195ZM29.5312 4.21875C29.7633 4.2082 29.9918 4.23633 30.2168 4.29258C30.9551 4.48242 31.4719 4.91836 31.7215 5.65664C31.7777 5.82539 31.7848 6.00469 31.8375 6.17344V6.15937C31.8516 5.17148 30.9797 4.28906 29.9848 4.21523C29.7879 4.20117 29.591 4.23281 29.3941 4.18359C29.4223 4.25742 29.4855 4.22227 29.5312 4.21875ZM6.38437 31.0852C6.14883 31.0922 5.91328 31.0746 5.68477 31.0113C4.96758 30.8145 4.49297 30.3715 4.28555 29.6438C4.2293 29.4434 4.22227 29.2359 4.14844 29.0426C4.18711 29.2289 4.17656 29.4223 4.22227 29.6086C4.41562 30.4102 5.11875 31.0359 5.93086 31.0852C6.13477 31.0992 6.33867 31.0641 6.53906 31.1133C6.50039 31.0465 6.43359 31.0816 6.38437 31.0852Z" fill="black"/>
<path d="M21.3891 23.4562C20.9566 23.4633 20.6719 23.748 20.6719 24.1594V30.1992C20.6719 30.6316 20.9707 30.9059 21.4031 30.8988C21.8566 30.8918 22.1414 30.6562 22.1449 30.2062C22.152 28.1883 22.1484 26.1668 22.1449 24.1488C22.1449 23.7269 21.8496 23.4492 21.3891 23.4562ZM30.2836 23.4633C29.9355 23.4 29.4645 23.6355 29.4645 24.1031C29.4574 25.1297 29.4645 26.1527 29.4645 27.1793V30.2379C29.4645 30.2941 29.4609 30.3574 29.4785 30.4101C29.5945 30.7406 29.9848 30.9797 30.3047 30.9023C30.7055 30.8074 30.934 30.6492 30.9375 30.15C30.9445 28.1988 30.941 26.2476 30.941 24.2965C30.9375 23.7902 30.7793 23.5547 30.2836 23.4633ZM27.0246 25.5691C26.9332 25.2387 26.5676 24.9785 26.2477 25.0383C25.8117 25.1226 25.5656 25.2703 25.5621 25.773C25.5516 27.218 25.5586 28.6664 25.5586 30.1113C25.5586 30.5965 25.759 30.8144 26.1738 30.8918C26.5641 30.9656 27.0316 30.7336 27.0352 30.2203V27.9879V25.7203C27.0352 25.6746 27.0352 25.6183 27.0246 25.5691ZM26.0508 19.1531C25.7449 19.2199 25.5586 19.5117 25.5586 19.8492V22.957C25.5586 23.4176 25.6992 23.6953 26.1949 23.7902C26.557 23.857 27.0387 23.6074 27.0352 23.1398C27.0316 22.5844 27.0352 22.0289 27.0352 21.4699C27.0352 20.932 27.0281 20.3941 27.0352 19.8527C27.0457 19.1848 26.5219 19.0512 26.0508 19.1531ZM21.8672 19.2445C21.6949 19.125 21.5121 19.1285 21.3258 19.1285C20.9566 19.1285 20.6754 19.4062 20.6754 19.7719V20.6859C20.6754 21.0023 20.6719 21.3187 20.6754 21.6351C20.6789 21.7969 20.7211 21.941 20.8477 22.0676C21.0305 22.2504 21.2414 22.3031 21.4875 22.2961C21.8355 22.2855 22.1484 21.9832 22.1484 21.6387C22.152 21.0164 22.1555 20.3976 22.1449 19.7754C22.1449 19.5609 22.0605 19.3781 21.8672 19.2445ZM30.8777 19.5434C30.8004 19.3254 30.5332 19.1285 30.2484 19.1215C29.7457 19.1039 29.4188 19.3992 29.4574 19.923C29.475 20.1691 29.4609 20.4152 29.4609 20.6613V21.5402C29.4609 21.593 29.4609 21.6457 29.475 21.6949C29.5875 22.057 29.9285 22.2398 30.3152 22.1871C30.702 22.1308 30.927 21.8918 30.934 21.4945C30.9445 20.9391 30.9375 20.3801 30.9375 19.8246C30.9375 19.7226 30.9094 19.6312 30.8777 19.5434ZM12.375 9.06327C12.3082 8.80663 12.0973 8.61679 11.8336 8.58163C11.7879 8.5746 11.7387 8.56757 11.693 8.56757C11.6719 8.56757 11.6402 8.5746 11.6332 8.53944H10.6207C10.6066 8.56405 10.582 8.54999 10.5645 8.54999C10.0969 8.54999 9.6293 8.54647 9.16172 8.5535C8.99297 8.5535 8.82773 8.58514 8.68008 8.67655C8.53594 8.76444 8.45508 8.89452 8.40937 9.05272C8.40234 9.08436 8.40938 9.11952 8.38828 9.14413V11.7984C8.42344 11.8055 8.41289 11.8371 8.41641 11.8582C8.44102 12.0023 8.47969 12.1359 8.57812 12.2449C8.7082 12.3891 8.88047 12.4488 9.0668 12.4523C9.92109 12.4558 10.7789 12.4558 11.6332 12.4523C11.7422 12.4523 11.8477 12.4418 11.9531 12.4066C12.2309 12.3187 12.3996 12.0937 12.3996 11.8019V9.27421C12.4031 9.20389 12.3926 9.13358 12.375 9.06327ZM27.6152 8.79257C27.5484 8.53593 27.3375 8.34608 27.0738 8.31093C27.0281 8.30389 26.9789 8.29686 26.9332 8.29686C26.9121 8.29686 26.8805 8.30389 26.8734 8.26874H25.8609C25.8469 8.29335 25.8223 8.27928 25.8047 8.27928C25.3371 8.27928 24.8695 8.27577 24.402 8.2828C24.2332 8.2828 24.068 8.31444 23.9203 8.40585C23.7762 8.49374 23.6953 8.62382 23.6496 8.78202C23.6426 8.81366 23.6496 8.84882 23.6285 8.87343V11.5277C23.6637 11.5348 23.6531 11.5664 23.6566 11.5875C23.6813 11.7316 23.7199 11.8652 23.8184 11.9742C23.9484 12.1183 24.1207 12.1781 24.307 12.1816C25.1613 12.1851 26.0191 12.1851 26.8734 12.1816C26.9824 12.1816 27.0879 12.1711 27.1934 12.1359C27.4711 12.048 27.6398 11.823 27.6398 11.5312V9.0035C27.6469 8.93319 27.6328 8.85936 27.6152 8.79257ZM12.3539 23.7867C12.2871 23.5301 12.0762 23.3402 11.8125 23.3051C11.7668 23.298 11.7176 23.291 11.6719 23.291C11.6508 23.291 11.6191 23.298 11.6121 23.2629H10.5996C10.5855 23.2875 10.5609 23.2734 10.5434 23.2734C10.0758 23.2734 9.6082 23.2699 9.14062 23.2769C8.97188 23.2769 8.80664 23.3086 8.65898 23.4C8.51484 23.4879 8.43398 23.618 8.38828 23.7762C8.38125 23.8078 8.38828 23.843 8.36719 23.8676V26.5219C8.40234 26.5289 8.3918 26.5605 8.39531 26.5816C8.41992 26.7258 8.45859 26.8594 8.55703 26.9683C8.68711 27.1125 8.85937 27.1723 9.0457 27.1758C9.9 27.1793 10.7578 27.1793 11.6121 27.1758C11.7211 27.1758 11.8266 27.1652 11.932 27.1301C12.2098 27.0422 12.3785 26.8172 12.3785 26.5254V23.9976C12.382 23.9273 12.3715 23.857 12.3539 23.7867Z" fill="black"/>
</svg>
