<svg width="80" height="75" viewBox="0 0 80 75" fill="none" xmlns="http://www.w3.org/2000/svg">
<circle cx="39.2093" cy="37.2093" r="37.2093" fill="#698DFE" fill-opacity="0.05"/>
<path fill-rule="evenodd" clip-rule="evenodd" d="M16 23C14.8954 23 14 23.8954 14 25V39.3178C15.5673 39.3178 16.8378 40.5884 16.8378 42.1556C16.8378 43.7229 15.5673 44.9935 14 44.9935V49.3787C14 50.4833 14.8954 51.3787 16 51.3787H61.6628C62.7673 51.3787 63.6628 50.4833 63.6628 49.3787V44.9935H63.6627C62.0954 44.9935 60.8248 43.723 60.8248 42.1556C60.8248 40.5883 62.0954 39.3178 63.6627 39.3178H63.6628V25C63.6628 23.8954 62.7673 23 61.6628 23H16ZM22.5946 26.687C21.7662 26.687 21.0946 27.3586 21.0946 28.187C21.0946 29.0154 21.7662 29.687 22.5946 29.687H32.365C33.1935 29.687 33.865 29.0154 33.865 28.187C33.865 27.3586 33.1935 26.687 32.365 26.687H22.5946ZM21.0946 33.0362C21.0946 32.4839 21.5423 32.0362 22.0946 32.0362H42.7976C43.3499 32.0362 43.7976 32.4839 43.7976 33.0362C43.7976 33.5885 43.3499 34.0362 42.7976 34.0362H22.0946C21.5423 34.0362 21.0946 33.5885 21.0946 33.0362ZM22.0946 36.4506C21.5423 36.4506 21.0946 36.8983 21.0946 37.4506C21.0946 38.0029 21.5423 38.4506 22.0946 38.4506H38.5408C39.0931 38.4506 39.5408 38.0029 39.5408 37.4506C39.5408 36.8983 39.0931 36.4506 38.5408 36.4506H22.0946Z" fill="#698DFE" fill-opacity="0.4"/>
<path d="M15.7316 41.0574C15.5107 41.0574 15.3316 41.2365 15.3316 41.4574C15.3316 41.6783 15.5107 41.8574 15.7316 41.8574V41.0574ZM16.7314 41.8574C16.9523 41.8574 17.1314 41.6783 17.1314 41.4574C17.1314 41.2365 16.9523 41.0574 16.7314 41.0574V41.8574ZM18.7311 41.0574C18.5102 41.0574 18.3311 41.2365 18.3311 41.4574C18.3311 41.6783 18.5102 41.8574 18.7311 41.8574V41.0574ZM20.7307 41.8574C20.9517 41.8574 21.1307 41.6783 21.1307 41.4574C21.1307 41.2365 20.9517 41.0574 20.7307 41.0574V41.8574ZM22.7304 41.0574C22.5095 41.0574 22.3304 41.2365 22.3304 41.4574C22.3304 41.6783 22.5095 41.8574 22.7304 41.8574V41.0574ZM24.7301 41.8574C24.951 41.8574 25.1301 41.6783 25.1301 41.4574C25.1301 41.2365 24.951 41.0574 24.7301 41.0574V41.8574ZM26.7298 41.0574C26.5088 41.0574 26.3298 41.2365 26.3298 41.4574C26.3298 41.6783 26.5088 41.8574 26.7298 41.8574V41.0574ZM28.7294 41.8574C28.9503 41.8574 29.1294 41.6783 29.1294 41.4574C29.1294 41.2365 28.9503 41.0574 28.7294 41.0574V41.8574ZM30.7291 41.0574C30.5082 41.0574 30.3291 41.2365 30.3291 41.4574C30.3291 41.6783 30.5082 41.8574 30.7291 41.8574V41.0574ZM32.7288 41.8574C32.9497 41.8574 33.1288 41.6783 33.1288 41.4574C33.1288 41.2365 32.9497 41.0574 32.7288 41.0574V41.8574ZM34.7284 41.0574C34.5075 41.0574 34.3284 41.2365 34.3284 41.4574C34.3284 41.6783 34.5075 41.8574 34.7284 41.8574V41.0574ZM36.7281 41.8574C36.949 41.8574 37.1281 41.6783 37.1281 41.4574C37.1281 41.2365 36.949 41.0574 36.7281 41.0574V41.8574ZM38.7278 41.0574C38.5069 41.0574 38.3278 41.2365 38.3278 41.4574C38.3278 41.6783 38.5069 41.8574 38.7278 41.8574V41.0574ZM40.7274 41.8574C40.9484 41.8574 41.1274 41.6783 41.1274 41.4574C41.1274 41.2365 40.9484 41.0574 40.7274 41.0574V41.8574ZM42.7271 41.0574C42.5062 41.0574 42.3271 41.2365 42.3271 41.4574C42.3271 41.6783 42.5062 41.8574 42.7271 41.8574V41.0574ZM44.7268 41.8574C44.9477 41.8574 45.1268 41.6783 45.1268 41.4574C45.1268 41.2365 44.9477 41.0574 44.7268 41.0574V41.8574ZM46.7265 41.0574C46.5055 41.0574 46.3265 41.2365 46.3265 41.4574C46.3265 41.6783 46.5055 41.8574 46.7265 41.8574V41.0574ZM48.7261 41.8574C48.947 41.8574 49.1261 41.6783 49.1261 41.4574C49.1261 41.2365 48.947 41.0574 48.7261 41.0574V41.8574ZM50.7258 41.0574C50.5049 41.0574 50.3258 41.2365 50.3258 41.4574C50.3258 41.6783 50.5049 41.8574 50.7258 41.8574V41.0574ZM52.7255 41.8574C52.9464 41.8574 53.1255 41.6783 53.1255 41.4574C53.1255 41.2365 52.9464 41.0574 52.7255 41.0574V41.8574ZM54.7251 41.0574C54.5042 41.0574 54.3251 41.2365 54.3251 41.4574C54.3251 41.6783 54.5042 41.8574 54.7251 41.8574V41.0574ZM56.7248 41.8574C56.9457 41.8574 57.1248 41.6783 57.1248 41.4574C57.1248 41.2365 56.9457 41.0574 56.7248 41.0574V41.8574ZM58.7245 41.0574C58.5036 41.0574 58.3245 41.2365 58.3245 41.4574C58.3245 41.6783 58.5036 41.8574 58.7245 41.8574V41.0574ZM15.7316 41.8574H16.7314V41.0574H15.7316V41.8574ZM18.7311 41.8574H20.7307V41.0574H18.7311V41.8574ZM22.7304 41.8574H24.7301V41.0574H22.7304V41.8574ZM26.7298 41.8574H28.7294V41.0574H26.7298V41.8574ZM30.7291 41.8574H32.7288V41.0574H30.7291V41.8574ZM34.7284 41.8574H36.7281V41.0574H34.7284V41.8574ZM38.7278 41.8574H40.7274V41.0574H38.7278V41.8574ZM42.7271 41.8574H44.7268V41.0574H42.7271V41.8574ZM46.7265 41.8574H48.7261V41.0574H46.7265V41.8574ZM50.7258 41.8574H52.7255V41.0574H50.7258V41.8574ZM54.7251 41.8574H56.7248V41.0574H54.7251V41.8574ZM58.7245 41.8574H59.7243V41.0574H58.7245V41.8574Z" fill="white"/>
<g opacity="0.6">
<path d="M22.9976 19H15C12.2386 19 10 21.2386 10 24V31.2755" stroke="#698DFE" stroke-opacity="0.3" stroke-width="2" stroke-linecap="round"/>
<path d="M10.361 43.1899V51.1874C10.361 53.9489 12.5995 56.1874 15.361 56.1874H22.6364" stroke="#698DFE" stroke-opacity="0.3" stroke-width="2" stroke-linecap="round"/>
<path d="M68.8502 32.3586V24.361C68.8502 21.5996 66.6116 19.361 63.8502 19.361L56.5747 19.361" stroke="#698DFE" stroke-opacity="0.3" stroke-width="2" stroke-linecap="round"/>
<path d="M56.2136 55.8265H64.2112C66.9726 55.8265 69.2112 53.5879 69.2112 50.8265V43.551" stroke="#698DFE" stroke-opacity="0.3" stroke-width="2" stroke-linecap="round"/>
</g>
</svg>
