<svg width="26" height="26" viewBox="0 0 26 26" fill="none" xmlns="http://www.w3.org/2000/svg">
<path d="M12.8243 17.2162C10.3844 17.2162 8.43243 15.2838 8.43243 13C8.43243 10.6577 10.4454 8.78378 12.8243 8.78378C15.2643 8.78378 17.2162 10.7162 17.2162 13C17.2162 15.3423 15.2643 17.2162 12.8243 17.2162ZM12.8243 10.1892C11.2384 10.1892 9.8964 11.4189 9.8964 13C9.8964 14.5811 11.1774 15.8108 12.8243 15.8108C14.4713 15.8108 15.7523 14.5811 15.7523 13C15.7523 11.4189 14.4103 10.1892 12.8243 10.1892Z" fill="#C1DEFF"/>
<path d="M12.9968 9.48649C12.5888 9.48649 12.2973 9.13942 12.2973 8.79235V0.694133C12.2973 0.289222 12.6471 0 12.9968 0C13.3466 0 13.6963 0.347067 13.6963 0.694133V8.79235C13.7546 9.19726 13.4049 9.48649 12.9968 9.48649Z" fill="#C1DEFF"/>
<path d="M12.6724 4.56756C12.3783 4.56756 12.143 4.38162 12.0253 4.1337C11.8489 3.76182 11.9665 3.26597 12.3783 3.08003L14.7313 1.84043C15.0843 1.65448 15.5549 1.77845 15.7314 2.21231C15.9079 2.58419 15.7902 3.08003 15.3784 3.26597L13.0254 4.50558C12.9077 4.50558 12.7901 4.56756 12.6724 4.56756Z" fill="#C1DEFF"/>
<path d="M12.8847 4.92662C12.7096 4.92662 12.5928 4.8692 12.4761 4.81178L10.1414 3.08906C9.79122 2.85937 9.73285 2.39998 10.0247 2.05544C10.2582 1.71089 10.7251 1.65347 11.0753 1.94059L13.41 3.6633C13.7602 3.893 13.8185 4.35239 13.5267 4.69693C13.3516 4.8692 13.1181 4.92662 12.8847 4.92662ZM15.803 11.2432C15.6279 11.2432 15.4528 11.1858 15.3361 11.071C15.0442 10.8413 14.9859 10.3819 15.2193 10.0373L20.4724 3.72072C20.7058 3.43361 21.1728 3.37618 21.523 3.60588C21.8148 3.83557 21.8732 4.29496 21.6397 4.6395L16.3867 10.9561C16.2116 11.1858 16.0365 11.2432 15.803 11.2432Z" fill="#C1DEFF"/>
<path d="M22.3914 8.08108H22.2701L19.2374 7.48137C18.8128 7.4214 18.5702 7.0016 18.6308 6.5818C18.6915 6.162 19.1161 5.92212 19.5407 5.98209L22.5734 6.5818C22.998 6.64177 23.2406 7.06157 23.18 7.48137C23.0586 7.78122 22.7554 8.08108 22.3914 8.08108Z" fill="#C1DEFF"/>
<path d="M19.2815 7.2079C18.9216 7.2079 18.6216 6.97386 18.5616 6.6228L17.9618 3.69735C17.9018 3.28778 18.1417 2.93673 18.5616 2.81971C18.9816 2.7612 19.3415 2.99524 19.4614 3.4048L20.0613 6.33026C20.1213 6.73982 19.8814 7.09088 19.4614 7.2079C19.4015 7.14939 19.3415 7.2079 19.2815 7.2079ZM25.2802 13.3514H16.882C16.4621 13.3514 16.1622 13.0003 16.1622 12.6492C16.1622 12.2982 16.5221 11.9471 16.882 11.9471H25.2802C25.7001 11.9471 26 12.2982 26 12.6492C26 13.0003 25.7001 13.3514 25.2802 13.3514Z" fill="#C1DEFF"/>
<path d="M22.8221 15.4595C22.553 15.4595 22.3377 15.282 22.2301 15.0455L21.1537 12.6798C20.9923 12.325 21.0999 11.8519 21.4766 11.6744C21.7995 11.497 22.2301 11.6153 22.3915 12.0293L23.4679 14.3949C23.6293 14.7498 23.5217 15.2229 23.145 15.4003C23.0373 15.4595 22.9297 15.4595 22.8221 15.4595Z" fill="#C1DEFF"/>
<path d="M21.2921 12.9961C21.1156 12.9961 20.998 12.9368 20.8803 12.8776C20.5274 12.6408 20.4686 12.167 20.7627 11.8117L22.5272 9.44313C22.7625 9.08784 23.233 9.02863 23.586 9.3247C23.9389 9.56156 23.9977 10.0353 23.7036 10.3906L21.9391 12.7592C21.7626 12.9368 21.5273 12.9961 21.2921 12.9961ZM8.94031 13.3513H0.705814C0.294089 13.3513 0 12.9961 0 12.6408C0 12.2855 0.352907 11.9302 0.705814 11.9302H8.94031C9.35204 11.9302 9.64613 12.2855 9.64613 12.6408C9.64613 12.9961 9.35204 13.3513 8.94031 13.3513Z" fill="#C1DEFF"/>
<path d="M2.57339 16.1622C2.44944 16.1622 2.32549 16.1622 2.20153 16.1029C1.82968 15.925 1.64376 15.4506 1.82968 15.0948L3.06919 12.7229C3.25511 12.3671 3.75091 12.1892 4.12276 12.3671C4.49462 12.545 4.68054 13.0194 4.49462 13.3752L3.25511 15.7471C3.13116 16.0436 2.88326 16.1622 2.57339 16.1622Z" fill="#C1DEFF"/>
<path d="M4.57893 13C4.34621 13 4.11349 12.8846 3.99713 12.7116L2.25172 10.4044C2.019 10.0583 2.07718 9.65457 2.36808 9.36617C2.71716 9.13545 3.12443 9.19313 3.41533 9.48153L5.16074 11.7887C5.39346 12.1348 5.33528 12.5386 5.04437 12.827C4.86983 13 4.75347 13 4.57893 13ZM9.81516 10.6928C9.58243 10.6928 9.40789 10.5774 9.23335 10.4044L4.57893 4.63642C4.34621 4.34803 4.40439 3.94427 4.69529 3.65587C5.04437 3.42515 5.45164 3.48283 5.74254 3.77123L10.397 9.53921C10.6297 9.82761 10.5715 10.289 10.2806 10.5774C10.1642 10.6928 9.9897 10.6928 9.81516 10.6928Z" fill="#C1DEFF"/>
<path d="M3.89925 8.08108C3.53532 8.08108 3.23205 7.84119 3.17139 7.48137C3.11074 7.06157 3.35336 6.70174 3.77794 6.5818L6.81069 5.98209C7.23528 5.92212 7.59921 6.162 7.72052 6.5818C7.78117 7.0016 7.53855 7.36142 7.11397 7.48137L4.08122 8.08108C4.02056 8.02111 3.95991 8.08108 3.89925 8.08108Z" fill="#C1DEFF"/>
<path d="M6.69968 7.56122H6.58008C6.16148 7.50268 5.92229 7.09293 5.98209 6.68319L6.58008 3.75642C6.63988 3.34667 7.05847 3.11253 7.47706 3.17106C7.89566 3.2296 8.13486 3.63935 8.07506 4.04909L7.47706 6.97586C7.35747 7.26854 7.05847 7.56122 6.69968 7.56122ZM12.9786 25.6487C12.56 25.6487 12.261 25.2974 12.261 24.9462V16.7513C12.261 16.3415 12.6198 16.0488 12.9786 16.0488C13.3374 16.0488 13.6962 16.4001 13.6962 16.7513V24.9462C13.756 25.356 13.3972 25.6487 12.9786 25.6487Z" fill="#C1DEFF"/>
<path d="M15.7934 23.5405C15.6751 23.5405 15.5569 23.5405 15.4386 23.4861L13.0731 22.3973C12.7183 22.234 12.5408 21.7984 12.7183 21.4718C12.8957 21.1452 13.3688 20.9818 13.7236 21.1452L16.0891 22.234C16.4439 22.3973 16.6213 22.8328 16.4439 23.1595C16.3256 23.4317 16.0891 23.5405 15.7934 23.5405Z" fill="#C1DEFF"/>
<path d="M10.5635 24.2432C10.3307 24.2432 10.0979 24.1246 9.98148 23.9466C9.74868 23.5905 9.80688 23.1751 10.0979 22.8784L12.4259 21.0982C12.7751 20.8609 13.1825 20.9202 13.4735 21.2169C13.7645 21.5136 13.6481 21.9883 13.3571 22.285L11.0291 24.0652C10.8545 24.2432 10.7381 24.2432 10.5635 24.2432ZM21.0395 22.4631C20.8067 22.4631 20.6321 22.3444 20.4575 22.1664L15.2195 15.639C14.9867 15.3423 14.9867 14.8675 15.3359 14.5708C15.6269 14.3335 16.0925 14.3335 16.3835 14.6895L21.6215 21.2169C21.8543 21.5136 21.8543 21.9883 21.5051 22.285C21.3887 22.4631 21.2141 22.4631 21.0395 22.4631Z" fill="#C1DEFF"/>
<path d="M19.3587 20.027C18.9948 20.027 18.6915 19.8271 18.6308 19.5273C18.5702 19.1774 18.8128 18.8776 19.2374 18.7776L22.2701 18.2779C22.6947 18.2279 23.0586 18.4278 23.18 18.7776C23.2406 19.1275 22.998 19.4273 22.5734 19.5273L19.5407 20.027H19.3587Z" fill="#C1DEFF"/>
<path d="M18.6489 23.1892H18.5299C18.1132 23.1295 17.8751 22.712 17.9346 22.2944L18.5299 19.3118C18.5894 18.8942 19.0061 18.6556 19.4227 18.7152C19.8394 18.7749 20.0775 19.1924 20.018 19.61L19.4227 22.5927C19.3037 22.9506 19.0061 23.1892 18.6489 23.1892ZM4.95837 22.5927C4.7798 22.5927 4.66075 22.533 4.48218 22.4137C4.18456 22.1751 4.12504 21.6979 4.36313 21.34L9.12506 15.3747C9.36316 15.0764 9.83935 15.0167 10.1965 15.2554C10.4941 15.494 10.5536 15.9712 10.3155 16.3291L5.55362 22.2944C5.37504 22.533 5.19647 22.5927 4.95837 22.5927Z" fill="#C1DEFF"/>
<path d="M6.932 20.027H6.81069L3.77794 19.5273C3.35336 19.4773 3.11074 19.1275 3.17139 18.7776C3.23205 18.4278 3.65663 18.2279 4.08122 18.2779L7.11397 18.7776C7.53855 18.8276 7.78117 19.1774 7.72052 19.5273C7.59921 19.8271 7.29593 20.027 6.932 20.027Z" fill="#C1DEFF"/>
<path d="M7.29575 23.1892C6.93748 23.1892 6.63891 22.9461 6.5792 22.5814L5.98207 19.5425C5.92236 19.1171 6.16121 18.7524 6.5792 18.6309C6.99719 18.5701 7.35547 18.8132 7.47489 19.2386L8.07202 22.2775C8.13173 22.703 7.89288 23.0676 7.47489 23.1892H7.29575Z" fill="#C1DEFF"/>
</svg>
