<svg width="335" height="160" viewBox="0 0 335 160" fill="none" xmlns="http://www.w3.org/2000/svg">
<g clip-path="url(#clip0)">
<circle cx="168" cy="80" r="80" fill="url(#paint0_radial)" fill-opacity="0.2"/>
<path d="M138.377 77.0442C139.365 76.4082 140.634 76.4082 141.623 77.0442L161.726 89.977C164.244 91.5967 163.096 95.5 160.103 95.5H119.897C116.904 95.5 115.756 91.5967 118.274 89.977L138.377 77.0442Z" fill="#BFCFFF"/>
<mask id="mask0" mask-type="alpha" maskUnits="userSpaceOnUse" x="88" y="14" width="160" height="160">
<circle cx="168" cy="94" r="80" fill="#D5DFFF"/>
</mask>
<g mask="url(#mask0)">
<path d="M106.036 73.7008C107.163 72.7246 108.837 72.7246 109.964 73.7008L136.558 96.7322C138.658 98.5506 137.372 102 134.594 102H81.4057C78.628 102 77.342 98.5506 79.4417 96.7322L106.036 73.7008Z" fill="#D5DFFF"/>
</g>
<path d="M199.377 77.0442C200.365 76.4082 201.634 76.4082 202.623 77.0442L222.726 89.977C225.244 91.5967 224.096 95.5 221.103 95.5H180.897C177.904 95.5 176.756 91.5967 179.274 89.977L199.377 77.0442Z" fill="#BFCFFF"/>
<mask id="mask1" mask-type="alpha" maskUnits="userSpaceOnUse" x="88" y="0" width="160" height="160">
<circle cx="168" cy="80" r="80" fill="#D5DFFF"/>
</mask>
<g mask="url(#mask1)">
<path d="M229.036 74.7008C230.163 73.7246 231.837 73.7246 232.964 74.7008L259.558 97.7322C261.658 99.5506 260.372 103 257.594 103H204.406C201.628 103 200.342 99.5506 202.442 97.7322L229.036 74.7008Z" fill="#D5DFFF"/>
</g>
<path d="M151.202 22.8848L151.804 21.4208L152.296 21.3193L152.405 21.574L151.514 22.8848H151.202Z" fill="#698DFE" fill-opacity="0.2"/>
<path d="M151.202 22.8846L151.804 21.4207L152.083 21.6345L151.425 22.8846H151.202Z" fill="#698DFE" fill-opacity="0.2"/>
<path d="M152.083 21.6346L151.804 21.4208L152.296 21.3193L152.405 21.574L152.083 21.6346Z" fill="#698DFE" fill-opacity="0.2"/>
<path d="M150.816 20.6105L151.878 19.812L152.297 19.9526L152.275 20.1839L151.055 20.7459L150.816 20.6105Z" fill="#698DFE" fill-opacity="0.2"/>
<path d="M150.816 20.6105L151.878 19.812L152.004 20.0881L150.986 20.7071L150.816 20.6105Z" fill="#698DFE" fill-opacity="0.2"/>
<path d="M152.004 20.0881L151.878 19.812L152.297 19.9526L152.275 20.1839L152.004 20.0881Z" fill="#698DFE" fill-opacity="0.2"/>
<path d="M151.139 20.6105L150.077 19.812L149.658 19.9525L149.679 20.1839L150.9 20.7459L151.139 20.6105Z" fill="#698DFE" fill-opacity="0.2"/>
<path d="M151.139 20.6105L150.077 19.812L149.951 20.088L150.969 20.7071L151.139 20.6105Z" fill="#698DFE" fill-opacity="0.2"/>
<path d="M149.951 20.088L150.077 19.812L149.658 19.9525L149.679 20.1839L149.951 20.088Z" fill="#698DFE" fill-opacity="0.2"/>
<path d="M150.949 18.8438H151.065C151.181 18.8438 151.239 18.9017 151.239 19.0177V22.8733C151.239 22.9893 151.181 23.0473 151.065 23.0473H150.949C150.833 23.0473 150.775 22.9893 150.775 22.8733V19.0177C150.775 18.9017 150.833 18.8438 150.949 18.8438Z" fill="#698DFE" fill-opacity="0.2"/>
<path d="M152.14 19.0726C152.14 19.0726 151.437 19.34 151.326 19.4277C151.244 19.492 151.12 20.2209 151.008 20.2209C150.872 20.2209 150.794 19.5191 150.707 19.4277C150.625 19.3418 149.895 19.0588 149.895 19.0588C149.895 19.0588 150.599 18.8153 150.654 18.7375C150.741 18.614 151.008 18 151.008 18C151.008 18 151.283 18.6523 151.37 18.7363C151.46 18.8233 152.14 19.0726 152.14 19.0726Z" fill="#698DFE" fill-opacity="0.2"/>
<path d="M152.075 23.6319L153.644 23.4209L153.978 23.7966L153.812 24.0177L152.231 23.9018L152.075 23.6319Z" fill="#698DFE" fill-opacity="0.2"/>
<path d="M152.075 23.6319L153.644 23.4209L153.598 23.7695L152.187 23.8244L152.075 23.6319Z" fill="#698DFE" fill-opacity="0.2"/>
<path d="M153.598 23.7695L153.644 23.4209L153.978 23.7966L153.812 24.0177L153.598 23.7695Z" fill="#698DFE" fill-opacity="0.2"/>
<path d="M153.852 22.1602L155.075 22.6807L155.162 23.1138L154.951 23.2107L153.854 22.4345L153.852 22.1602Z" fill="#698DFE" fill-opacity="0.2"/>
<path d="M153.852 22.1602L155.075 22.6807L154.898 22.9278L153.854 22.3558L153.852 22.1602Z" fill="#698DFE" fill-opacity="0.2"/>
<path d="M154.898 22.9278L155.075 22.6807L155.162 23.1138L154.951 23.2107L154.898 22.9278Z" fill="#698DFE" fill-opacity="0.2"/>
<path d="M154.013 22.4396L154.174 21.1204L153.843 20.8279L153.653 20.9624L153.777 22.3006L154.013 22.4396Z" fill="#698DFE" fill-opacity="0.2"/>
<path d="M154.013 22.4395L154.174 21.1204L153.872 21.1494L153.845 22.3404L154.013 22.4395Z" fill="#698DFE" fill-opacity="0.2"/>
<path d="M153.872 21.1494L154.174 21.1204L153.843 20.8279L153.653 20.9624L153.872 21.1494Z" fill="#698DFE" fill-opacity="0.2"/>
<path d="M155.448 21.3919L155.506 21.4923C155.564 21.5927 155.543 21.6719 155.443 21.7299L152.104 23.6577C152.003 23.7157 151.924 23.6945 151.866 23.5941L151.808 23.4936C151.75 23.3932 151.771 23.314 151.872 23.256L155.211 21.3282C155.311 21.2702 155.39 21.2915 155.448 21.3919Z" fill="#698DFE" fill-opacity="0.2"/>
<path d="M155.845 22.538C155.845 22.538 155.263 22.0627 155.131 22.0101C155.035 21.9717 154.341 22.2286 154.285 22.1317C154.217 22.0139 154.786 21.5954 154.822 21.4745C154.855 21.3605 154.735 20.5872 154.735 20.5872C154.735 20.5872 155.298 21.0751 155.392 21.0835C155.542 21.0967 156.208 21.0214 156.208 21.0214C156.208 21.0214 155.78 21.5867 155.751 21.7027C155.721 21.824 155.845 22.538 155.845 22.538Z" fill="#698DFE" fill-opacity="0.2"/>
<path d="M151.865 24.7617L152.832 26.0147L152.674 26.4918L152.399 26.4582L151.709 25.0316L151.865 24.7617Z" fill="#698DFE" fill-opacity="0.2"/>
<path d="M151.865 24.7617L152.832 26.0147L152.507 26.1495L151.754 24.9542L151.865 24.7617Z" fill="#698DFE" fill-opacity="0.2"/>
<path d="M152.507 26.1495L152.832 26.0146L152.674 26.4918L152.399 26.4582L152.507 26.1495Z" fill="#698DFE" fill-opacity="0.2"/>
<path d="M154.028 25.5645L154.188 26.8835L153.857 27.176L153.668 27.0415L153.791 25.7035L154.028 25.5645Z" fill="#698DFE" fill-opacity="0.2"/>
<path d="M154.028 25.5645L154.188 26.8835L153.886 26.8545L153.859 25.6636L154.028 25.5645Z" fill="#698DFE" fill-opacity="0.2"/>
<path d="M153.886 26.8542L154.188 26.8832L153.857 27.1757L153.668 27.0412L153.886 26.8542Z" fill="#698DFE" fill-opacity="0.2"/>
<path d="M153.866 25.8438L155.089 25.3231L155.177 24.8902L154.966 24.7932L153.869 25.5693L153.866 25.8438Z" fill="#698DFE" fill-opacity="0.2"/>
<path d="M153.866 25.8438L155.089 25.3232L154.913 25.0762L153.868 25.648L153.866 25.8438Z" fill="#698DFE" fill-opacity="0.2"/>
<path d="M154.913 25.0762L155.089 25.3231L155.177 24.8902L154.966 24.7932L154.913 25.0762Z" fill="#698DFE" fill-opacity="0.2"/>
<path d="M155.491 26.5627L155.433 26.6632C155.375 26.7636 155.296 26.7848 155.196 26.7268L151.857 24.799C151.756 24.741 151.735 24.6618 151.793 24.5614L151.851 24.461C151.909 24.3606 151.988 24.3393 152.089 24.3973L155.428 26.3251C155.528 26.3831 155.549 26.4623 155.491 26.5627Z" fill="#698DFE" fill-opacity="0.2"/>
<path d="M154.697 27.4796C154.697 27.4796 154.817 26.7374 154.797 26.5973C154.783 26.4947 154.213 26.0226 154.269 25.9259C154.337 25.808 154.984 26.0916 155.106 26.0617C155.222 26.0336 155.831 25.5432 155.831 25.5432C155.831 25.5432 155.69 26.2748 155.73 26.3609C155.793 26.4976 156.191 27.0363 156.191 27.0363C156.191 27.0363 155.488 26.9494 155.373 26.9815C155.254 27.0157 154.697 27.4796 154.697 27.4796Z" fill="#698DFE" fill-opacity="0.2"/>
<path d="M150.81 25.1152L150.209 26.5792L149.716 26.6807L149.608 26.4261L150.499 25.1152H150.81Z" fill="#698DFE" fill-opacity="0.2"/>
<path d="M150.81 25.1152L150.209 26.5792L149.93 26.3654L150.588 25.1152H150.81Z" fill="#698DFE" fill-opacity="0.2"/>
<path d="M149.93 26.3652L150.209 26.579L149.716 26.6805L149.608 26.426L149.93 26.3652Z" fill="#698DFE" fill-opacity="0.2"/>
<path d="M151.197 27.3897L150.135 28.1882L149.716 28.0476L149.737 27.8161L150.958 27.2542L151.197 27.3897Z" fill="#698DFE" fill-opacity="0.2"/>
<path d="M151.197 27.3896L150.135 28.1882L150.009 27.912L151.026 27.293L151.197 27.3896Z" fill="#698DFE" fill-opacity="0.2"/>
<path d="M150.009 27.9121L150.135 28.1882L149.716 28.0476L149.737 27.8162L150.009 27.9121Z" fill="#698DFE" fill-opacity="0.2"/>
<path d="M150.874 27.3897L151.936 28.1882L152.355 28.0476L152.333 27.8163L151.113 27.2542L150.874 27.3897Z" fill="#698DFE" fill-opacity="0.2"/>
<path d="M150.874 27.3897L151.936 28.1883L152.062 27.9121L151.044 27.2932L150.874 27.3897Z" fill="#698DFE" fill-opacity="0.2"/>
<path d="M152.062 27.912L151.936 28.1881L152.355 28.0475L152.333 27.8162L152.062 27.912Z" fill="#698DFE" fill-opacity="0.2"/>
<path d="M151.064 29.1564H150.948C150.832 29.1564 150.774 29.0984 150.774 28.9824V25.1268C150.774 25.0109 150.832 24.9529 150.948 24.9529H151.064C151.18 24.9529 151.238 25.0109 151.238 25.1268V28.9824C151.238 29.0984 151.18 29.1564 151.064 29.1564Z" fill="#698DFE" fill-opacity="0.2"/>
<path d="M149.873 28.9266C149.873 28.9266 150.576 28.6599 150.687 28.5722C150.768 28.508 150.893 27.7791 151.004 27.7791C151.141 27.7791 151.218 28.4809 151.305 28.5722C151.388 28.6582 152.117 28.9411 152.117 28.9411C152.117 28.9411 151.413 29.1848 151.359 29.2626C151.272 29.3861 151.004 30.0001 151.004 30.0001C151.004 30.0001 150.729 29.3478 150.642 29.2638C150.553 29.1766 149.873 28.9266 149.873 28.9266Z" fill="#698DFE" fill-opacity="0.2"/>
<path d="M149.948 24.4076L148.379 24.6186L148.045 24.2429L148.212 24.0217L149.792 24.1377L149.948 24.4076Z" fill="#698DFE" fill-opacity="0.2"/>
<path d="M149.948 24.4076L148.379 24.6186L148.425 24.27L149.837 24.2151L149.948 24.4076Z" fill="#698DFE" fill-opacity="0.2"/>
<path d="M148.425 24.27L148.379 24.6186L148.045 24.2429L148.212 24.0217L148.425 24.27Z" fill="#698DFE" fill-opacity="0.2"/>
<path d="M148.171 25.8794L146.949 25.3588L146.861 24.9258L147.072 24.8289L148.169 25.6049L148.171 25.8794Z" fill="#698DFE" fill-opacity="0.2"/>
<path d="M148.171 25.8795L146.949 25.3588L147.125 25.1118L148.17 25.6838L148.171 25.8795Z" fill="#698DFE" fill-opacity="0.2"/>
<path d="M147.125 25.1118L146.949 25.3588L146.861 24.9258L147.072 24.8289L147.125 25.1118Z" fill="#698DFE" fill-opacity="0.2"/>
<path d="M148.01 25.5999L147.849 26.9189L148.181 27.2114L148.37 27.077L148.247 25.7389L148.01 25.5999Z" fill="#698DFE" fill-opacity="0.2"/>
<path d="M148.01 25.5999L147.849 26.9189L148.152 26.89L148.179 25.699L148.01 25.5999Z" fill="#698DFE" fill-opacity="0.2"/>
<path d="M148.152 26.8901L147.849 26.919L148.181 27.2115L148.37 27.0771L148.152 26.8901Z" fill="#698DFE" fill-opacity="0.2"/>
<path d="M150.215 24.5458L150.157 24.4454C150.146 24.4256 150.131 24.4082 150.113 24.3943C150.094 24.3804 150.074 24.3702 150.052 24.3643C150.03 24.3584 150.007 24.3569 149.984 24.3599C149.961 24.3629 149.939 24.3703 149.92 24.3818L147.119 25.9988C147.01 26.0246 146.922 26.0413 146.892 26.0292C146.761 25.9768 146.178 25.5013 146.178 25.5013C146.178 25.5013 146.302 26.2154 146.271 26.3365C146.242 26.4525 145.815 27.0178 145.815 27.0178C145.815 27.0178 146.48 26.9424 146.63 26.9558C146.725 26.964 147.288 27.4521 147.288 27.4521C147.288 27.4521 147.168 26.6788 147.201 26.5647C147.21 26.5331 147.256 26.481 147.317 26.4197L150.152 24.7836C150.171 24.7721 150.189 24.7569 150.203 24.7388C150.217 24.7207 150.227 24.7 150.233 24.6779C150.239 24.6558 150.24 24.6328 150.237 24.6101C150.234 24.5875 150.227 24.5656 150.215 24.5458Z" fill="#698DFE" fill-opacity="0.2"/>
<path d="M150.119 23.2672L149.152 22.0143L149.31 21.5371L149.585 21.5706L150.275 22.9973L150.119 23.2672Z" fill="#698DFE" fill-opacity="0.2"/>
<path d="M150.119 23.2674L149.152 22.0144L149.476 21.8796L150.23 23.0749L150.119 23.2674Z" fill="#698DFE" fill-opacity="0.2"/>
<path d="M149.476 21.8795L149.152 22.0143L149.31 21.5371L149.585 21.5706L149.476 21.8795Z" fill="#698DFE" fill-opacity="0.2"/>
<path d="M147.956 22.4647L147.795 21.1455L148.127 20.853L148.316 20.9875L148.193 22.3257L147.956 22.4647Z" fill="#698DFE" fill-opacity="0.2"/>
<path d="M147.956 22.4647L147.795 21.1455L148.097 21.1745L148.125 22.3655L147.956 22.4647Z" fill="#698DFE" fill-opacity="0.2"/>
<path d="M148.097 21.1745L147.795 21.1455L148.127 20.853L148.316 20.9875L148.097 21.1745Z" fill="#698DFE" fill-opacity="0.2"/>
<path d="M148.117 22.1853L146.895 22.7058L146.807 23.1389L147.018 23.2359L148.115 22.4597L148.117 22.1853Z" fill="#698DFE" fill-opacity="0.2"/>
<path d="M148.117 22.1853L146.895 22.7058L147.071 22.953L148.116 22.381L148.117 22.1853Z" fill="#698DFE" fill-opacity="0.2"/>
<path d="M147.071 22.9529L146.895 22.7058L146.807 23.1389L147.018 23.2359L147.071 22.9529Z" fill="#698DFE" fill-opacity="0.2"/>
<path d="M146.492 21.4664L146.55 21.366C146.608 21.2656 146.687 21.2444 146.788 21.3023L150.127 23.2302C150.227 23.2881 150.249 23.3673 150.191 23.4678L150.133 23.5682C150.075 23.6686 149.995 23.6898 149.895 23.6318L146.556 21.704C146.456 21.6461 146.434 21.5669 146.492 21.4664Z" fill="#698DFE" fill-opacity="0.2"/>
<path d="M147.287 20.5498C147.287 20.5498 147.166 21.2919 147.186 21.4321C147.201 21.5347 147.77 22.0068 147.715 22.1035C147.647 22.2214 147 21.9378 146.877 21.9677C146.761 21.9958 146.153 22.4862 146.153 22.4862C146.153 22.4862 146.294 21.7546 146.254 21.6685C146.19 21.5318 145.792 20.9931 145.792 20.9931C145.792 20.9931 146.495 21.08 146.611 21.0478C146.731 21.0138 147.287 20.5498 147.287 20.5498Z" fill="#698DFE" fill-opacity="0.2"/>
<path d="M149.687 24.0145C149.687 24.3605 149.825 24.6923 150.069 24.9369C150.314 25.1816 150.646 25.319 150.992 25.319C151.338 25.319 151.67 25.1816 151.914 24.9369C152.159 24.6923 152.296 24.3605 152.296 24.0145C152.296 23.8432 152.263 23.6735 152.197 23.5153C152.131 23.357 152.035 23.2132 151.914 23.0921C151.793 22.9709 151.649 22.8748 151.491 22.8093C151.333 22.7437 151.163 22.71 150.992 22.71C150.82 22.71 150.651 22.7437 150.493 22.8093C150.334 22.8748 150.19 22.9709 150.069 23.0921C149.948 23.2132 149.852 23.357 149.787 23.5153C149.721 23.6735 149.687 23.8432 149.687 24.0145Z" fill="#698DFE" fill-opacity="0.2"/>
<path d="M90.3374 16.1413L91.34 13.7013L92.1606 13.5322L92.3411 13.9567L90.8568 16.1413H90.3374Z" fill="#698DFE" fill-opacity="0.2"/>
<path d="M90.3374 16.1411L91.34 13.7012L91.805 14.0575L90.7077 16.1411H90.3374Z" fill="#698DFE" fill-opacity="0.2"/>
<path d="M91.805 14.0577L91.34 13.7013L92.1606 13.5322L92.3411 13.9567L91.805 14.0577Z" fill="#698DFE" fill-opacity="0.2"/>
<path d="M89.6933 12.3506L91.4636 11.0198L92.1618 11.2541L92.1255 11.6397L90.0912 12.5763L89.6933 12.3506Z" fill="#698DFE" fill-opacity="0.2"/>
<path d="M89.6933 12.3506L91.4636 11.0198L91.6735 11.48L89.9772 12.5115L89.6933 12.3506Z" fill="#698DFE" fill-opacity="0.2"/>
<path d="M91.6736 11.48L91.4636 11.0198L92.1618 11.2541L92.1256 11.6397L91.6736 11.48Z" fill="#698DFE" fill-opacity="0.2"/>
<path d="M90.2314 12.3506L88.461 11.0198L87.7629 11.2539L87.7989 11.6397L89.8332 12.5763L90.2314 12.3506Z" fill="#698DFE" fill-opacity="0.2"/>
<path d="M90.2313 12.3506L88.461 11.0198L88.2511 11.4797L89.9475 12.5115L90.2313 12.3506Z" fill="#698DFE" fill-opacity="0.2"/>
<path d="M88.2511 11.4797L88.461 11.0198L87.7629 11.2539L87.7989 11.6397L88.2511 11.4797Z" fill="#698DFE" fill-opacity="0.2"/>
<path d="M89.9146 9.40625H90.1079C90.3011 9.40625 90.3978 9.50288 90.3978 9.69615V16.1222C90.3978 16.3155 90.3011 16.4121 90.1079 16.4121H89.9146C89.7213 16.4121 89.6247 16.3155 89.6247 16.1222V9.69615C89.6247 9.50288 89.7213 9.40625 89.9146 9.40625Z" fill="#698DFE" fill-opacity="0.2"/>
<path d="M91.8996 9.7877C91.8996 9.7877 90.7282 10.2334 90.5427 10.3796C90.4069 10.4866 90.1999 11.7015 90.0136 11.7015C89.7868 11.7015 89.6573 10.5318 89.5118 10.3796C89.3749 10.2363 88.159 9.76475 88.159 9.76475C88.159 9.76475 89.3324 9.35889 89.4232 9.22916C89.5681 9.02334 90.0134 8 90.0134 8C90.0134 8 90.4724 9.08711 90.6173 9.22723C90.7659 9.37218 91.8996 9.7877 91.8996 9.7877Z" fill="#698DFE" fill-opacity="0.2"/>
<path d="M91.7924 17.3864L94.4068 17.0347L94.9636 17.6608L94.6863 18.0293L92.0521 17.8362L91.7924 17.3864Z" fill="#698DFE" fill-opacity="0.2"/>
<path d="M91.7924 17.3864L94.4068 17.0347L94.3307 17.6157L91.9777 17.7072L91.7924 17.3864Z" fill="#698DFE" fill-opacity="0.2"/>
<path d="M94.3307 17.6157L94.4068 17.0347L94.9636 17.6608L94.6863 18.0293L94.3307 17.6157Z" fill="#698DFE" fill-opacity="0.2"/>
<path d="M94.7532 14.9336L96.791 15.8011L96.9371 16.523L96.5851 16.6846L94.7569 15.3909L94.7532 14.9336Z" fill="#698DFE" fill-opacity="0.2"/>
<path d="M94.7532 14.9336L96.791 15.8011L96.4975 16.213L94.7559 15.2597L94.7532 14.9336Z" fill="#698DFE" fill-opacity="0.2"/>
<path d="M96.4974 16.2129L96.7909 15.801L96.9371 16.5229L96.5851 16.6845L96.4974 16.2129Z" fill="#698DFE" fill-opacity="0.2"/>
<path d="M95.0223 15.3993L95.2894 13.2006L94.7377 12.7131L94.4217 12.9373L94.6278 15.1676L95.0223 15.3993Z" fill="#698DFE" fill-opacity="0.2"/>
<path d="M95.0223 15.3993L95.2895 13.2007L94.7863 13.249L94.7409 15.2341L95.0223 15.3993Z" fill="#698DFE" fill-opacity="0.2"/>
<path d="M94.7862 13.249L95.2894 13.2006L94.7377 12.7131L94.4217 12.9373L94.7862 13.249Z" fill="#698DFE" fill-opacity="0.2"/>
<path d="M97.4138 13.6533L97.5104 13.8207C97.6071 13.988 97.5717 14.1201 97.4043 14.2167L91.8392 17.4297C91.6718 17.5263 91.5398 17.491 91.4432 17.3236L91.3466 17.1562C91.2499 16.9889 91.2853 16.8569 91.4527 16.7602L97.0178 13.5472C97.1852 13.4506 97.3172 13.4859 97.4138 13.6533Z" fill="#698DFE" fill-opacity="0.2"/>
<path d="M98.075 15.5635C98.075 15.5635 97.1043 14.7713 96.8849 14.6836C96.7245 14.6196 95.5688 15.0477 95.4756 14.8863C95.362 14.6899 96.3105 13.9924 96.3694 13.791C96.425 13.6008 96.2245 12.312 96.2245 12.312C96.2245 12.312 97.1628 13.1252 97.3203 13.1392C97.5708 13.1612 98.6799 13.0358 98.6799 13.0358C98.6799 13.0358 97.9675 13.978 97.9187 14.1712C97.8689 14.3734 98.075 15.5635 98.075 15.5635Z" fill="#698DFE" fill-opacity="0.2"/>
<path d="M91.4414 19.2695L93.0532 21.3578L92.7894 22.153L92.3316 22.097L91.1817 19.7194L91.4414 19.2695Z" fill="#698DFE" fill-opacity="0.2"/>
<path d="M91.4414 19.2695L93.0532 21.3578L92.5121 21.5824L91.2563 19.5904L91.4414 19.2695Z" fill="#698DFE" fill-opacity="0.2"/>
<path d="M92.5121 21.5826L93.0532 21.3579L92.7894 22.1532L92.3316 22.0971L92.5121 21.5826Z" fill="#698DFE" fill-opacity="0.2"/>
<path d="M95.0463 20.6072L95.3137 22.8056L94.762 23.2931L94.446 23.0689L94.6518 20.8389L95.0463 20.6072Z" fill="#698DFE" fill-opacity="0.2"/>
<path d="M95.0463 20.6072L95.3137 22.8056L94.8103 22.7572L94.7651 20.7724L95.0463 20.6072Z" fill="#698DFE" fill-opacity="0.2"/>
<path d="M94.8103 22.7571L95.3137 22.8054L94.762 23.2929L94.446 23.0687L94.8103 22.7571Z" fill="#698DFE" fill-opacity="0.2"/>
<path d="M94.7774 21.073L96.8151 20.2052L96.9613 19.4836L96.6093 19.322L94.781 20.6154L94.7774 21.073Z" fill="#698DFE" fill-opacity="0.2"/>
<path d="M94.7774 21.0729L96.8151 20.2051L96.5216 19.7935L94.7798 20.7465L94.7774 21.0729Z" fill="#698DFE" fill-opacity="0.2"/>
<path d="M96.5217 19.7936L96.8152 20.2052L96.9613 19.4836L96.6094 19.322L96.5217 19.7936Z" fill="#698DFE" fill-opacity="0.2"/>
<path d="M97.4857 22.271L97.389 22.4383C97.2924 22.6057 97.1604 22.6411 96.993 22.5445L91.4279 19.3314C91.2605 19.2348 91.2252 19.1028 91.3218 18.9354L91.4184 18.7681C91.5151 18.6007 91.6471 18.5653 91.8144 18.6619L97.3796 21.875C97.5469 21.9716 97.5823 22.1036 97.4857 22.271Z" fill="#698DFE" fill-opacity="0.2"/>
<path d="M96.1617 23.7993C96.1617 23.7993 96.3625 22.5624 96.3286 22.3288C96.3045 22.1578 95.3553 21.3709 95.4483 21.2098C95.5618 21.0134 96.6395 21.4859 96.8439 21.4362C97.0372 21.3893 98.0518 20.572 98.0518 20.572C98.0518 20.572 97.8168 21.7913 97.8827 21.9348C97.9888 22.1626 98.6522 23.0605 98.6522 23.0605C98.6522 23.0605 97.4805 22.9156 97.2879 22.9692C97.0896 23.0262 96.1617 23.7993 96.1617 23.7993Z" fill="#698DFE" fill-opacity="0.2"/>
<path d="M89.6837 19.8586L88.6811 22.2986L87.8605 22.4677L87.68 22.0435L89.1643 19.8586H89.6837Z" fill="#698DFE" fill-opacity="0.2"/>
<path d="M89.6837 19.8586L88.6812 22.2986L88.2161 21.9423L89.3134 19.8586H89.6837Z" fill="#698DFE" fill-opacity="0.2"/>
<path d="M88.2161 21.9419L88.6811 22.2982L87.8605 22.4673L87.68 22.0431L88.2161 21.9419Z" fill="#698DFE" fill-opacity="0.2"/>
<path d="M90.3277 23.6495L88.5577 24.9803L87.8595 24.746L87.8955 24.3602L89.9298 23.4236L90.3277 23.6495Z" fill="#698DFE" fill-opacity="0.2"/>
<path d="M90.3277 23.6494L88.5577 24.9803L88.3477 24.5201L90.0441 23.4883L90.3277 23.6494Z" fill="#698DFE" fill-opacity="0.2"/>
<path d="M88.3477 24.52L88.5577 24.9802L87.8595 24.7459L87.8955 24.3601L88.3477 24.52Z" fill="#698DFE" fill-opacity="0.2"/>
<path d="M89.79 23.6495L91.5603 24.9803L92.2585 24.746L92.2222 24.3604L90.1879 23.4236L89.79 23.6495Z" fill="#698DFE" fill-opacity="0.2"/>
<path d="M89.79 23.6494L91.5603 24.9803L91.7702 24.5201L90.0736 23.4885L89.79 23.6494Z" fill="#698DFE" fill-opacity="0.2"/>
<path d="M91.7702 24.52L91.5602 24.9802L92.2584 24.7459L92.2222 24.3604L91.7702 24.52Z" fill="#698DFE" fill-opacity="0.2"/>
<path d="M90.1065 26.594H89.9132C89.7199 26.594 89.6233 26.4973 89.6233 26.3041V19.878C89.6233 19.6848 89.7199 19.5881 89.9132 19.5881H90.1065C90.2997 19.5881 90.3963 19.6848 90.3963 19.878V26.3041C90.3963 26.4973 90.2997 26.594 90.1065 26.594Z" fill="#698DFE" fill-opacity="0.2"/>
<path d="M88.1213 26.2109C88.1213 26.2109 89.2928 25.7664 89.4783 25.6203C89.6141 25.5133 89.8211 24.2983 90.0074 24.2983C90.2342 24.2983 90.3637 25.4681 90.5091 25.6203C90.6461 25.7635 91.862 26.2351 91.862 26.2351C91.862 26.2351 90.6877 26.6412 90.5975 26.7709C90.4526 26.9768 90.0074 28.0001 90.0074 28.0001C90.0074 28.0001 89.5484 26.913 89.4034 26.7729C89.2551 26.6277 88.1213 26.2109 88.1213 26.2109Z" fill="#698DFE" fill-opacity="0.2"/>
<path d="M88.2462 18.6795L85.6321 19.0312L85.0753 18.405L85.3526 18.0364L87.9865 18.2296L88.2462 18.6795Z" fill="#698DFE" fill-opacity="0.2"/>
<path d="M88.2462 18.6795L85.6321 19.0312L85.7082 18.4502L88.0612 18.3586L88.2462 18.6795Z" fill="#698DFE" fill-opacity="0.2"/>
<path d="M85.7082 18.4502L85.6321 19.0312L85.0753 18.405L85.3526 18.0364L85.7082 18.4502Z" fill="#698DFE" fill-opacity="0.2"/>
<path d="M85.2854 21.1323L83.2479 20.2646L83.1015 19.543L83.4537 19.3813L85.282 20.6748L85.2854 21.1323Z" fill="#698DFE" fill-opacity="0.2"/>
<path d="M85.2854 21.1324L83.2479 20.2647L83.5414 19.853L85.283 20.8063L85.2854 21.1324Z" fill="#698DFE" fill-opacity="0.2"/>
<path d="M83.5414 19.8529L83.2479 20.2646L83.1015 19.543L83.4537 19.3813L83.5414 19.8529Z" fill="#698DFE" fill-opacity="0.2"/>
<path d="M85.0166 20.6665L84.7491 22.8649L85.3012 23.3524L85.6171 23.1284L85.4111 20.8982L85.0166 20.6665Z" fill="#698DFE" fill-opacity="0.2"/>
<path d="M85.0166 20.6665L84.7491 22.8649L85.2526 22.8168L85.298 20.8317L85.0166 20.6665Z" fill="#698DFE" fill-opacity="0.2"/>
<path d="M85.2526 22.8169L84.7491 22.865L85.3012 23.3525L85.6171 23.1285L85.2526 22.8169Z" fill="#698DFE" fill-opacity="0.2"/>
<path d="M88.6922 18.9096L88.5956 18.7422C88.5766 18.7092 88.5512 18.6803 88.521 18.6571C88.4908 18.6339 88.4563 18.6169 88.4195 18.607C88.3827 18.5972 88.3443 18.5947 88.3066 18.5997C88.2688 18.6047 88.2324 18.617 88.1994 18.6361L83.5318 21.3312C83.3507 21.3742 83.204 21.402 83.154 21.3819C82.9346 21.2945 81.964 20.5021 81.964 20.5021C81.964 20.5021 82.1698 21.6921 82.1191 21.8941C82.0708 22.0873 81.3578 23.0295 81.3578 23.0295C81.3578 23.0295 82.4672 22.9039 82.7175 22.9261C82.875 22.9399 83.8133 23.7533 83.8133 23.7533C83.8133 23.7533 83.6137 22.4644 83.6683 22.2743C83.6838 22.2216 83.7601 22.1349 83.8616 22.0327L88.586 19.3058C88.619 19.2867 88.6479 19.2614 88.6711 19.2312C88.6943 19.201 88.7113 19.1665 88.7212 19.1297C88.7311 19.0929 88.7336 19.0545 88.7286 19.0168C88.7237 18.979 88.7113 18.9426 88.6922 18.9096Z" fill="#698DFE" fill-opacity="0.2"/>
<path d="M88.5313 16.7788L86.9195 14.6905L87.1835 13.8953L87.6411 13.9511L88.791 16.3289L88.5313 16.7788Z" fill="#698DFE" fill-opacity="0.2"/>
<path d="M88.5313 16.7787L86.9195 14.6905L87.4606 14.4658L88.7166 16.4579L88.5313 16.7787Z" fill="#698DFE" fill-opacity="0.2"/>
<path d="M87.4606 14.4659L86.9195 14.6905L87.1835 13.8953L87.6411 13.9511L87.4606 14.4659Z" fill="#698DFE" fill-opacity="0.2"/>
<path d="M84.9264 15.4413L84.659 13.2426L85.211 12.7551L85.527 12.9793L85.3209 15.2096L84.9264 15.4413Z" fill="#698DFE" fill-opacity="0.2"/>
<path d="M84.9264 15.4411L84.659 13.2424L85.1625 13.2907L85.2079 15.2758L84.9264 15.4411Z" fill="#698DFE" fill-opacity="0.2"/>
<path d="M85.1625 13.291L84.659 13.2426L85.211 12.7551L85.527 12.9793L85.1625 13.291Z" fill="#698DFE" fill-opacity="0.2"/>
<path d="M85.1953 14.9753L83.1578 15.8429L83.0114 16.5647L83.3636 16.7263L85.1919 15.4327L85.1953 14.9753Z" fill="#698DFE" fill-opacity="0.2"/>
<path d="M85.1953 14.9753L83.1578 15.8429L83.4513 16.2548L85.1929 15.3015L85.1953 14.9753Z" fill="#698DFE" fill-opacity="0.2"/>
<path d="M83.4513 16.2549L83.1578 15.843L83.0114 16.5649L83.3636 16.7265L83.4513 16.2549Z" fill="#698DFE" fill-opacity="0.2"/>
<path d="M82.4872 13.7772L82.5838 13.6098C82.6805 13.4425 82.8125 13.4071 82.9798 13.5037L88.545 16.7168C88.7123 16.8134 88.7477 16.9454 88.6511 17.1128L88.5544 17.2801C88.4578 17.4475 88.3258 17.4829 88.1584 17.3863L82.5933 14.1732C82.4259 14.0766 82.3906 13.9446 82.4872 13.7772Z" fill="#698DFE" fill-opacity="0.2"/>
<path d="M83.8111 12.2498C83.8111 12.2498 83.6103 13.4867 83.6441 13.7203C83.6683 13.8913 84.6175 14.6781 84.5245 14.8393C84.4109 15.0357 83.3332 14.5631 83.1289 14.6129C82.9356 14.6598 81.9209 15.477 81.9209 15.477C81.9209 15.477 82.156 14.2578 82.0901 14.1143C81.984 13.8865 81.3206 12.9885 81.3206 12.9885C81.3206 12.9885 82.4923 13.1335 82.6848 13.0798C82.8846 13.0231 83.8111 12.2498 83.8111 12.2498Z" fill="#698DFE" fill-opacity="0.2"/>
<path d="M87.8121 18.0243C87.8121 18.601 88.0411 19.154 88.4489 19.5617C88.8566 19.9695 89.4097 20.1986 89.9863 20.1986C90.5629 20.1986 91.116 19.9695 91.5237 19.5617C91.9315 19.154 92.1605 18.601 92.1605 18.0243C92.1605 17.7388 92.1043 17.4561 91.995 17.1923C91.8858 16.9285 91.7256 16.6888 91.5237 16.4869C91.3218 16.285 91.0821 16.1249 90.8183 16.0156C90.5546 15.9063 90.2718 15.8501 89.9863 15.8501C89.7008 15.8501 89.418 15.9063 89.1543 16.0156C88.8905 16.1249 88.6508 16.285 88.4489 16.4869C88.247 16.6888 88.0868 16.9285 87.9776 17.1923C87.8683 17.4561 87.8121 17.7388 87.8121 18.0243Z" fill="#698DFE" fill-opacity="0.2"/>
<path d="M80.2699 78.513L81.0719 76.5611L81.7285 76.4258L81.8728 76.7653L80.6854 78.513H80.2699Z" fill="#698DFE" fill-opacity="0.2"/>
<path d="M80.2699 78.513L81.0719 76.561L81.444 76.8461L80.5662 78.513H80.2699Z" fill="#698DFE" fill-opacity="0.2"/>
<path d="M81.444 76.8461L81.072 76.5611L81.7285 76.4258L81.8728 76.7653L81.444 76.8461Z" fill="#698DFE" fill-opacity="0.2"/>
<path d="M79.7546 75.4805L81.1709 74.4158L81.7294 74.6032L81.7004 74.9117L80.0729 75.661L79.7546 75.4805Z" fill="#698DFE" fill-opacity="0.2"/>
<path d="M79.7546 75.4805L81.1709 74.4158L81.3388 74.7839L79.9817 75.6092L79.7546 75.4805Z" fill="#698DFE" fill-opacity="0.2"/>
<path d="M81.3388 74.7839L81.1709 74.4158L81.7294 74.6032L81.7004 74.9117L81.3388 74.7839Z" fill="#698DFE" fill-opacity="0.2"/>
<path d="M80.185 75.4805L78.7688 74.4158L78.2103 74.603L78.2391 74.9117L79.8665 75.661L80.185 75.4805Z" fill="#698DFE" fill-opacity="0.2"/>
<path d="M80.1851 75.4805L78.7688 74.4158L78.6009 74.7837L79.958 75.6092L80.1851 75.4805Z" fill="#698DFE" fill-opacity="0.2"/>
<path d="M78.6009 74.7837L78.7688 74.4158L78.2103 74.603L78.2391 74.9117L78.6009 74.7837Z" fill="#698DFE" fill-opacity="0.2"/>
<path d="M79.9317 73.125H80.0863C80.2409 73.125 80.3182 73.2023 80.3182 73.3569V78.4978C80.3182 78.6524 80.2409 78.7297 80.0863 78.7297H79.9317C79.7771 78.7297 79.6998 78.6524 79.6998 78.4978V73.3569C79.6998 73.2023 79.7771 73.125 79.9317 73.125Z" fill="#698DFE" fill-opacity="0.2"/>
<path d="M81.5197 73.4302C81.5197 73.4302 80.5826 73.7867 80.4342 73.9037C80.3255 73.9893 80.1599 74.9612 80.0109 74.9612C79.8294 74.9612 79.7258 74.0254 79.6095 73.9037C79.4999 73.7891 78.5272 73.4118 78.5272 73.4118C78.5272 73.4118 79.4659 73.0871 79.5386 72.9833C79.6545 72.8187 80.0107 72 80.0107 72C80.0107 72 80.3779 72.8697 80.4939 72.9818C80.6127 73.0977 81.5197 73.4302 81.5197 73.4302Z" fill="#698DFE" fill-opacity="0.2"/>
<path d="M81.4339 79.5092L83.5254 79.2278L83.9709 79.7287L83.749 80.0235L81.6417 79.869L81.4339 79.5092Z" fill="#698DFE" fill-opacity="0.2"/>
<path d="M81.4339 79.5092L83.5254 79.2278L83.4645 79.6926L81.5821 79.7658L81.4339 79.5092Z" fill="#698DFE" fill-opacity="0.2"/>
<path d="M83.4645 79.6926L83.5254 79.2278L83.9709 79.7287L83.749 80.0235L83.4645 79.6926Z" fill="#698DFE" fill-opacity="0.2"/>
<path d="M83.8026 77.5469L85.4328 78.2409L85.5497 78.8184L85.2681 78.9477L83.8055 77.9127L83.8026 77.5469Z" fill="#698DFE" fill-opacity="0.2"/>
<path d="M83.8026 77.5469L85.4328 78.2409L85.198 78.5704L83.8047 77.8078L83.8026 77.5469Z" fill="#698DFE" fill-opacity="0.2"/>
<path d="M85.1979 78.5705L85.4328 78.241L85.5497 78.8184L85.2681 78.9477L85.1979 78.5705Z" fill="#698DFE" fill-opacity="0.2"/>
<path d="M84.0178 77.9194L84.2316 76.1605L83.7901 75.7705L83.5374 75.9499L83.7022 77.7341L84.0178 77.9194Z" fill="#698DFE" fill-opacity="0.2"/>
<path d="M84.0179 77.9195L84.2316 76.1606L83.8291 76.1993L83.7927 77.7874L84.0179 77.9195Z" fill="#698DFE" fill-opacity="0.2"/>
<path d="M83.829 76.1992L84.2316 76.1605L83.7901 75.7705L83.5374 75.9499L83.829 76.1992Z" fill="#698DFE" fill-opacity="0.2"/>
<path d="M85.9311 76.5226L86.0084 76.6565C86.0857 76.7904 86.0574 76.896 85.9235 76.9733L81.4714 79.5437C81.3375 79.621 81.2319 79.5927 81.1546 79.4588L81.0773 79.3249C81 79.191 81.0283 79.0854 81.1622 79.0081L85.6143 76.4377C85.7482 76.3604 85.8538 76.3887 85.9311 76.5226Z" fill="#698DFE" fill-opacity="0.2"/>
<path d="M86.46 78.0509C86.46 78.0509 85.6835 77.4171 85.508 77.347C85.3796 77.2958 84.4551 77.6382 84.3805 77.5091C84.2896 77.352 85.0484 76.7941 85.0955 76.6329C85.14 76.4808 84.9796 75.4497 84.9796 75.4497C84.9796 75.4497 85.7302 76.1002 85.8562 76.1114C86.0567 76.129 86.9439 76.0287 86.9439 76.0287C86.9439 76.0287 86.374 76.7825 86.335 76.9371C86.2951 77.0988 86.46 78.0509 86.46 78.0509Z" fill="#698DFE" fill-opacity="0.2"/>
<path d="M81.1531 81.0156L82.4426 82.6862L82.2316 83.3224L81.8653 83.2776L80.9454 81.3755L81.1531 81.0156Z" fill="#698DFE" fill-opacity="0.2"/>
<path d="M81.1531 81.0156L82.4426 82.6862L82.0097 82.8659L81.0051 81.2723L81.1531 81.0156Z" fill="#698DFE" fill-opacity="0.2"/>
<path d="M82.0097 82.866L82.4426 82.6863L82.2315 83.3225L81.8653 83.2777L82.0097 82.866Z" fill="#698DFE" fill-opacity="0.2"/>
<path d="M84.037 82.0857L84.251 83.8444L83.8096 84.2344L83.5568 84.0551L83.7214 82.271L84.037 82.0857Z" fill="#698DFE" fill-opacity="0.2"/>
<path d="M84.037 82.0857L84.251 83.8444L83.8482 83.8057L83.8121 82.2179L84.037 82.0857Z" fill="#698DFE" fill-opacity="0.2"/>
<path d="M83.8482 83.8057L84.251 83.8443L83.8096 84.2343L83.5568 84.055L83.8482 83.8057Z" fill="#698DFE" fill-opacity="0.2"/>
<path d="M83.8219 82.4584L85.4521 81.7642L85.569 81.1869L85.2874 81.0576L83.8248 82.0924L83.8219 82.4584Z" fill="#698DFE" fill-opacity="0.2"/>
<path d="M83.8219 82.4583L85.4521 81.7641L85.2173 81.4348L83.8238 82.1972L83.8219 82.4583Z" fill="#698DFE" fill-opacity="0.2"/>
<path d="M85.2173 81.4349L85.4522 81.7642L85.5691 81.1869L85.2875 81.0576L85.2173 81.4349Z" fill="#698DFE" fill-opacity="0.2"/>
<path d="M85.9886 83.4167L85.9113 83.5506C85.8339 83.6845 85.7283 83.7128 85.5944 83.6355L81.1423 81.0651C81.0084 80.9878 80.9802 80.8822 81.0575 80.7483L81.1348 80.6144C81.2121 80.4805 81.3177 80.4522 81.4516 80.5295L85.9037 83.0999C86.0376 83.1772 86.0659 83.2828 85.9886 83.4167Z" fill="#698DFE" fill-opacity="0.2"/>
<path d="M84.9294 84.6394C84.9294 84.6394 85.09 83.6499 85.0629 83.463C85.0436 83.3262 84.2842 82.6967 84.3586 82.5678C84.4495 82.4107 85.3116 82.7887 85.4751 82.7489C85.6297 82.7114 86.4415 82.0576 86.4415 82.0576C86.4415 82.0576 86.2534 83.033 86.3062 83.1478C86.391 83.3301 86.9217 84.0484 86.9217 84.0484C86.9217 84.0484 85.9844 83.9325 85.8304 83.9754C85.6717 84.021 84.9294 84.6394 84.9294 84.6394Z" fill="#698DFE" fill-opacity="0.2"/>
<path d="M79.7469 81.4868L78.9449 83.4388L78.2884 83.5741L78.144 83.2347L79.3314 81.4868H79.7469Z" fill="#698DFE" fill-opacity="0.2"/>
<path d="M79.747 81.4868L78.9449 83.4388L78.5729 83.1537L79.4507 81.4868H79.747Z" fill="#698DFE" fill-opacity="0.2"/>
<path d="M78.5728 83.1536L78.9449 83.4386L78.2884 83.5739L78.144 83.2345L78.5728 83.1536Z" fill="#698DFE" fill-opacity="0.2"/>
<path d="M80.2622 84.5196L78.8461 85.5843L78.2876 85.3968L78.3164 85.0882L79.9439 84.3389L80.2622 84.5196Z" fill="#698DFE" fill-opacity="0.2"/>
<path d="M80.2622 84.5195L78.8461 85.5842L78.6782 85.2161L80.0353 84.3906L80.2622 84.5195Z" fill="#698DFE" fill-opacity="0.2"/>
<path d="M78.6782 85.2161L78.8461 85.5842L78.2876 85.3968L78.3164 85.0881L78.6782 85.2161Z" fill="#698DFE" fill-opacity="0.2"/>
<path d="M79.832 84.5196L81.2482 85.5843L81.8068 85.3968L81.7778 85.0883L80.1503 84.3389L79.832 84.5196Z" fill="#698DFE" fill-opacity="0.2"/>
<path d="M79.832 84.5196L81.2482 85.5843L81.4162 85.2161L80.0589 84.3909L79.832 84.5196Z" fill="#698DFE" fill-opacity="0.2"/>
<path d="M81.4161 85.2159L81.2482 85.5841L81.8067 85.3966L81.7777 85.0881L81.4161 85.2159Z" fill="#698DFE" fill-opacity="0.2"/>
<path d="M80.0851 86.8752H79.9305C79.7759 86.8752 79.6986 86.7979 79.6986 86.6433V81.5024C79.6986 81.3478 79.7759 81.2705 79.9305 81.2705H80.0851C80.2398 81.2705 80.3171 81.3478 80.3171 81.5024V86.6433C80.3171 86.7979 80.2398 86.8752 80.0851 86.8752Z" fill="#698DFE" fill-opacity="0.2"/>
<path d="M78.4971 86.5687C78.4971 86.5687 79.4342 86.213 79.5826 86.0961C79.6913 86.0105 79.8569 85.0386 80.0059 85.0386C80.1874 85.0386 80.291 85.9744 80.4073 86.0961C80.5169 86.2107 81.4896 86.588 81.4896 86.588C81.4896 86.588 80.5501 86.9129 80.478 87.0166C80.3621 87.1813 80.0059 88 80.0059 88C80.0059 88 79.6387 87.1303 79.5227 87.0182C79.4041 86.902 78.4971 86.5687 78.4971 86.5687Z" fill="#698DFE" fill-opacity="0.2"/>
<path d="M78.597 80.5435L76.5057 80.8249L76.0602 80.324L76.282 80.0291L78.3892 80.1837L78.597 80.5435Z" fill="#698DFE" fill-opacity="0.2"/>
<path d="M78.597 80.5435L76.5057 80.8249L76.5666 80.3601L78.449 80.2869L78.597 80.5435Z" fill="#698DFE" fill-opacity="0.2"/>
<path d="M76.5665 80.3601L76.5057 80.8249L76.0602 80.324L76.282 80.0291L76.5665 80.3601Z" fill="#698DFE" fill-opacity="0.2"/>
<path d="M76.2283 82.5058L74.5983 81.8116L74.4812 81.2343L74.763 81.105L76.2256 82.1397L76.2283 82.5058Z" fill="#698DFE" fill-opacity="0.2"/>
<path d="M76.2283 82.506L74.5983 81.8117L74.8331 81.4824L76.2264 82.245L76.2283 82.506Z" fill="#698DFE" fill-opacity="0.2"/>
<path d="M74.8331 81.4822L74.5983 81.8116L74.4812 81.2343L74.763 81.105L74.8331 81.4822Z" fill="#698DFE" fill-opacity="0.2"/>
<path d="M76.0133 82.1333L75.7993 83.892L76.2409 84.282L76.4937 84.1029L76.3289 82.3186L76.0133 82.1333Z" fill="#698DFE" fill-opacity="0.2"/>
<path d="M76.0133 82.1333L75.7993 83.892L76.2021 83.8535L76.2384 82.2655L76.0133 82.1333Z" fill="#698DFE" fill-opacity="0.2"/>
<path d="M76.2021 83.8535L75.7993 83.892L76.2409 84.282L76.4937 84.1028L76.2021 83.8535Z" fill="#698DFE" fill-opacity="0.2"/>
<path d="M78.9538 80.7277L78.8765 80.5938C78.8613 80.5674 78.841 80.5443 78.8168 80.5257C78.7927 80.5072 78.7651 80.4936 78.7356 80.4857C78.7062 80.4778 78.6755 80.4758 78.6453 80.4798C78.6151 80.4838 78.5859 80.4937 78.5596 80.5089L74.8255 82.665C74.6805 82.6994 74.5632 82.7216 74.5232 82.7056C74.3477 82.6356 73.5712 82.0017 73.5712 82.0017C73.5712 82.0017 73.7359 82.9537 73.6953 83.1153C73.6566 83.2699 73.0863 84.0236 73.0863 84.0236C73.0863 84.0236 73.9738 83.9231 74.174 83.9409C74.3 83.9519 75.0506 84.6027 75.0506 84.6027C75.0506 84.6027 74.891 83.5716 74.9347 83.4195C74.9471 83.3774 75.0081 83.308 75.0893 83.2262L78.8688 81.0447C78.8952 81.0294 78.9183 81.0092 78.9369 80.985C78.9555 80.9608 78.9691 80.9332 78.977 80.9038C78.9849 80.8744 78.9869 80.8437 78.9829 80.8135C78.979 80.7832 78.9691 80.7541 78.9538 80.7277Z" fill="#698DFE" fill-opacity="0.2"/>
<path d="M78.825 79.0231L77.5356 77.3525L77.7468 76.7163L78.1129 76.761L79.0328 78.6633L78.825 79.0231Z" fill="#698DFE" fill-opacity="0.2"/>
<path d="M78.825 79.0229L77.5356 77.3523L77.9685 77.1726L78.9733 78.7663L78.825 79.0229Z" fill="#698DFE" fill-opacity="0.2"/>
<path d="M77.9685 77.1728L77.5356 77.3525L77.7468 76.7163L78.1129 76.761L77.9685 77.1728Z" fill="#698DFE" fill-opacity="0.2"/>
<path d="M75.9412 77.9529L75.7272 76.194L76.1688 75.804L76.4216 75.9833L76.2568 77.7675L75.9412 77.9529Z" fill="#698DFE" fill-opacity="0.2"/>
<path d="M75.9412 77.953L75.7272 76.1941L76.13 76.2327L76.1663 77.8208L75.9412 77.953Z" fill="#698DFE" fill-opacity="0.2"/>
<path d="M76.13 76.2326L75.7272 76.194L76.1688 75.804L76.4216 75.9833L76.13 76.2326Z" fill="#698DFE" fill-opacity="0.2"/>
<path d="M76.1562 77.5803L74.5262 78.2743L74.4091 78.8518L74.6909 78.9811L76.1535 77.9462L76.1562 77.5803Z" fill="#698DFE" fill-opacity="0.2"/>
<path d="M76.1562 77.5803L74.5262 78.2743L74.7611 78.6039L76.1543 77.8412L76.1562 77.5803Z" fill="#698DFE" fill-opacity="0.2"/>
<path d="M74.7611 78.6039L74.5262 78.2744L74.4091 78.8519L74.6909 78.9812L74.7611 78.6039Z" fill="#698DFE" fill-opacity="0.2"/>
<path d="M73.9898 76.6218L74.0671 76.4879C74.1444 76.354 74.25 76.3257 74.3839 76.403L78.836 78.9735C78.9699 79.0508 78.9982 79.1564 78.9209 79.2903L78.8436 79.4242C78.7663 79.5581 78.6607 79.5864 78.5268 79.509L74.0747 76.9386C73.9408 76.8613 73.9125 76.7557 73.9898 76.6218Z" fill="#698DFE" fill-opacity="0.2"/>
<path d="M75.0489 75.3997C75.0489 75.3997 74.8883 76.3892 74.9153 76.5761C74.9347 76.7129 75.694 77.3424 75.6196 77.4713C75.5288 77.6284 74.6666 77.2504 74.5031 77.2902C74.3485 77.3277 73.5368 77.9815 73.5368 77.9815C73.5368 77.9815 73.7248 77.0061 73.6721 76.8913C73.5872 76.709 73.0565 75.9907 73.0565 75.9907C73.0565 75.9907 73.9939 76.1066 74.1479 76.0637C74.3077 76.0183 75.0489 75.3997 75.0489 75.3997Z" fill="#698DFE" fill-opacity="0.2"/>
<path d="M78.2496 80.0194C78.2496 80.4807 78.4329 80.9231 78.7591 81.2493C79.0853 81.5755 79.5277 81.7588 79.989 81.7588C80.4503 81.7588 80.8927 81.5755 81.2189 81.2493C81.5451 80.9231 81.7284 80.4807 81.7284 80.0194C81.7284 79.791 81.6834 79.5648 81.596 79.3538C81.5086 79.1427 81.3805 78.951 81.2189 78.7895C81.0574 78.628 80.8657 78.4998 80.6546 78.4124C80.4436 78.325 80.2174 78.28 79.989 78.28C79.7606 78.28 79.5344 78.325 79.3234 78.4124C79.1124 78.4998 78.9206 78.628 78.7591 78.7895C78.5976 78.951 78.4694 79.1427 78.382 79.3538C78.2946 79.5648 78.2496 79.791 78.2496 80.0194Z" fill="#698DFE" fill-opacity="0.2"/>
<path d="M262.169 66.0707L262.67 64.8507L263.08 64.7661L263.171 64.9783L262.428 66.0707H262.169Z" fill="#698DFE" fill-opacity="0.2"/>
<path d="M262.169 66.0706L262.67 64.8506L262.903 65.0288L262.354 66.0706H262.169Z" fill="#698DFE" fill-opacity="0.2"/>
<path d="M262.903 65.0288L262.67 64.8507L263.08 64.7661L263.171 64.9783L262.903 65.0288Z" fill="#698DFE" fill-opacity="0.2"/>
<path d="M261.847 64.1754L262.732 63.51L263.081 63.6272L263.063 63.82L262.046 64.2883L261.847 64.1754Z" fill="#698DFE" fill-opacity="0.2"/>
<path d="M261.847 64.1754L262.732 63.51L262.837 63.7401L261.989 64.2559L261.847 64.1754Z" fill="#698DFE" fill-opacity="0.2"/>
<path d="M262.837 63.7401L262.732 63.51L263.081 63.6272L263.063 63.82L262.837 63.7401Z" fill="#698DFE" fill-opacity="0.2"/>
<path d="M262.116 64.1754L261.231 63.51L260.881 63.6271L260.899 63.82L261.917 64.2883L262.116 64.1754Z" fill="#698DFE" fill-opacity="0.2"/>
<path d="M262.116 64.1754L261.231 63.51L261.126 63.74L261.974 64.2559L262.116 64.1754Z" fill="#698DFE" fill-opacity="0.2"/>
<path d="M261.126 63.74L261.231 63.51L260.881 63.6271L260.899 63.82L261.126 63.74Z" fill="#698DFE" fill-opacity="0.2"/>
<path d="M261.957 62.7031H262.054C262.151 62.7031 262.199 62.7514 262.199 62.8481V66.0611C262.199 66.1577 262.151 66.206 262.054 66.206H261.957C261.861 66.206 261.812 66.1577 261.812 66.0611V62.8481C261.812 62.7514 261.861 62.7031 261.957 62.7031Z" fill="#698DFE" fill-opacity="0.2"/>
<path d="M262.95 62.8938C262.95 62.8938 262.364 63.1167 262.271 63.1898C262.203 63.2433 262.1 63.8508 262.007 63.8508C261.893 63.8508 261.829 63.2659 261.756 63.1898C261.687 63.1182 261.079 62.8824 261.079 62.8824C261.079 62.8824 261.666 62.6794 261.712 62.6146C261.784 62.5117 262.007 62 262.007 62C262.007 62 262.236 62.5436 262.309 62.6136C262.383 62.6861 262.95 62.8938 262.95 62.8938Z" fill="#698DFE" fill-opacity="0.2"/>
<path d="M262.896 66.6932L264.203 66.5173L264.482 66.8304L264.343 67.0146L263.026 66.9181L262.896 66.6932Z" fill="#698DFE" fill-opacity="0.2"/>
<path d="M262.896 66.6932L264.203 66.5173L264.165 66.8078L262.989 66.8536L262.896 66.6932Z" fill="#698DFE" fill-opacity="0.2"/>
<path d="M264.165 66.8078L264.203 66.5173L264.482 66.8304L264.343 67.0146L264.165 66.8078Z" fill="#698DFE" fill-opacity="0.2"/>
<path d="M264.377 65.4668L265.395 65.9006L265.469 66.2615L265.293 66.3423L264.378 65.6955L264.377 65.4668Z" fill="#698DFE" fill-opacity="0.2"/>
<path d="M264.377 65.4668L265.395 65.9006L265.249 66.1065L264.378 65.6299L264.377 65.4668Z" fill="#698DFE" fill-opacity="0.2"/>
<path d="M265.249 66.1066L265.395 65.9006L265.468 66.2616L265.293 66.3424L265.249 66.1066Z" fill="#698DFE" fill-opacity="0.2"/>
<path d="M264.511 65.6998L264.645 64.6004L264.369 64.3567L264.211 64.4688L264.314 65.5839L264.511 65.6998Z" fill="#698DFE" fill-opacity="0.2"/>
<path d="M264.511 65.6997L264.645 64.6003L264.393 64.6245L264.37 65.617L264.511 65.6997Z" fill="#698DFE" fill-opacity="0.2"/>
<path d="M264.393 64.6246L264.645 64.6004L264.369 64.3567L264.211 64.4688L264.393 64.6246Z" fill="#698DFE" fill-opacity="0.2"/>
<path d="M265.707 64.8267L265.755 64.9103C265.804 64.994 265.786 65.06 265.702 65.1083L262.92 66.7149C262.836 66.7632 262.77 66.7455 262.722 66.6618L262.673 66.5781C262.625 66.4944 262.643 66.4284 262.726 66.3801L265.509 64.7736C265.593 64.7253 265.659 64.743 265.707 64.8267Z" fill="#698DFE" fill-opacity="0.2"/>
<path d="M266.037 65.7817C266.037 65.7817 265.552 65.3857 265.442 65.3418C265.362 65.3098 264.784 65.5238 264.738 65.4431C264.681 65.3449 265.155 64.9962 265.185 64.8955C265.212 64.8004 265.112 64.156 265.112 64.156C265.112 64.156 265.581 64.5626 265.66 64.5696C265.785 64.5806 266.34 64.5179 266.34 64.5179C266.34 64.5179 265.984 64.989 265.959 65.0856C265.934 65.1867 266.037 65.7817 266.037 65.7817Z" fill="#698DFE" fill-opacity="0.2"/>
<path d="M262.721 67.6348L263.527 68.6789L263.395 69.0765L263.166 69.0485L262.591 67.8597L262.721 67.6348Z" fill="#698DFE" fill-opacity="0.2"/>
<path d="M262.721 67.6348L263.527 68.6789L263.256 68.7912L262.628 67.7952L262.721 67.6348Z" fill="#698DFE" fill-opacity="0.2"/>
<path d="M263.256 68.7913L263.527 68.679L263.395 69.0766L263.166 69.0486L263.256 68.7913Z" fill="#698DFE" fill-opacity="0.2"/>
<path d="M264.523 68.3037L264.657 69.4029L264.381 69.6467L264.223 69.5346L264.326 68.4195L264.523 68.3037Z" fill="#698DFE" fill-opacity="0.2"/>
<path d="M264.523 68.3037L264.657 69.4029L264.405 69.3787L264.383 68.3863L264.523 68.3037Z" fill="#698DFE" fill-opacity="0.2"/>
<path d="M264.405 69.3787L264.657 69.4028L264.381 69.6466L264.223 69.5345L264.405 69.3787Z" fill="#698DFE" fill-opacity="0.2"/>
<path d="M264.389 68.5364L265.408 68.1025L265.481 67.7417L265.305 67.6609L264.39 68.3076L264.389 68.5364Z" fill="#698DFE" fill-opacity="0.2"/>
<path d="M264.389 68.5364L265.408 68.1026L265.261 67.8967L264.39 68.3732L264.389 68.5364Z" fill="#698DFE" fill-opacity="0.2"/>
<path d="M265.261 67.8967L265.408 68.1025L265.481 67.7417L265.305 67.6609L265.261 67.8967Z" fill="#698DFE" fill-opacity="0.2"/>
<path d="M265.743 69.1355L265.695 69.2192C265.646 69.3029 265.58 69.3205 265.497 69.2722L262.714 67.6657C262.63 67.6174 262.613 67.5514 262.661 67.4677L262.709 67.384C262.758 67.3003 262.824 67.2827 262.907 67.331L265.69 68.9375C265.773 68.9858 265.791 69.0518 265.743 69.1355Z" fill="#698DFE" fill-opacity="0.2"/>
<path d="M265.081 69.8998C265.081 69.8998 265.181 69.2813 265.164 69.1645C265.152 69.079 264.678 68.6856 264.724 68.605C264.781 68.5068 265.32 68.7431 265.422 68.7182C265.519 68.6948 266.026 68.2861 266.026 68.2861C266.026 68.2861 265.908 68.8958 265.941 68.9675C265.994 69.0814 266.326 69.5304 266.326 69.5304C266.326 69.5304 265.74 69.4579 265.644 69.4847C265.545 69.5132 265.081 69.8998 265.081 69.8998Z" fill="#698DFE" fill-opacity="0.2"/>
<path d="M261.842 67.9292L261.341 69.1492L260.93 69.2337L260.84 69.0216L261.582 67.9292H261.842Z" fill="#698DFE" fill-opacity="0.2"/>
<path d="M261.842 67.9292L261.341 69.1492L261.108 68.971L261.657 67.9292H261.842Z" fill="#698DFE" fill-opacity="0.2"/>
<path d="M261.108 68.9709L261.341 69.1491L260.93 69.2337L260.84 69.0216L261.108 68.9709Z" fill="#698DFE" fill-opacity="0.2"/>
<path d="M262.164 69.8246L261.279 70.49L260.93 70.3729L260.948 70.18L261.965 69.7117L262.164 69.8246Z" fill="#698DFE" fill-opacity="0.2"/>
<path d="M262.164 69.8247L261.279 70.4901L261.174 70.26L262.022 69.7441L262.164 69.8247Z" fill="#698DFE" fill-opacity="0.2"/>
<path d="M261.174 70.2599L261.279 70.49L260.93 70.3728L260.948 70.1799L261.174 70.2599Z" fill="#698DFE" fill-opacity="0.2"/>
<path d="M261.895 69.8246L262.78 70.49L263.129 70.3729L263.111 70.1801L262.094 69.7117L261.895 69.8246Z" fill="#698DFE" fill-opacity="0.2"/>
<path d="M261.895 69.8246L262.78 70.49L262.885 70.2599L262.037 69.7441L261.895 69.8246Z" fill="#698DFE" fill-opacity="0.2"/>
<path d="M262.885 70.26L262.78 70.4901L263.129 70.373L263.111 70.1802L262.885 70.26Z" fill="#698DFE" fill-opacity="0.2"/>
<path d="M262.053 71.2969H261.957C261.86 71.2969 261.812 71.2486 261.812 71.1519V67.9389C261.812 67.8423 261.86 67.7939 261.957 67.7939H262.053C262.15 67.7939 262.198 67.8423 262.198 67.9389V71.1519C262.198 71.2486 262.15 71.2969 262.053 71.2969Z" fill="#698DFE" fill-opacity="0.2"/>
<path d="M261.061 71.1055C261.061 71.1055 261.646 70.8832 261.739 70.8101C261.807 70.7566 261.911 70.1492 262.004 70.1492C262.117 70.1492 262.182 70.734 262.255 70.8101C262.323 70.8818 262.931 71.1175 262.931 71.1175C262.931 71.1175 262.344 71.3206 262.299 71.3855C262.226 71.4884 262.004 72 262.004 72C262.004 72 261.774 71.4565 261.702 71.3864C261.628 71.3138 261.061 71.1055 261.061 71.1055Z" fill="#698DFE" fill-opacity="0.2"/>
<path d="M261.123 67.3396L259.816 67.5155L259.538 67.2024L259.676 67.0181L260.993 67.1147L261.123 67.3396Z" fill="#698DFE" fill-opacity="0.2"/>
<path d="M261.123 67.3396L259.816 67.5155L259.854 67.225L261.031 67.1792L261.123 67.3396Z" fill="#698DFE" fill-opacity="0.2"/>
<path d="M259.854 67.225L259.816 67.5155L259.538 67.2024L259.676 67.0181L259.854 67.225Z" fill="#698DFE" fill-opacity="0.2"/>
<path d="M259.643 68.5662L258.624 68.1323L258.551 67.7715L258.727 67.6907L259.641 68.3374L259.643 68.5662Z" fill="#698DFE" fill-opacity="0.2"/>
<path d="M259.643 68.5662L258.624 68.1323L258.771 67.9265L259.641 68.4032L259.643 68.5662Z" fill="#698DFE" fill-opacity="0.2"/>
<path d="M258.771 67.9265L258.624 68.1323L258.551 67.7715L258.727 67.6907L258.771 67.9265Z" fill="#698DFE" fill-opacity="0.2"/>
<path d="M259.508 68.3333L259.375 69.4324L259.651 69.6762L259.809 69.5642L259.705 68.4491L259.508 68.3333Z" fill="#698DFE" fill-opacity="0.2"/>
<path d="M259.508 68.3333L259.375 69.4324L259.626 69.4084L259.649 68.4159L259.508 68.3333Z" fill="#698DFE" fill-opacity="0.2"/>
<path d="M259.626 69.4084L259.375 69.4325L259.651 69.6762L259.809 69.5643L259.626 69.4084Z" fill="#698DFE" fill-opacity="0.2"/>
<path d="M261.346 67.4548L261.298 67.3711C261.288 67.3546 261.276 67.3401 261.261 67.3285C261.245 67.3169 261.228 67.3084 261.21 67.3035C261.191 67.2986 261.172 67.2973 261.153 67.2998C261.134 67.3023 261.116 67.3085 261.1 67.3181L258.766 68.6656C258.675 68.6871 258.602 68.701 258.577 68.691C258.467 68.6472 257.982 68.251 257.982 68.251C257.982 68.251 258.085 68.846 258.06 68.947C258.035 69.0437 257.679 69.5147 257.679 69.5147C257.679 69.5147 258.234 69.4519 258.359 69.463C258.438 69.4699 258.907 69.8766 258.907 69.8766C258.907 69.8766 258.807 69.2322 258.834 69.1372C258.842 69.1108 258.88 69.0675 258.931 69.0164L261.293 67.6529C261.31 67.6434 261.324 67.6307 261.336 67.6156C261.347 67.6005 261.356 67.5832 261.361 67.5648C261.366 67.5465 261.367 67.5273 261.364 67.5084C261.362 67.4895 261.356 67.4713 261.346 67.4548Z" fill="#698DFE" fill-opacity="0.2"/>
<path d="M261.266 66.3893L260.46 65.3452L260.592 64.9475L260.821 64.9754L261.395 66.1644L261.266 66.3893Z" fill="#698DFE" fill-opacity="0.2"/>
<path d="M261.266 66.3894L260.46 65.3452L260.73 65.2329L261.358 66.2289L261.266 66.3894Z" fill="#698DFE" fill-opacity="0.2"/>
<path d="M260.73 65.2328L260.46 65.3452L260.592 64.9475L260.821 64.9754L260.73 65.2328Z" fill="#698DFE" fill-opacity="0.2"/>
<path d="M259.463 65.7208L259.329 64.6214L259.605 64.3777L259.763 64.4898L259.66 65.6049L259.463 65.7208Z" fill="#698DFE" fill-opacity="0.2"/>
<path d="M259.463 65.7207L259.329 64.6213L259.581 64.6455L259.604 65.638L259.463 65.7207Z" fill="#698DFE" fill-opacity="0.2"/>
<path d="M259.581 64.6456L259.329 64.6214L259.605 64.3777L259.763 64.4898L259.581 64.6456Z" fill="#698DFE" fill-opacity="0.2"/>
<path d="M259.598 65.4878L258.579 65.9216L258.506 66.2825L258.682 66.3633L259.596 65.7164L259.598 65.4878Z" fill="#698DFE" fill-opacity="0.2"/>
<path d="M259.598 65.4878L258.579 65.9216L258.726 66.1275L259.596 65.6509L259.598 65.4878Z" fill="#698DFE" fill-opacity="0.2"/>
<path d="M258.726 66.1273L258.579 65.9214L258.506 66.2823L258.682 66.3631L258.726 66.1273Z" fill="#698DFE" fill-opacity="0.2"/>
<path d="M258.244 64.8886L258.292 64.8049C258.34 64.7212 258.406 64.7036 258.49 64.7519L261.272 66.3584C261.356 66.4067 261.374 66.4727 261.326 66.5564L261.277 66.6401C261.229 66.7238 261.163 66.7414 261.079 66.6931L258.297 65.0866C258.213 65.0383 258.195 64.9723 258.244 64.8886Z" fill="#698DFE" fill-opacity="0.2"/>
<path d="M258.906 64.1248C258.906 64.1248 258.805 64.7432 258.822 64.86C258.834 64.9455 259.309 65.3389 259.262 65.4195C259.205 65.5177 258.667 65.2814 258.564 65.3063C258.468 65.3298 257.96 65.7384 257.96 65.7384C257.96 65.7384 258.078 65.1288 258.045 65.057C257.992 64.9431 257.66 64.4941 257.66 64.4941C257.66 64.4941 258.246 64.5666 258.342 64.5398C258.442 64.5114 258.906 64.1248 258.906 64.1248Z" fill="#698DFE" fill-opacity="0.2"/>
<path d="M260.906 67.0122C260.906 67.3005 261.021 67.577 261.224 67.7809C261.428 67.9847 261.705 68.0993 261.993 68.0993C262.281 68.0993 262.558 67.9847 262.762 67.7809C262.966 67.577 263.08 67.3005 263.08 67.0122C263.08 66.8694 263.052 66.728 262.997 66.5961C262.943 66.4642 262.863 66.3444 262.762 66.2435C262.661 66.1425 262.541 66.0624 262.409 66.0078C262.277 65.9532 262.136 65.925 261.993 65.925C261.85 65.925 261.709 65.9532 261.577 66.0078C261.445 66.0624 261.325 66.1425 261.224 66.2435C261.123 66.3444 261.043 66.4642 260.989 66.5961C260.934 66.728 260.906 66.8694 260.906 67.0122Z" fill="#698DFE" fill-opacity="0.2"/>
<path d="M213.337 48.1413L214.34 45.7013L215.161 45.5322L215.341 45.9567L213.857 48.1413H213.337Z" fill="#698DFE" fill-opacity="0.2"/>
<path d="M213.337 48.1411L214.34 45.7012L214.805 46.0575L213.708 48.1411H213.337Z" fill="#698DFE" fill-opacity="0.2"/>
<path d="M214.805 46.0577L214.34 45.7013L215.161 45.5322L215.341 45.9567L214.805 46.0577Z" fill="#698DFE" fill-opacity="0.2"/>
<path d="M212.693 44.3506L214.464 43.0198L215.162 43.2541L215.126 43.6397L213.091 44.5763L212.693 44.3506Z" fill="#698DFE" fill-opacity="0.2"/>
<path d="M212.693 44.3506L214.464 43.0198L214.674 43.48L212.977 44.5115L212.693 44.3506Z" fill="#698DFE" fill-opacity="0.2"/>
<path d="M214.674 43.48L214.464 43.0198L215.162 43.2541L215.126 43.6397L214.674 43.48Z" fill="#698DFE" fill-opacity="0.2"/>
<path d="M213.231 44.3506L211.461 43.0198L210.763 43.2539L210.799 43.6397L212.833 44.5763L213.231 44.3506Z" fill="#698DFE" fill-opacity="0.2"/>
<path d="M213.231 44.3506L211.461 43.0198L211.251 43.4797L212.947 44.5115L213.231 44.3506Z" fill="#698DFE" fill-opacity="0.2"/>
<path d="M211.251 43.4797L211.461 43.0198L210.763 43.2539L210.799 43.6397L211.251 43.4797Z" fill="#698DFE" fill-opacity="0.2"/>
<path d="M212.915 41.4062H213.108C213.301 41.4062 213.398 41.5029 213.398 41.6961V48.1222C213.398 48.3155 213.301 48.4121 213.108 48.4121H212.915C212.721 48.4121 212.625 48.3155 212.625 48.1222V41.6961C212.625 41.5029 212.721 41.4062 212.915 41.4062Z" fill="#698DFE" fill-opacity="0.2"/>
<path d="M214.9 41.7877C214.9 41.7877 213.728 42.2334 213.543 42.3796C213.407 42.4866 213.2 43.7015 213.014 43.7015C212.787 43.7015 212.657 42.5318 212.512 42.3796C212.375 42.2363 211.159 41.7647 211.159 41.7647C211.159 41.7647 212.332 41.3589 212.423 41.2292C212.568 41.0233 213.013 40 213.013 40C213.013 40 213.472 41.0871 213.617 41.2272C213.766 41.3722 214.9 41.7877 214.9 41.7877Z" fill="#698DFE" fill-opacity="0.2"/>
<path d="M214.792 49.3867L217.407 49.0349L217.964 49.6611L217.686 50.0295L215.052 49.8365L214.792 49.3867Z" fill="#698DFE" fill-opacity="0.2"/>
<path d="M214.792 49.3867L217.407 49.0349L217.331 49.6159L214.978 49.7075L214.792 49.3867Z" fill="#698DFE" fill-opacity="0.2"/>
<path d="M217.331 49.6159L217.407 49.0349L217.964 49.6611L217.686 50.0295L217.331 49.6159Z" fill="#698DFE" fill-opacity="0.2"/>
<path d="M217.753 46.9336L219.791 47.8011L219.937 48.523L219.585 48.6846L217.757 47.3909L217.753 46.9336Z" fill="#698DFE" fill-opacity="0.2"/>
<path d="M217.753 46.9336L219.791 47.8011L219.498 48.213L217.756 47.2597L217.753 46.9336Z" fill="#698DFE" fill-opacity="0.2"/>
<path d="M219.497 48.2129L219.791 47.801L219.937 48.5229L219.585 48.6845L219.497 48.2129Z" fill="#698DFE" fill-opacity="0.2"/>
<path d="M218.022 47.3993L218.29 45.2006L217.738 44.7131L217.422 44.9373L217.628 47.1676L218.022 47.3993Z" fill="#698DFE" fill-opacity="0.2"/>
<path d="M218.022 47.3993L218.29 45.2007L217.786 45.249L217.741 47.2341L218.022 47.3993Z" fill="#698DFE" fill-opacity="0.2"/>
<path d="M217.786 45.249L218.29 45.2006L217.738 44.7131L217.422 44.9373L217.786 45.249Z" fill="#698DFE" fill-opacity="0.2"/>
<path d="M220.414 45.6531L220.511 45.8204C220.607 45.9878 220.572 46.1198 220.404 46.2164L214.839 49.4295C214.672 49.5261 214.54 49.4907 214.443 49.3234L214.347 49.156C214.25 48.9886 214.285 48.8566 214.453 48.76L220.018 45.547C220.185 45.4503 220.317 45.4857 220.414 45.6531Z" fill="#698DFE" fill-opacity="0.2"/>
<path d="M221.075 47.5635C221.075 47.5635 220.104 46.7713 219.885 46.6836C219.725 46.6196 218.569 47.0477 218.476 46.8863C218.362 46.6899 219.311 45.9924 219.369 45.791C219.425 45.6008 219.225 44.312 219.225 44.312C219.225 44.312 220.163 45.1252 220.32 45.1392C220.571 45.1612 221.68 45.0358 221.68 45.0358C221.68 45.0358 220.968 45.978 220.919 46.1712C220.869 46.3734 221.075 47.5635 221.075 47.5635Z" fill="#698DFE" fill-opacity="0.2"/>
<path d="M214.441 51.2695L216.053 53.3578L215.789 54.153L215.332 54.097L214.182 51.7194L214.441 51.2695Z" fill="#698DFE" fill-opacity="0.2"/>
<path d="M214.441 51.2695L216.053 53.3578L215.512 53.5824L214.256 51.5904L214.441 51.2695Z" fill="#698DFE" fill-opacity="0.2"/>
<path d="M215.512 53.5823L216.053 53.3577L215.789 54.1529L215.332 54.0969L215.512 53.5823Z" fill="#698DFE" fill-opacity="0.2"/>
<path d="M218.046 52.6072L218.314 54.8056L217.762 55.2931L217.446 55.0689L217.652 52.8389L218.046 52.6072Z" fill="#698DFE" fill-opacity="0.2"/>
<path d="M218.046 52.6072L218.314 54.8056L217.81 54.7572L217.765 52.7724L218.046 52.6072Z" fill="#698DFE" fill-opacity="0.2"/>
<path d="M217.81 54.7571L218.314 54.8054L217.762 55.2929L217.446 55.0687L217.81 54.7571Z" fill="#698DFE" fill-opacity="0.2"/>
<path d="M217.777 53.073L219.815 52.2052L219.961 51.4836L219.609 51.322L217.781 52.6154L217.777 53.073Z" fill="#698DFE" fill-opacity="0.2"/>
<path d="M217.777 53.0729L219.815 52.2051L219.522 51.7935L217.78 52.7465L217.777 53.0729Z" fill="#698DFE" fill-opacity="0.2"/>
<path d="M219.522 51.7936L219.815 52.2052L219.961 51.4836L219.609 51.322L219.522 51.7936Z" fill="#698DFE" fill-opacity="0.2"/>
<path d="M220.486 54.271L220.389 54.4383C220.292 54.6057 220.16 54.6411 219.993 54.5445L214.428 51.3314C214.26 51.2348 214.225 51.1028 214.322 50.9354L214.418 50.7681C214.515 50.6007 214.647 50.5653 214.814 50.6619L220.379 53.875C220.547 53.9716 220.582 54.1036 220.486 54.271Z" fill="#698DFE" fill-opacity="0.2"/>
<path d="M219.162 55.7993C219.162 55.7993 219.362 54.5624 219.329 54.3288C219.304 54.1578 218.355 53.3709 218.448 53.2098C218.562 53.0134 219.64 53.4859 219.844 53.4362C220.037 53.3893 221.052 52.572 221.052 52.572C221.052 52.572 220.817 53.7913 220.883 53.9348C220.989 54.1626 221.652 55.0605 221.652 55.0605C221.652 55.0605 220.48 54.9156 220.288 54.9692C220.09 55.0262 219.162 55.7993 219.162 55.7993Z" fill="#698DFE" fill-opacity="0.2"/>
<path d="M212.684 51.8584L211.681 54.2984L210.86 54.4675L210.68 54.0433L212.164 51.8584H212.684Z" fill="#698DFE" fill-opacity="0.2"/>
<path d="M212.684 51.8584L211.681 54.2984L211.216 53.942L212.313 51.8584H212.684Z" fill="#698DFE" fill-opacity="0.2"/>
<path d="M211.216 53.9421L211.681 54.2985L210.86 54.4676L210.68 54.0434L211.216 53.9421Z" fill="#698DFE" fill-opacity="0.2"/>
<path d="M213.328 55.6495L211.558 56.9803L210.859 56.746L210.895 56.3602L212.93 55.4236L213.328 55.6495Z" fill="#698DFE" fill-opacity="0.2"/>
<path d="M213.328 55.6494L211.558 56.9803L211.348 56.5201L213.044 55.4883L213.328 55.6494Z" fill="#698DFE" fill-opacity="0.2"/>
<path d="M211.348 56.52L211.558 56.9802L210.859 56.7459L210.895 56.3601L211.348 56.52Z" fill="#698DFE" fill-opacity="0.2"/>
<path d="M212.79 55.6495L214.56 56.9803L215.258 56.746L215.222 56.3604L213.188 55.4236L212.79 55.6495Z" fill="#698DFE" fill-opacity="0.2"/>
<path d="M212.79 55.6494L214.56 56.9803L214.77 56.5201L213.074 55.4885L212.79 55.6494Z" fill="#698DFE" fill-opacity="0.2"/>
<path d="M214.77 56.52L214.56 56.9802L215.258 56.7459L215.222 56.3604L214.77 56.52Z" fill="#698DFE" fill-opacity="0.2"/>
<path d="M213.106 58.5937H212.913C212.72 58.5937 212.623 58.4971 212.623 58.3038V51.8778C212.623 51.6845 212.72 51.5879 212.913 51.5879H213.106C213.3 51.5879 213.396 51.6845 213.396 51.8778V58.3038C213.396 58.4971 213.3 58.5937 213.106 58.5937Z" fill="#698DFE" fill-opacity="0.2"/>
<path d="M211.121 58.2109C211.121 58.2109 212.293 57.7664 212.478 57.6203C212.614 57.5133 212.821 56.2983 213.007 56.2983C213.234 56.2983 213.364 57.4681 213.509 57.6203C213.646 57.7635 214.862 58.2351 214.862 58.2351C214.862 58.2351 213.688 58.6412 213.598 58.7709C213.453 58.9768 213.007 60.0001 213.007 60.0001C213.007 60.0001 212.548 58.913 212.403 58.7729C212.255 58.6277 211.121 58.2109 211.121 58.2109Z" fill="#698DFE" fill-opacity="0.2"/>
<path d="M211.246 50.6795L208.632 51.0312L208.075 50.405L208.353 50.0364L210.987 50.2296L211.246 50.6795Z" fill="#698DFE" fill-opacity="0.2"/>
<path d="M211.246 50.6795L208.632 51.0312L208.708 50.4502L211.061 50.3586L211.246 50.6795Z" fill="#698DFE" fill-opacity="0.2"/>
<path d="M208.708 50.4502L208.632 51.0312L208.075 50.405L208.353 50.0364L208.708 50.4502Z" fill="#698DFE" fill-opacity="0.2"/>
<path d="M208.285 53.1323L206.248 52.2646L206.101 51.543L206.454 51.3813L208.282 52.6748L208.285 53.1323Z" fill="#698DFE" fill-opacity="0.2"/>
<path d="M208.285 53.1324L206.248 52.2647L206.541 51.853L208.283 52.8063L208.285 53.1324Z" fill="#698DFE" fill-opacity="0.2"/>
<path d="M206.541 51.8529L206.248 52.2646L206.101 51.543L206.454 51.3813L206.541 51.8529Z" fill="#698DFE" fill-opacity="0.2"/>
<path d="M208.017 52.6665L207.749 54.8649L208.301 55.3524L208.617 55.1285L208.411 52.8982L208.017 52.6665Z" fill="#698DFE" fill-opacity="0.2"/>
<path d="M208.017 52.6665L207.749 54.8649L208.253 54.8168L208.298 52.8317L208.017 52.6665Z" fill="#698DFE" fill-opacity="0.2"/>
<path d="M208.253 54.8169L207.749 54.865L208.301 55.3525L208.617 55.1285L208.253 54.8169Z" fill="#698DFE" fill-opacity="0.2"/>
<path d="M211.692 50.9098L211.596 50.7424C211.577 50.7094 211.551 50.6805 211.521 50.6573C211.491 50.6341 211.456 50.6171 211.419 50.6073C211.383 50.5974 211.344 50.5949 211.307 50.5999C211.269 50.6049 211.232 50.6173 211.199 50.6363L206.532 53.3314C206.351 53.3744 206.204 53.4022 206.154 53.3822C205.935 53.2947 204.964 52.5023 204.964 52.5023C204.964 52.5023 205.17 53.6923 205.119 53.8943C205.071 54.0876 204.358 55.0297 204.358 55.0297C204.358 55.0297 205.467 54.9041 205.717 54.9263C205.875 54.9401 206.813 55.7535 206.813 55.7535C206.813 55.7535 206.614 54.4647 206.668 54.2746C206.684 54.2219 206.76 54.1352 206.862 54.033L211.586 51.306C211.619 51.287 211.648 51.2616 211.671 51.2314C211.694 51.2012 211.711 51.1667 211.721 51.1299C211.731 51.0931 211.734 51.0548 211.729 51.017C211.724 50.9792 211.711 50.9428 211.692 50.9098Z" fill="#698DFE" fill-opacity="0.2"/>
<path d="M211.531 48.7788L209.919 46.6905L210.183 45.8953L210.641 45.9511L211.791 48.3289L211.531 48.7788Z" fill="#698DFE" fill-opacity="0.2"/>
<path d="M211.531 48.7787L209.919 46.6905L210.461 46.4658L211.717 48.4579L211.531 48.7787Z" fill="#698DFE" fill-opacity="0.2"/>
<path d="M210.461 46.4659L209.919 46.6905L210.183 45.8953L210.641 45.9511L210.461 46.4659Z" fill="#698DFE" fill-opacity="0.2"/>
<path d="M207.926 47.4413L207.659 45.2426L208.211 44.7551L208.527 44.9793L208.321 47.2096L207.926 47.4413Z" fill="#698DFE" fill-opacity="0.2"/>
<path d="M207.926 47.4411L207.659 45.2424L208.163 45.2907L208.208 47.2758L207.926 47.4411Z" fill="#698DFE" fill-opacity="0.2"/>
<path d="M208.163 45.291L207.659 45.2426L208.211 44.7551L208.527 44.9793L208.163 45.291Z" fill="#698DFE" fill-opacity="0.2"/>
<path d="M208.195 46.9756L206.158 47.8431L206.011 48.5649L206.364 48.7266L208.192 47.4329L208.195 46.9756Z" fill="#698DFE" fill-opacity="0.2"/>
<path d="M208.195 46.9756L206.158 47.8431L206.451 48.255L208.193 47.3017L208.195 46.9756Z" fill="#698DFE" fill-opacity="0.2"/>
<path d="M206.451 48.2549L206.158 47.843L206.011 48.5649L206.364 48.7265L206.451 48.2549Z" fill="#698DFE" fill-opacity="0.2"/>
<path d="M205.487 45.7772L205.584 45.6098C205.68 45.4425 205.812 45.4071 205.98 45.5037L211.545 48.7168C211.712 48.8134 211.748 48.9454 211.651 49.1128L211.554 49.2801C211.458 49.4475 211.326 49.4829 211.158 49.3863L205.593 46.1732C205.426 46.0766 205.391 45.9446 205.487 45.7772Z" fill="#698DFE" fill-opacity="0.2"/>
<path d="M206.811 44.2498C206.811 44.2498 206.61 45.4867 206.644 45.7203C206.668 45.8913 207.618 46.6781 207.525 46.8393C207.411 47.0357 206.333 46.5631 206.129 46.6129C205.936 46.6598 204.921 47.477 204.921 47.477C204.921 47.477 205.156 46.2578 205.09 46.1143C204.984 45.8865 204.321 44.9885 204.321 44.9885C204.321 44.9885 205.492 45.1335 205.685 45.0798C205.885 45.0231 206.811 44.2498 206.811 44.2498Z" fill="#698DFE" fill-opacity="0.2"/>
<path d="M210.812 50.0241C210.812 50.6007 211.041 51.1537 211.449 51.5615C211.857 51.9692 212.41 52.1983 212.986 52.1983C213.563 52.1983 214.116 51.9692 214.524 51.5615C214.932 51.1537 215.161 50.6007 215.161 50.0241C215.161 49.7386 215.104 49.4558 214.995 49.192C214.886 48.9283 214.726 48.6886 214.524 48.4867C214.322 48.2848 214.082 48.1246 213.818 48.0154C213.555 47.9061 213.272 47.8499 212.986 47.8499C212.701 47.8499 212.418 47.9061 212.154 48.0154C211.891 48.1246 211.651 48.2848 211.449 48.4867C211.247 48.6886 211.087 48.9283 210.978 49.192C210.868 49.4558 210.812 49.7386 210.812 50.0241Z" fill="#698DFE" fill-opacity="0.2"/>
<path d="M157.721 48.3066C156.303 48.3066 155.148 49.5078 155.148 50.9844C155.148 52.4609 156.303 53.6621 157.721 53.6621C159.139 53.6621 160.293 52.4609 160.293 50.9844C160.299 49.5078 159.145 48.3066 157.721 48.3066ZM168.607 48.3066C167.189 48.3066 166.035 49.5078 166.035 50.9844C166.035 52.4609 167.189 53.6621 168.607 53.6621C170.025 53.6621 171.18 52.4609 171.18 50.9844C171.186 49.5078 170.031 48.3066 168.607 48.3066ZM179.494 48.3066C178.076 48.3066 176.922 49.5078 176.922 50.9844C176.922 52.4609 178.076 53.6621 179.494 53.6621C180.912 53.6621 182.066 52.4609 182.066 50.9844C182.066 49.5078 180.912 48.3066 179.494 48.3066Z" fill="#698DFE" fill-opacity="0.8"/>
<path d="M184.938 34.1914H152.277C149.359 34.1914 146.98 36.6582 146.98 39.6934V60.8633C146.98 63.9746 149.512 66.7109 152.4 66.7109H160.756L160.797 66.7578C162.227 68.2812 168.168 74.4277 168.227 74.4922C168.326 74.5977 168.461 74.6562 168.602 74.6562C168.742 74.6562 168.877 74.5977 168.977 74.4981C169.094 74.3633 173.418 69.4707 176.219 66.7578L176.26 66.7168H184.809C187.697 66.7168 190.229 63.9863 190.229 60.8691V39.6875C190.234 36.6582 187.855 34.1914 184.938 34.1914ZM187.832 60.8691C187.832 61.666 187.51 62.498 186.947 63.1484C186.367 63.8281 185.594 64.2148 184.832 64.2148H176.477C175.545 64.2148 174.672 65.1934 174.666 65.2051L174.66 65.2109L168.684 71.4102L162.713 65.2168C162.654 65.1641 161.605 64.2148 160.738 64.2148H152.383C151.621 64.2148 150.854 63.8281 150.268 63.1484C149.705 62.498 149.383 61.666 149.383 60.8691V39.6699C149.383 38.0293 150.672 36.6992 152.254 36.6992H184.955C186.537 36.6992 187.826 38.0352 187.826 39.6699V60.8691H187.832Z" fill="#698DFE" fill-opacity="0.8"/>
</g>
<defs>
<radialGradient id="paint0_radial" cx="0" cy="0" r="1" gradientUnits="userSpaceOnUse" gradientTransform="translate(168 80) rotate(90) scale(80)">
<stop offset="0.0104167" stop-color="#698DFE"/>
<stop offset="0.989583" stop-color="#E8EDFF"/>
</radialGradient>
<clipPath id="clip0">
<rect width="335" height="160" fill="white"/>
</clipPath>
</defs>
</svg>
