<svg width="335" height="160" viewBox="0 0 335 160" fill="none" xmlns="http://www.w3.org/2000/svg">
<path d="M180.259 69.9032C179.071 70.6915 177.416 70.4335 176.291 68.5928C174.145 66.7674 175.437 65.2159 176.625 64.4275C177.814 63.6391 179.59 64.2258 180.593 65.7378C181.597 67.2499 181.447 69.1148 180.259 69.9032Z" fill="#BFCFFF"/>
<path d="M159.909 65.1897C160.665 66.3991 160.361 68.046 158.49 69.1199C156.019 71.0971 155.09 69.8799 154.335 68.6705C153.58 67.4611 154.216 65.7015 155.755 64.7403C157.294 63.7791 159.154 63.9803 159.909 65.1897Z" fill="#BFCFFF"/>
<rect x="137.478" y="75.9082" width="60.0833" height="3.98991" fill="#BFCFFF"/>
<path d="M132.784 72.4663C132.784 70.738 134.185 69.3369 135.913 69.3369C136.777 69.3369 137.478 70.0374 137.478 70.9016V85.1401C137.478 86.0042 136.777 86.7047 135.913 86.7047C134.185 86.7047 132.784 85.3037 132.784 83.5754V72.4663Z" fill="#BFCFFF"/>
<path d="M127.385 73.7961C127.385 72.2407 128.646 70.9797 130.202 70.9797C130.98 70.9797 131.61 71.6102 131.61 72.3879V83.6536C131.61 84.4313 130.98 85.0618 130.202 85.0618C128.646 85.0618 127.385 83.8008 127.385 82.2454V73.7961Z" fill="#BFCFFF"/>
<circle cx="207.653" cy="78.0208" r="2.347" fill="#BFCFFF"/>
<circle cx="127.385" cy="78.0208" r="2.347" fill="#BFCFFF"/>
<path d="M202.255 83.5755C202.255 85.3038 200.854 86.7048 199.126 86.7048C198.262 86.7048 197.561 86.0043 197.561 85.1402V70.9017C197.561 70.0375 198.262 69.337 199.126 69.337C200.854 69.337 202.255 70.7381 202.255 72.4663V83.5755Z" fill="#BFCFFF"/>
<path d="M207.653 82.2454C207.653 83.8008 206.392 85.0618 204.837 85.0618C204.059 85.0618 203.428 84.4313 203.428 83.6536V72.3879C203.428 71.6102 204.059 70.9797 204.837 70.9797C206.392 70.9797 207.653 72.2407 207.653 73.7962V82.2454Z" fill="#BFCFFF"/>
<path fill-rule="evenodd" clip-rule="evenodd" d="M181.601 96.0925H153.437L150.621 117.685H162.85C162.834 117.454 162.825 117.219 162.825 116.981C162.825 113.222 164.927 110.175 167.519 110.175C170.112 110.175 172.213 113.222 172.213 116.981C172.213 117.219 172.205 117.454 172.188 117.685H184.418L181.601 96.0925Z" fill="#BFCFFF"/>
<circle cx="156.723" cy="117.92" r="6.10221" fill="#BFCFFF"/>
<circle cx="178.315" cy="117.685" r="6.10221" fill="#BFCFFF"/>
<ellipse cx="167.519" cy="103.838" rx="11.735" ry="9.38802" fill="white"/>
<path d="M167.754 100.552C182.531 100.552 194.04 90.202 194.04 77.4342L181.601 77.3169C181.601 84.0572 175.479 88.5825 167.637 88.5825C159.794 88.5825 153.437 84.0572 153.437 77.3169L140.998 77.4342C140.998 90.202 152.977 100.552 167.754 100.552Z" fill="#BFCFFF"/>
<circle cx="147.218" cy="77.4344" r="6.21956" fill="#BFCFFF"/>
<circle cx="187.821" cy="77.4342" r="6.21956" fill="#BFCFFF"/>
<ellipse cx="167.519" cy="77.1993" rx="14.3167" ry="12.5565" fill="white"/>
<ellipse cx="160.677" cy="74.5121" rx="3.48059" ry="2.84628" transform="rotate(-34.2483 160.677 74.5121)" fill="#BFCFFF"/>
<path d="M160.444 75.5682C161.086 75.878 161.835 75.6559 162.117 75.0721L159.791 73.9504C159.51 74.5342 159.802 75.2585 160.444 75.5682Z" fill="white"/>
<ellipse cx="174.358" cy="74.6031" rx="3.48059" ry="2.84628" transform="rotate(-151.961 174.358 74.6031)" fill="#BFCFFF"/>
<path d="M174.346 75.5921C175.053 75.5025 175.56 74.9085 175.479 74.2656L172.917 74.5903C172.999 75.2333 173.638 75.6818 174.346 75.5921Z" fill="white"/>
<ellipse cx="167.519" cy="76.7302" rx="1.8776" ry="1.05615" fill="#BFCFFF"/>
<path d="M68.888 36.3625L70.0409 33.5565L70.9847 33.3621L71.1922 33.8502L69.4853 36.3625H68.888Z" fill="#698DFE" fill-opacity="0.2"/>
<path d="M68.888 36.3624L70.0409 33.5564L70.5757 33.9662L69.3139 36.3624H68.888Z" fill="#698DFE" fill-opacity="0.2"/>
<path d="M70.5758 33.9663L70.041 33.5565L70.9847 33.3621L71.1922 33.8502L70.5758 33.9663Z" fill="#698DFE" fill-opacity="0.2"/>
<path d="M68.1473 32.0032L70.1832 30.4727L70.9861 30.7421L70.9444 31.1855L68.6049 32.2626L68.1473 32.0032Z" fill="#698DFE" fill-opacity="0.2"/>
<path d="M68.1473 32.0032L70.1832 30.4727L70.4246 31.0019L68.4738 32.1882L68.1473 32.0032Z" fill="#698DFE" fill-opacity="0.2"/>
<path d="M70.4246 31.0019L70.1832 30.4727L70.9861 30.7421L70.9444 31.1855L70.4246 31.0019Z" fill="#698DFE" fill-opacity="0.2"/>
<path d="M68.7661 32.0032L66.7302 30.4727L65.9273 30.7419L65.9687 31.1855L68.3082 32.2626L68.7661 32.0032Z" fill="#698DFE" fill-opacity="0.2"/>
<path d="M68.766 32.0032L66.7302 30.4727L66.4888 31.0016L68.4396 32.1882L68.766 32.0032Z" fill="#698DFE" fill-opacity="0.2"/>
<path d="M66.4888 31.0016L66.7302 30.4727L65.9273 30.7419L65.9687 31.1855L66.4888 31.0016Z" fill="#698DFE" fill-opacity="0.2"/>
<path d="M68.4018 28.6172H68.6241C68.8463 28.6172 68.9574 28.7283 68.9574 28.9506V36.3405C68.9574 36.5628 68.8463 36.6739 68.6241 36.6739H68.4018C68.1795 36.6739 68.0684 36.5628 68.0684 36.3405V28.9506C68.0684 28.7283 68.1795 28.6172 68.4018 28.6172Z" fill="#698DFE" fill-opacity="0.2"/>
<path d="M70.6846 29.0559C70.6846 29.0559 69.3375 29.5684 69.1241 29.7365C68.968 29.8596 68.7299 31.2567 68.5157 31.2567C68.2548 31.2567 68.1059 29.9115 67.9387 29.7365C67.7811 29.5718 66.3829 29.0295 66.3829 29.0295C66.3829 29.0295 67.7322 28.5627 67.8367 28.4135C68.0034 28.1768 68.5154 27 68.5154 27C68.5154 27 69.0433 28.2502 69.21 28.4113C69.3808 28.578 70.6846 29.0559 70.6846 29.0559Z" fill="#698DFE" fill-opacity="0.2"/>
<path d="M70.5613 37.7944L73.5678 37.3899L74.2082 38.11L73.8893 38.5337L70.8599 38.3117L70.5613 37.7944Z" fill="#698DFE" fill-opacity="0.2"/>
<path d="M70.5613 37.7944L73.5678 37.3899L73.4803 38.058L70.7744 38.1633L70.5613 37.7944Z" fill="#698DFE" fill-opacity="0.2"/>
<path d="M73.4803 38.058L73.5678 37.3899L74.2082 38.11L73.8892 38.5337L73.4803 38.058Z" fill="#698DFE" fill-opacity="0.2"/>
<path d="M73.9662 34.9736L76.3096 35.9713L76.4777 36.8014L76.0729 36.9873L73.9704 35.4995L73.9662 34.9736Z" fill="#698DFE" fill-opacity="0.2"/>
<path d="M73.9662 34.9736L76.3096 35.9713L75.9721 36.445L73.9693 35.3487L73.9662 34.9736Z" fill="#698DFE" fill-opacity="0.2"/>
<path d="M75.972 36.4449L76.3095 35.9712L76.4776 36.8013L76.0728 36.9872L75.972 36.4449Z" fill="#698DFE" fill-opacity="0.2"/>
<path d="M74.2756 35.5092L74.5829 32.9808L73.9483 32.4202L73.585 32.678L73.8219 35.2428L74.2756 35.5092Z" fill="#698DFE" fill-opacity="0.2"/>
<path d="M74.2757 35.5094L74.583 32.981L74.0043 33.0365L73.952 35.3194L74.2757 35.5094Z" fill="#698DFE" fill-opacity="0.2"/>
<path d="M74.0042 33.0364L74.5829 32.9808L73.9483 32.4202L73.585 32.678L74.0042 33.0364Z" fill="#698DFE" fill-opacity="0.2"/>
<path d="M77.0259 33.5012L77.1371 33.6936C77.2482 33.8861 77.2075 34.0379 77.015 34.149L70.6152 37.844C70.4227 37.9551 70.2709 37.9145 70.1598 37.722L70.0486 37.5295C69.9375 37.337 69.9782 37.1852 70.1706 37.0741L76.5705 33.3791C76.763 33.268 76.9148 33.3087 77.0259 33.5012Z" fill="#698DFE" fill-opacity="0.2"/>
<path d="M77.7862 35.6979C77.7862 35.6979 76.67 34.7869 76.4177 34.6861C76.2332 34.6125 74.9042 35.1048 74.7969 34.9192C74.6663 34.6933 75.7571 33.8912 75.8248 33.6595C75.8887 33.4409 75.6581 31.9587 75.6581 31.9587C75.6581 31.9587 76.7372 32.8939 76.9183 32.91C77.2064 32.9353 78.4819 32.7911 78.4819 32.7911C78.4819 32.7911 77.6626 33.8746 77.6065 34.0968C77.5493 34.3294 77.7862 35.6979 77.7862 35.6979Z" fill="#698DFE" fill-opacity="0.2"/>
<path d="M70.1576 39.96L72.0112 42.3614L71.7078 43.276L71.1814 43.2115L69.8589 40.4773L70.1576 39.96Z" fill="#698DFE" fill-opacity="0.2"/>
<path d="M70.1576 39.96L72.0112 42.3614L71.3889 42.6198L69.9448 40.3289L70.1576 39.96Z" fill="#698DFE" fill-opacity="0.2"/>
<path d="M71.3889 42.6199L72.0112 42.3616L71.7078 43.2761L71.1813 43.2117L71.3889 42.6199Z" fill="#698DFE" fill-opacity="0.2"/>
<path d="M74.3032 41.4983L74.6108 44.0264L73.9762 44.5871L73.6129 44.3293L73.8496 41.7647L74.3032 41.4983Z" fill="#698DFE" fill-opacity="0.2"/>
<path d="M74.3032 41.4983L74.6107 44.0264L74.0317 43.9709L73.9798 41.6883L74.3032 41.4983Z" fill="#698DFE" fill-opacity="0.2"/>
<path d="M74.0318 43.9707L74.6108 44.0263L73.9762 44.5869L73.6129 44.3291L74.0318 43.9707Z" fill="#698DFE" fill-opacity="0.2"/>
<path d="M73.994 42.0339L76.3374 41.036L76.5054 40.2061L76.1007 40.0203L73.9981 41.5077L73.994 42.0339Z" fill="#698DFE" fill-opacity="0.2"/>
<path d="M73.994 42.0338L76.3374 41.0359L75.9998 40.5625L73.9967 41.6585L73.994 42.0338Z" fill="#698DFE" fill-opacity="0.2"/>
<path d="M75.9999 40.5626L76.3375 41.036L76.5056 40.2061L76.1008 40.0203L75.9999 40.5626Z" fill="#698DFE" fill-opacity="0.2"/>
<path d="M77.1085 43.4116L76.9974 43.6041C76.8863 43.7966 76.7345 43.8372 76.542 43.7261L70.1421 40.0311C69.9496 39.92 69.9089 39.7682 70.0201 39.5757L70.1312 39.3832C70.2423 39.1908 70.3941 39.1501 70.5866 39.2612L76.9865 42.9562C77.179 43.0673 77.2196 43.2191 77.1085 43.4116Z" fill="#698DFE" fill-opacity="0.2"/>
<path d="M75.586 45.1694C75.586 45.1694 75.8168 43.747 75.7779 43.4783C75.7501 43.2816 74.6586 42.3768 74.7656 42.1914C74.8961 41.9656 76.1355 42.509 76.3705 42.4518C76.5928 42.3979 77.7596 41.458 77.7596 41.458C77.7596 41.458 77.4893 42.8602 77.5651 43.0252C77.6871 43.2872 78.45 44.3198 78.45 44.3198C78.45 44.3198 77.1026 44.1531 76.8811 44.2148C76.6531 44.2804 75.586 45.1694 75.586 45.1694Z" fill="#698DFE" fill-opacity="0.2"/>
<path d="M68.1362 40.6372L66.9832 43.4432L66.0395 43.6376L65.832 43.1498L67.5389 40.6372H68.1362Z" fill="#698DFE" fill-opacity="0.2"/>
<path d="M68.1363 40.6372L66.9833 43.4432L66.4485 43.0334L67.7104 40.6372H68.1363Z" fill="#698DFE" fill-opacity="0.2"/>
<path d="M66.4484 43.0332L66.9832 43.443L66.0395 43.6375L65.832 43.1496L66.4484 43.0332Z" fill="#698DFE" fill-opacity="0.2"/>
<path d="M68.8769 44.9968L66.8413 46.5273L66.0384 46.2578L66.0798 45.8142L68.4193 44.7371L68.8769 44.9968Z" fill="#698DFE" fill-opacity="0.2"/>
<path d="M68.8768 44.9968L66.8413 46.5273L66.5999 45.9981L68.5507 44.8115L68.8768 44.9968Z" fill="#698DFE" fill-opacity="0.2"/>
<path d="M66.5999 45.9981L66.8413 46.5274L66.0384 46.2579L66.0798 45.8142L66.5999 45.9981Z" fill="#698DFE" fill-opacity="0.2"/>
<path d="M68.2585 44.9968L70.2943 46.5273L71.0972 46.2578L71.0556 45.8144L68.7161 44.7371L68.2585 44.9968Z" fill="#698DFE" fill-opacity="0.2"/>
<path d="M68.2585 44.9968L70.2943 46.5273L70.5358 45.998L68.5846 44.8118L68.2585 44.9968Z" fill="#698DFE" fill-opacity="0.2"/>
<path d="M70.5357 45.9978L70.2943 46.5271L71.0971 46.2576L71.0555 45.8142L70.5357 45.9978Z" fill="#698DFE" fill-opacity="0.2"/>
<path d="M68.6224 48.3829H68.4002C68.1779 48.3829 68.0668 48.2718 68.0668 48.0495V40.6596C68.0668 40.4373 68.1779 40.3262 68.4002 40.3262H68.6224C68.8447 40.3262 68.9558 40.4373 68.9558 40.6596V48.0495C68.9558 48.2718 68.8447 48.3829 68.6224 48.3829Z" fill="#698DFE" fill-opacity="0.2"/>
<path d="M66.3395 47.9424C66.3395 47.9424 67.6867 47.4312 67.9 47.2631C68.0562 47.1401 68.2943 45.7429 68.5085 45.7429C68.7693 45.7429 68.9182 47.0881 69.0855 47.2631C69.243 47.4279 70.6413 47.9702 70.6413 47.9702C70.6413 47.9702 69.2908 48.4372 69.1872 48.5864C69.0205 48.8231 68.5085 49.9999 68.5085 49.9999C68.5085 49.9999 67.9806 48.7497 67.8139 48.5886C67.6433 48.4216 66.3395 47.9424 66.3395 47.9424Z" fill="#698DFE" fill-opacity="0.2"/>
<path d="M66.4832 39.2813L63.4769 39.6858L62.8365 38.9657L63.1555 38.5417L66.1845 38.764L66.4832 39.2813Z" fill="#698DFE" fill-opacity="0.2"/>
<path d="M66.4832 39.2813L63.4769 39.6858L63.5644 39.0176L66.2704 38.9124L66.4832 39.2813Z" fill="#698DFE" fill-opacity="0.2"/>
<path d="M63.5644 39.0177L63.4769 39.6858L62.8365 38.9657L63.1555 38.5417L63.5644 39.0177Z" fill="#698DFE" fill-opacity="0.2"/>
<path d="M63.0782 42.1023L60.7351 41.1043L60.5667 40.2745L60.9718 40.0886L63.0743 41.5761L63.0782 42.1023Z" fill="#698DFE" fill-opacity="0.2"/>
<path d="M63.0782 42.1022L60.7351 41.1043L61.0727 40.6309L63.0754 41.7271L63.0782 42.1022Z" fill="#698DFE" fill-opacity="0.2"/>
<path d="M61.0726 40.6309L60.7351 41.1043L60.5667 40.2745L60.9718 40.0886L61.0726 40.6309Z" fill="#698DFE" fill-opacity="0.2"/>
<path d="M62.769 41.5667L62.4615 44.0948L63.0963 44.6554L63.4597 44.3979L63.2227 41.8331L62.769 41.5667Z" fill="#698DFE" fill-opacity="0.2"/>
<path d="M62.769 41.5667L62.4615 44.0948L63.0405 44.0395L63.0927 41.7567L62.769 41.5667Z" fill="#698DFE" fill-opacity="0.2"/>
<path d="M63.0405 44.0393L62.4615 44.0946L63.0963 44.6552L63.4597 44.3977L63.0405 44.0393Z" fill="#698DFE" fill-opacity="0.2"/>
<path d="M66.9961 39.546L66.885 39.3535C66.8631 39.3156 66.8339 39.2823 66.7991 39.2557C66.7644 39.229 66.7247 39.2094 66.6824 39.1981C66.6401 39.1868 66.596 39.1839 66.5525 39.1896C66.5091 39.1954 66.4673 39.2096 66.4293 39.2315L61.0616 42.3309C60.8532 42.3803 60.6846 42.4123 60.6271 42.3892C60.3748 42.2887 59.2586 41.3774 59.2586 41.3774C59.2586 41.3774 59.4953 42.7459 59.4369 42.9782C59.3814 43.2004 58.5615 44.2839 58.5615 44.2839C58.5615 44.2839 59.8373 44.1395 60.1251 44.165C60.3062 44.1809 61.3853 45.1163 61.3853 45.1163C61.3853 45.1163 61.1558 43.6341 61.2186 43.4155C61.2364 43.3549 61.3241 43.2552 61.4408 43.1377L66.8738 40.0017C66.9118 39.9798 66.9451 39.9506 66.9718 39.9159C66.9985 39.8812 67.018 39.8415 67.0294 39.7992C67.0408 39.7569 67.0437 39.7127 67.0379 39.6693C67.0322 39.6259 67.018 39.584 66.9961 39.546Z" fill="#698DFE" fill-opacity="0.2"/>
<path d="M66.811 37.0956L64.9574 34.6941L65.2611 33.7795L65.7872 33.8437L67.1097 36.5783L66.811 37.0956Z" fill="#698DFE" fill-opacity="0.2"/>
<path d="M66.811 37.0956L64.9574 34.6942L65.5797 34.4358L67.0241 36.7267L66.811 37.0956Z" fill="#698DFE" fill-opacity="0.2"/>
<path d="M65.5797 34.4357L64.9574 34.6941L65.2611 33.7795L65.7872 33.8437L65.5797 34.4357Z" fill="#698DFE" fill-opacity="0.2"/>
<path d="M62.6655 35.5573L62.3579 33.0289L62.9927 32.4683L63.3561 32.7261L63.1191 35.2909L62.6655 35.5573Z" fill="#698DFE" fill-opacity="0.2"/>
<path d="M62.6655 35.5575L62.3579 33.0291L62.9369 33.0846L62.9891 35.3674L62.6655 35.5575Z" fill="#698DFE" fill-opacity="0.2"/>
<path d="M62.9369 33.0845L62.3579 33.0289L62.9927 32.4683L63.3561 32.7261L62.9369 33.0845Z" fill="#698DFE" fill-opacity="0.2"/>
<path d="M62.9746 35.0217L60.6315 36.0194L60.4631 36.8495L60.8682 37.0354L62.9707 35.5476L62.9746 35.0217Z" fill="#698DFE" fill-opacity="0.2"/>
<path d="M62.9746 35.0217L60.6315 36.0194L60.969 36.4931L62.9718 35.3968L62.9746 35.0217Z" fill="#698DFE" fill-opacity="0.2"/>
<path d="M60.969 36.493L60.6315 36.0193L60.4631 36.8494L60.8682 37.0353L60.969 36.493Z" fill="#698DFE" fill-opacity="0.2"/>
<path d="M59.8603 33.6438L59.9714 33.4513C60.0825 33.2589 60.2343 33.2182 60.4268 33.3293L66.8267 37.0243C67.0192 37.1354 67.0599 37.2872 66.9487 37.4797L66.8376 37.6722C66.7265 37.8647 66.5747 37.9053 66.3822 37.7942L59.9823 34.0992C59.7898 33.9881 59.7491 33.8363 59.8603 33.6438Z" fill="#698DFE" fill-opacity="0.2"/>
<path d="M61.3828 31.8872C61.3828 31.8872 61.1519 33.3096 61.1908 33.5783C61.2186 33.775 62.3101 34.6798 62.2032 34.8651C62.0726 35.091 60.8332 34.5476 60.5982 34.6048C60.376 34.6587 59.2091 35.5986 59.2091 35.5986C59.2091 35.5986 59.4794 34.1964 59.4036 34.0314C59.2816 33.7694 58.5187 32.7368 58.5187 32.7368C58.5187 32.7368 59.8662 32.9035 60.0876 32.8418C60.3173 32.7765 61.3828 31.8872 61.3828 31.8872Z" fill="#698DFE" fill-opacity="0.2"/>
<path d="M65.9839 38.528C65.9839 39.1911 66.2473 39.8271 66.7162 40.296C67.1851 40.7649 67.8211 41.0283 68.4842 41.0283C69.1474 41.0283 69.7834 40.7649 70.2523 40.296C70.7212 39.8271 70.9846 39.1911 70.9846 38.528C70.9846 38.1996 70.9199 37.8745 70.7943 37.5711C70.6686 37.2677 70.4845 36.9921 70.2523 36.7599C70.0201 36.5277 69.7445 36.3436 69.4411 36.2179C69.1377 36.0923 68.8126 36.0276 68.4842 36.0276C68.1559 36.0276 67.8308 36.0923 67.5274 36.2179C67.224 36.3436 66.9484 36.5277 66.7162 36.7599C66.484 36.9921 66.2999 37.2677 66.1742 37.5711C66.0486 37.8745 65.9839 38.1996 65.9839 38.528Z" fill="#698DFE" fill-opacity="0.2"/>
<path d="M225.169 15.0707L225.67 13.8507L226.08 13.7661L226.171 13.9783L225.428 15.0707H225.169Z" fill="#698DFE" fill-opacity="0.2"/>
<path d="M225.169 15.0706L225.67 13.8506L225.903 14.0288L225.354 15.0706H225.169Z" fill="#698DFE" fill-opacity="0.2"/>
<path d="M225.903 14.0288L225.67 13.8507L226.08 13.7661L226.171 13.9783L225.903 14.0288Z" fill="#698DFE" fill-opacity="0.2"/>
<path d="M224.847 13.1754L225.732 12.51L226.081 12.6272L226.063 12.82L225.046 13.2883L224.847 13.1754Z" fill="#698DFE" fill-opacity="0.2"/>
<path d="M224.847 13.1754L225.732 12.51L225.837 12.7401L224.989 13.2559L224.847 13.1754Z" fill="#698DFE" fill-opacity="0.2"/>
<path d="M225.837 12.7401L225.732 12.51L226.081 12.6272L226.063 12.82L225.837 12.7401Z" fill="#698DFE" fill-opacity="0.2"/>
<path d="M225.116 13.1754L224.231 12.51L223.881 12.6271L223.899 12.82L224.917 13.2883L225.116 13.1754Z" fill="#698DFE" fill-opacity="0.2"/>
<path d="M225.116 13.1754L224.231 12.51L224.126 12.74L224.974 13.2559L225.116 13.1754Z" fill="#698DFE" fill-opacity="0.2"/>
<path d="M224.126 12.74L224.231 12.51L223.881 12.6271L223.899 12.82L224.126 12.74Z" fill="#698DFE" fill-opacity="0.2"/>
<path d="M224.957 11.7031H225.054C225.151 11.7031 225.199 11.7514 225.199 11.8481V15.0611C225.199 15.1577 225.151 15.206 225.054 15.206H224.957C224.861 15.206 224.812 15.1577 224.812 15.0611V11.8481C224.812 11.7514 224.861 11.7031 224.957 11.7031Z" fill="#698DFE" fill-opacity="0.2"/>
<path d="M225.95 11.8938C225.95 11.8938 225.364 12.1167 225.271 12.1898C225.203 12.2433 225.1 12.8508 225.007 12.8508C224.893 12.8508 224.829 12.2659 224.756 12.1898C224.687 12.1182 224.079 11.8824 224.079 11.8824C224.079 11.8824 224.666 11.6794 224.712 11.6146C224.784 11.5117 225.007 11 225.007 11C225.007 11 225.236 11.5436 225.309 11.6136C225.383 11.6861 225.95 11.8938 225.95 11.8938Z" fill="#698DFE" fill-opacity="0.2"/>
<path d="M225.896 15.6932L227.203 15.5173L227.482 15.8304L227.343 16.0146L226.026 15.9181L225.896 15.6932Z" fill="#698DFE" fill-opacity="0.2"/>
<path d="M225.896 15.6932L227.203 15.5173L227.165 15.8078L225.989 15.8536L225.896 15.6932Z" fill="#698DFE" fill-opacity="0.2"/>
<path d="M227.165 15.8078L227.203 15.5173L227.482 15.8304L227.343 16.0146L227.165 15.8078Z" fill="#698DFE" fill-opacity="0.2"/>
<path d="M227.377 14.4668L228.395 14.9006L228.469 15.2615L228.293 15.3423L227.378 14.6955L227.377 14.4668Z" fill="#698DFE" fill-opacity="0.2"/>
<path d="M227.377 14.4668L228.395 14.9006L228.249 15.1065L227.378 14.6299L227.377 14.4668Z" fill="#698DFE" fill-opacity="0.2"/>
<path d="M228.249 15.1066L228.395 14.9006L228.468 15.2616L228.293 15.3424L228.249 15.1066Z" fill="#698DFE" fill-opacity="0.2"/>
<path d="M227.511 14.6998L227.645 13.6004L227.369 13.3567L227.211 13.4688L227.314 14.5839L227.511 14.6998Z" fill="#698DFE" fill-opacity="0.2"/>
<path d="M227.511 14.6997L227.645 13.6003L227.393 13.6245L227.37 14.617L227.511 14.6997Z" fill="#698DFE" fill-opacity="0.2"/>
<path d="M227.393 13.6246L227.645 13.6004L227.369 13.3567L227.211 13.4688L227.393 13.6246Z" fill="#698DFE" fill-opacity="0.2"/>
<path d="M228.707 13.8267L228.755 13.9103C228.804 13.994 228.786 14.06 228.702 14.1083L225.92 15.7149C225.836 15.7632 225.77 15.7455 225.722 15.6618L225.673 15.5781C225.625 15.4944 225.643 15.4284 225.726 15.3801L228.509 13.7736C228.593 13.7253 228.659 13.743 228.707 13.8267Z" fill="#698DFE" fill-opacity="0.2"/>
<path d="M229.037 14.7817C229.037 14.7817 228.552 14.3857 228.442 14.3418C228.362 14.3098 227.784 14.5238 227.738 14.4431C227.681 14.3449 228.155 13.9962 228.185 13.8955C228.212 13.8004 228.112 13.156 228.112 13.156C228.112 13.156 228.581 13.5626 228.66 13.5696C228.785 13.5806 229.34 13.5179 229.34 13.5179C229.34 13.5179 228.984 13.989 228.959 14.0856C228.934 14.1867 229.037 14.7817 229.037 14.7817Z" fill="#698DFE" fill-opacity="0.2"/>
<path d="M225.721 16.6348L226.527 17.6789L226.395 18.0765L226.166 18.0485L225.591 16.8597L225.721 16.6348Z" fill="#698DFE" fill-opacity="0.2"/>
<path d="M225.721 16.6348L226.527 17.6789L226.256 17.7912L225.628 16.7952L225.721 16.6348Z" fill="#698DFE" fill-opacity="0.2"/>
<path d="M226.256 17.7913L226.527 17.679L226.395 18.0766L226.166 18.0486L226.256 17.7913Z" fill="#698DFE" fill-opacity="0.2"/>
<path d="M227.523 17.3037L227.657 18.4029L227.381 18.6467L227.223 18.5346L227.326 17.4195L227.523 17.3037Z" fill="#698DFE" fill-opacity="0.2"/>
<path d="M227.523 17.3037L227.657 18.4029L227.405 18.3787L227.383 17.3863L227.523 17.3037Z" fill="#698DFE" fill-opacity="0.2"/>
<path d="M227.405 18.3787L227.657 18.4028L227.381 18.6466L227.223 18.5345L227.405 18.3787Z" fill="#698DFE" fill-opacity="0.2"/>
<path d="M227.389 17.5364L228.408 17.1025L228.481 16.7417L228.305 16.6609L227.39 17.3076L227.389 17.5364Z" fill="#698DFE" fill-opacity="0.2"/>
<path d="M227.389 17.5364L228.408 17.1026L228.261 16.8967L227.39 17.3732L227.389 17.5364Z" fill="#698DFE" fill-opacity="0.2"/>
<path d="M228.261 16.8967L228.408 17.1025L228.481 16.7417L228.305 16.6609L228.261 16.8967Z" fill="#698DFE" fill-opacity="0.2"/>
<path d="M228.743 18.1355L228.695 18.2192C228.646 18.3029 228.58 18.3205 228.497 18.2722L225.714 16.6657C225.63 16.6174 225.613 16.5514 225.661 16.4677L225.709 16.384C225.758 16.3003 225.824 16.2827 225.907 16.331L228.69 17.9375C228.773 17.9858 228.791 18.0518 228.743 18.1355Z" fill="#698DFE" fill-opacity="0.2"/>
<path d="M228.081 18.8998C228.081 18.8998 228.181 18.2813 228.164 18.1645C228.152 18.079 227.678 17.6856 227.724 17.605C227.781 17.5068 228.32 17.7431 228.422 17.7182C228.519 17.6948 229.026 17.2861 229.026 17.2861C229.026 17.2861 228.908 17.8958 228.941 17.9675C228.994 18.0814 229.326 18.5304 229.326 18.5304C229.326 18.5304 228.74 18.4579 228.644 18.4847C228.545 18.5132 228.081 18.8998 228.081 18.8998Z" fill="#698DFE" fill-opacity="0.2"/>
<path d="M224.842 16.9292L224.341 18.1492L223.93 18.2337L223.84 18.0216L224.582 16.9292H224.842Z" fill="#698DFE" fill-opacity="0.2"/>
<path d="M224.842 16.9292L224.341 18.1492L224.108 17.971L224.657 16.9292H224.842Z" fill="#698DFE" fill-opacity="0.2"/>
<path d="M224.108 17.9709L224.341 18.1491L223.93 18.2337L223.84 18.0216L224.108 17.9709Z" fill="#698DFE" fill-opacity="0.2"/>
<path d="M225.164 18.8246L224.279 19.49L223.93 19.3729L223.948 19.18L224.965 18.7117L225.164 18.8246Z" fill="#698DFE" fill-opacity="0.2"/>
<path d="M225.164 18.8247L224.279 19.4901L224.174 19.26L225.022 18.7441L225.164 18.8247Z" fill="#698DFE" fill-opacity="0.2"/>
<path d="M224.174 19.2599L224.279 19.49L223.93 19.3728L223.948 19.1799L224.174 19.2599Z" fill="#698DFE" fill-opacity="0.2"/>
<path d="M224.895 18.8246L225.78 19.49L226.129 19.3729L226.111 19.1801L225.094 18.7117L224.895 18.8246Z" fill="#698DFE" fill-opacity="0.2"/>
<path d="M224.895 18.8246L225.78 19.49L225.885 19.2599L225.037 18.7441L224.895 18.8246Z" fill="#698DFE" fill-opacity="0.2"/>
<path d="M225.885 19.26L225.78 19.4901L226.129 19.373L226.111 19.1802L225.885 19.26Z" fill="#698DFE" fill-opacity="0.2"/>
<path d="M225.053 20.2969H224.957C224.86 20.2969 224.812 20.2486 224.812 20.1519V16.9389C224.812 16.8423 224.86 16.7939 224.957 16.7939H225.053C225.15 16.7939 225.198 16.8423 225.198 16.9389V20.1519C225.198 20.2486 225.15 20.2969 225.053 20.2969Z" fill="#698DFE" fill-opacity="0.2"/>
<path d="M224.061 20.1055C224.061 20.1055 224.646 19.8832 224.739 19.8101C224.807 19.7566 224.911 19.1492 225.004 19.1492C225.117 19.1492 225.182 19.734 225.255 19.8101C225.323 19.8818 225.931 20.1175 225.931 20.1175C225.931 20.1175 225.344 20.3206 225.299 20.3855C225.226 20.4884 225.004 21 225.004 21C225.004 21 224.774 20.4565 224.702 20.3864C224.628 20.3138 224.061 20.1055 224.061 20.1055Z" fill="#698DFE" fill-opacity="0.2"/>
<path d="M224.123 16.3396L222.816 16.5155L222.538 16.2024L222.676 16.0181L223.993 16.1147L224.123 16.3396Z" fill="#698DFE" fill-opacity="0.2"/>
<path d="M224.123 16.3396L222.816 16.5155L222.854 16.225L224.031 16.1792L224.123 16.3396Z" fill="#698DFE" fill-opacity="0.2"/>
<path d="M222.854 16.225L222.816 16.5155L222.538 16.2024L222.676 16.0181L222.854 16.225Z" fill="#698DFE" fill-opacity="0.2"/>
<path d="M222.643 17.5662L221.624 17.1323L221.551 16.7715L221.727 16.6907L222.641 17.3374L222.643 17.5662Z" fill="#698DFE" fill-opacity="0.2"/>
<path d="M222.643 17.5662L221.624 17.1323L221.771 16.9265L222.641 17.4032L222.643 17.5662Z" fill="#698DFE" fill-opacity="0.2"/>
<path d="M221.771 16.9265L221.624 17.1323L221.551 16.7715L221.727 16.6907L221.771 16.9265Z" fill="#698DFE" fill-opacity="0.2"/>
<path d="M222.508 17.3333L222.375 18.4324L222.651 18.6762L222.809 18.5642L222.705 17.4491L222.508 17.3333Z" fill="#698DFE" fill-opacity="0.2"/>
<path d="M222.508 17.3333L222.375 18.4324L222.626 18.4084L222.649 17.4159L222.508 17.3333Z" fill="#698DFE" fill-opacity="0.2"/>
<path d="M222.626 18.4084L222.375 18.4325L222.651 18.6762L222.809 18.5643L222.626 18.4084Z" fill="#698DFE" fill-opacity="0.2"/>
<path d="M224.346 16.4548L224.298 16.3711C224.288 16.3546 224.276 16.3401 224.261 16.3285C224.245 16.3169 224.228 16.3084 224.21 16.3035C224.191 16.2986 224.172 16.2973 224.153 16.2998C224.134 16.3023 224.116 16.3085 224.1 16.3181L221.766 17.6656C221.675 17.6871 221.602 17.701 221.577 17.691C221.467 17.6472 220.982 17.251 220.982 17.251C220.982 17.251 221.085 17.846 221.06 17.947C221.035 18.0437 220.679 18.5147 220.679 18.5147C220.679 18.5147 221.234 18.4519 221.359 18.463C221.438 18.4699 221.907 18.8766 221.907 18.8766C221.907 18.8766 221.807 18.2322 221.834 18.1372C221.842 18.1108 221.88 18.0675 221.931 18.0164L224.293 16.6529C224.31 16.6434 224.324 16.6307 224.336 16.6156C224.347 16.6005 224.356 16.5832 224.361 16.5648C224.366 16.5465 224.367 16.5273 224.364 16.5084C224.362 16.4895 224.356 16.4713 224.346 16.4548Z" fill="#698DFE" fill-opacity="0.2"/>
<path d="M224.266 15.3893L223.46 14.3452L223.592 13.9475L223.821 13.9754L224.395 15.1644L224.266 15.3893Z" fill="#698DFE" fill-opacity="0.2"/>
<path d="M224.266 15.3894L223.46 14.3452L223.73 14.2329L224.358 15.2289L224.266 15.3894Z" fill="#698DFE" fill-opacity="0.2"/>
<path d="M223.73 14.2328L223.46 14.3452L223.592 13.9475L223.821 13.9754L223.73 14.2328Z" fill="#698DFE" fill-opacity="0.2"/>
<path d="M222.463 14.7208L222.329 13.6214L222.605 13.3777L222.763 13.4898L222.66 14.6049L222.463 14.7208Z" fill="#698DFE" fill-opacity="0.2"/>
<path d="M222.463 14.7207L222.329 13.6213L222.581 13.6455L222.604 14.638L222.463 14.7207Z" fill="#698DFE" fill-opacity="0.2"/>
<path d="M222.581 13.6456L222.329 13.6214L222.605 13.3777L222.763 13.4898L222.581 13.6456Z" fill="#698DFE" fill-opacity="0.2"/>
<path d="M222.598 14.4878L221.579 14.9216L221.506 15.2825L221.682 15.3633L222.596 14.7164L222.598 14.4878Z" fill="#698DFE" fill-opacity="0.2"/>
<path d="M222.598 14.4878L221.579 14.9216L221.726 15.1275L222.596 14.6509L222.598 14.4878Z" fill="#698DFE" fill-opacity="0.2"/>
<path d="M221.726 15.1273L221.579 14.9214L221.506 15.2823L221.682 15.3631L221.726 15.1273Z" fill="#698DFE" fill-opacity="0.2"/>
<path d="M221.244 13.8886L221.292 13.8049C221.34 13.7212 221.406 13.7036 221.49 13.7519L224.272 15.3584C224.356 15.4067 224.374 15.4727 224.326 15.5564L224.277 15.6401C224.229 15.7238 224.163 15.7414 224.079 15.6931L221.297 14.0866C221.213 14.0383 221.195 13.9723 221.244 13.8886Z" fill="#698DFE" fill-opacity="0.2"/>
<path d="M221.906 13.1248C221.906 13.1248 221.805 13.7432 221.822 13.86C221.834 13.9455 222.309 14.3389 222.262 14.4195C222.205 14.5177 221.667 14.2814 221.564 14.3063C221.468 14.3298 220.96 14.7384 220.96 14.7384C220.96 14.7384 221.078 14.1288 221.045 14.057C220.992 13.9431 220.66 13.4941 220.66 13.4941C220.66 13.4941 221.246 13.5666 221.342 13.5398C221.442 13.5114 221.906 13.1248 221.906 13.1248Z" fill="#698DFE" fill-opacity="0.2"/>
<path d="M223.906 16.0122C223.906 16.3005 224.021 16.577 224.224 16.7809C224.428 16.9847 224.705 17.0993 224.993 17.0993C225.281 17.0993 225.558 16.9847 225.762 16.7809C225.966 16.577 226.08 16.3005 226.08 16.0122C226.08 15.8694 226.052 15.728 225.997 15.5961C225.943 15.4642 225.863 15.3444 225.762 15.2435C225.661 15.1425 225.541 15.0624 225.409 15.0078C225.277 14.9532 225.136 14.925 224.993 14.925C224.85 14.925 224.709 14.9532 224.577 15.0078C224.445 15.0624 224.325 15.1425 224.224 15.2435C224.123 15.3444 224.043 15.4642 223.989 15.5961C223.934 15.728 223.906 15.8694 223.906 16.0122Z" fill="#698DFE" fill-opacity="0.2"/>
</svg>
