<svg width="335" height="160" viewBox="0 0 335 160" fill="none" xmlns="http://www.w3.org/2000/svg">
<circle cx="168" cy="80" r="80" fill="url(#paint0_radial)" fill-opacity="0.2"/>
<ellipse cx="167" cy="123" rx="20" ry="4" fill="#698DFE" fill-opacity="0.6"/>
<path d="M180.221 69.9032C179.033 70.6915 177.378 70.4335 176.253 68.5928C174.107 66.7674 175.399 65.2159 176.587 64.4275C177.775 63.6391 179.552 64.2258 180.555 65.7378C181.558 67.2499 181.409 69.1148 180.221 69.9032Z" fill="#BFCFFF"/>
<path d="M159.871 65.1897C160.626 66.3991 160.322 68.046 158.451 69.1199C155.98 71.0971 155.052 69.8799 154.297 68.6705C153.542 67.4611 154.177 65.7015 155.716 64.7403C157.256 63.7791 159.116 63.9803 159.871 65.1897Z" fill="#BFCFFF"/>
<rect x="137.439" y="75.9082" width="60.0833" height="3.98991" fill="#BFCFFF"/>
<path d="M132.745 72.4663C132.745 70.738 134.146 69.3369 135.874 69.3369C136.739 69.3369 137.439 70.0374 137.439 70.9016V85.1401C137.439 86.0042 136.739 86.7047 135.874 86.7047C134.146 86.7047 132.745 85.3037 132.745 83.5754V72.4663Z" fill="#BFCFFF"/>
<path d="M127.347 73.7961C127.347 72.2407 128.608 70.9797 130.163 70.9797C130.941 70.9797 131.572 71.6102 131.572 72.3879V83.6536C131.572 84.4313 130.941 85.0618 130.163 85.0618C128.608 85.0618 127.347 83.8008 127.347 82.2454V73.7961Z" fill="#BFCFFF"/>
<circle cx="207.615" cy="78.0208" r="2.347" fill="#BFCFFF"/>
<circle cx="127.347" cy="78.0208" r="2.347" fill="#BFCFFF"/>
<path d="M202.216 83.5755C202.216 85.3038 200.815 86.7048 199.087 86.7048C198.223 86.7048 197.522 86.0043 197.522 85.1402V70.9017C197.522 70.0375 198.223 69.337 199.087 69.337C200.815 69.337 202.216 70.7381 202.216 72.4663V83.5755Z" fill="#BFCFFF"/>
<path d="M207.615 82.2454C207.615 83.8008 206.354 85.0618 204.798 85.0618C204.02 85.0618 203.39 84.4313 203.39 83.6536V72.3879C203.39 71.6102 204.02 70.9797 204.798 70.9797C206.354 70.9797 207.615 72.2407 207.615 73.7962V82.2454Z" fill="#BFCFFF"/>
<path fill-rule="evenodd" clip-rule="evenodd" d="M181.563 96.0925H153.399L150.582 117.685H162.812C162.795 117.454 162.787 117.219 162.787 116.981C162.787 113.222 164.888 110.175 167.481 110.175C170.073 110.175 172.175 113.222 172.175 116.981C172.175 117.219 172.166 117.454 172.15 117.685H184.379L181.563 96.0925Z" fill="#BFCFFF"/>
<circle cx="156.685" cy="117.92" r="6.10221" fill="#BFCFFF"/>
<circle cx="178.277" cy="117.685" r="6.10221" fill="#BFCFFF"/>
<ellipse cx="167.481" cy="103.838" rx="11.735" ry="9.38802" fill="white"/>
<path d="M167.715 100.552C182.492 100.552 194.002 90.202 194.002 77.4342L181.563 77.3169C181.563 84.0572 175.44 88.5825 167.598 88.5825C159.756 88.5825 153.399 84.0572 153.399 77.3169L140.96 77.4342C140.96 90.202 152.939 100.552 167.715 100.552Z" fill="#BFCFFF"/>
<circle cx="147.179" cy="77.4344" r="6.21956" fill="#BFCFFF"/>
<circle cx="187.782" cy="77.4342" r="6.21956" fill="#BFCFFF"/>
<ellipse cx="167.481" cy="77.1993" rx="14.3167" ry="12.5565" fill="white"/>
<ellipse cx="160.639" cy="74.5121" rx="3.48059" ry="2.84628" transform="rotate(-34.2483 160.639 74.5121)" fill="#BFCFFF"/>
<path d="M160.406 75.5682C161.048 75.878 161.797 75.6559 162.078 75.0721L159.753 73.9504C159.471 74.5342 159.764 75.2585 160.406 75.5682Z" fill="white"/>
<ellipse cx="174.32" cy="74.6031" rx="3.48059" ry="2.84628" transform="rotate(-151.961 174.32 74.6031)" fill="#BFCFFF"/>
<path d="M174.307 75.5921C175.014 75.5025 175.522 74.9085 175.44 74.2656L172.879 74.5903C172.96 75.2333 173.6 75.6818 174.307 75.5921Z" fill="white"/>
<ellipse cx="167.481" cy="76.7302" rx="1.8776" ry="1.05615" fill="#BFCFFF"/>
<path d="M98.888 33.3625L100.041 30.5565L100.985 30.3621L101.192 30.8502L99.4853 33.3625H98.888Z" fill="#698DFE" fill-opacity="0.2"/>
<path d="M98.888 33.3624L100.041 30.5564L100.576 30.9662L99.3139 33.3624H98.888Z" fill="#698DFE" fill-opacity="0.2"/>
<path d="M100.576 30.9663L100.041 30.5565L100.985 30.3621L101.192 30.8502L100.576 30.9663Z" fill="#698DFE" fill-opacity="0.2"/>
<path d="M98.1473 29.0032L100.183 27.4727L100.986 27.7421L100.944 28.1855L98.6049 29.2626L98.1473 29.0032Z" fill="#698DFE" fill-opacity="0.2"/>
<path d="M98.1473 29.0032L100.183 27.4727L100.425 28.0019L98.4738 29.1882L98.1473 29.0032Z" fill="#698DFE" fill-opacity="0.2"/>
<path d="M100.425 28.0019L100.183 27.4727L100.986 27.7421L100.944 28.1855L100.425 28.0019Z" fill="#698DFE" fill-opacity="0.2"/>
<path d="M98.7661 29.0032L96.7302 27.4727L95.9273 27.7419L95.9687 28.1855L98.3082 29.2626L98.7661 29.0032Z" fill="#698DFE" fill-opacity="0.2"/>
<path d="M98.766 29.0032L96.7302 27.4727L96.4888 28.0016L98.4396 29.1882L98.766 29.0032Z" fill="#698DFE" fill-opacity="0.2"/>
<path d="M96.4888 28.0016L96.7302 27.4727L95.9273 27.7419L95.9687 28.1855L96.4888 28.0016Z" fill="#698DFE" fill-opacity="0.2"/>
<path d="M98.4018 25.6172H98.6241C98.8463 25.6172 98.9574 25.7283 98.9574 25.9506V33.3405C98.9574 33.5628 98.8463 33.6739 98.6241 33.6739H98.4018C98.1795 33.6739 98.0684 33.5628 98.0684 33.3405V25.9506C98.0684 25.7283 98.1795 25.6172 98.4018 25.6172Z" fill="#698DFE" fill-opacity="0.2"/>
<path d="M100.685 26.0559C100.685 26.0559 99.3375 26.5684 99.1241 26.7365C98.968 26.8596 98.7299 28.2567 98.5157 28.2567C98.2548 28.2567 98.1059 26.9115 97.9387 26.7365C97.7811 26.5718 96.3829 26.0295 96.3829 26.0295C96.3829 26.0295 97.7322 25.5627 97.8367 25.4135C98.0034 25.1768 98.5154 24 98.5154 24C98.5154 24 99.0433 25.2502 99.21 25.4113C99.3808 25.578 100.685 26.0559 100.685 26.0559Z" fill="#698DFE" fill-opacity="0.2"/>
<path d="M100.561 34.7944L103.568 34.3899L104.208 35.11L103.889 35.5337L100.86 35.3117L100.561 34.7944Z" fill="#698DFE" fill-opacity="0.2"/>
<path d="M100.561 34.7944L103.568 34.3899L103.48 35.058L100.774 35.1633L100.561 34.7944Z" fill="#698DFE" fill-opacity="0.2"/>
<path d="M103.48 35.058L103.568 34.3899L104.208 35.11L103.889 35.5337L103.48 35.058Z" fill="#698DFE" fill-opacity="0.2"/>
<path d="M103.966 31.9736L106.31 32.9713L106.478 33.8014L106.073 33.9873L103.97 32.4995L103.966 31.9736Z" fill="#698DFE" fill-opacity="0.2"/>
<path d="M103.966 31.9736L106.31 32.9713L105.972 33.445L103.969 32.3487L103.966 31.9736Z" fill="#698DFE" fill-opacity="0.2"/>
<path d="M105.972 33.4449L106.31 32.9712L106.478 33.8013L106.073 33.9872L105.972 33.4449Z" fill="#698DFE" fill-opacity="0.2"/>
<path d="M104.276 32.5092L104.583 29.9808L103.948 29.4202L103.585 29.678L103.822 32.2428L104.276 32.5092Z" fill="#698DFE" fill-opacity="0.2"/>
<path d="M104.276 32.5094L104.583 29.981L104.004 30.0365L103.952 32.3194L104.276 32.5094Z" fill="#698DFE" fill-opacity="0.2"/>
<path d="M104.004 30.0364L104.583 29.9808L103.948 29.4202L103.585 29.678L104.004 30.0364Z" fill="#698DFE" fill-opacity="0.2"/>
<path d="M107.026 30.5012L107.137 30.6936C107.248 30.8861 107.208 31.0379 107.015 31.149L100.615 34.844C100.423 34.9551 100.271 34.9145 100.16 34.722L100.049 34.5295C99.9375 34.337 99.9782 34.1852 100.171 34.0741L106.571 30.3791C106.763 30.268 106.915 30.3087 107.026 30.5012Z" fill="#698DFE" fill-opacity="0.2"/>
<path d="M107.786 32.6979C107.786 32.6979 106.67 31.7869 106.418 31.6861C106.233 31.6125 104.904 32.1048 104.797 31.9192C104.666 31.6933 105.757 30.8912 105.825 30.6595C105.889 30.4409 105.658 28.9587 105.658 28.9587C105.658 28.9587 106.737 29.8939 106.918 29.91C107.206 29.9353 108.482 29.7911 108.482 29.7911C108.482 29.7911 107.663 30.8746 107.606 31.0968C107.549 31.3294 107.786 32.6979 107.786 32.6979Z" fill="#698DFE" fill-opacity="0.2"/>
<path d="M100.158 36.96L102.011 39.3614L101.708 40.276L101.181 40.2115L99.8589 37.4773L100.158 36.96Z" fill="#698DFE" fill-opacity="0.2"/>
<path d="M100.158 36.96L102.011 39.3614L101.389 39.6198L99.9448 37.3289L100.158 36.96Z" fill="#698DFE" fill-opacity="0.2"/>
<path d="M101.389 39.6199L102.011 39.3616L101.708 40.2761L101.181 40.2117L101.389 39.6199Z" fill="#698DFE" fill-opacity="0.2"/>
<path d="M104.303 38.4983L104.611 41.0264L103.976 41.5871L103.613 41.3293L103.85 38.7647L104.303 38.4983Z" fill="#698DFE" fill-opacity="0.2"/>
<path d="M104.303 38.4983L104.611 41.0264L104.032 40.9709L103.98 38.6883L104.303 38.4983Z" fill="#698DFE" fill-opacity="0.2"/>
<path d="M104.032 40.9707L104.611 41.0263L103.976 41.5869L103.613 41.3291L104.032 40.9707Z" fill="#698DFE" fill-opacity="0.2"/>
<path d="M103.994 39.0339L106.337 38.036L106.505 37.2061L106.101 37.0203L103.998 38.5077L103.994 39.0339Z" fill="#698DFE" fill-opacity="0.2"/>
<path d="M103.994 39.0338L106.337 38.0359L106 37.5625L103.997 38.6585L103.994 39.0338Z" fill="#698DFE" fill-opacity="0.2"/>
<path d="M106 37.5626L106.337 38.036L106.506 37.2061L106.101 37.0203L106 37.5626Z" fill="#698DFE" fill-opacity="0.2"/>
<path d="M107.109 40.4116L106.997 40.6041C106.886 40.7966 106.734 40.8372 106.542 40.7261L100.142 37.0311C99.9496 36.92 99.9089 36.7682 100.02 36.5757L100.131 36.3832C100.242 36.1908 100.394 36.1501 100.587 36.2612L106.986 39.9562C107.179 40.0673 107.22 40.2191 107.109 40.4116Z" fill="#698DFE" fill-opacity="0.2"/>
<path d="M105.586 42.1694C105.586 42.1694 105.817 40.747 105.778 40.4783C105.75 40.2816 104.659 39.3768 104.766 39.1914C104.896 38.9656 106.135 39.509 106.371 39.4518C106.593 39.3979 107.76 38.458 107.76 38.458C107.76 38.458 107.489 39.8602 107.565 40.0252C107.687 40.2872 108.45 41.3198 108.45 41.3198C108.45 41.3198 107.103 41.1531 106.881 41.2148C106.653 41.2804 105.586 42.1694 105.586 42.1694Z" fill="#698DFE" fill-opacity="0.2"/>
<path d="M98.1362 37.6372L96.9832 40.4432L96.0395 40.6376L95.832 40.1498L97.5389 37.6372H98.1362Z" fill="#698DFE" fill-opacity="0.2"/>
<path d="M98.1363 37.6372L96.9833 40.4432L96.4485 40.0334L97.7104 37.6372H98.1363Z" fill="#698DFE" fill-opacity="0.2"/>
<path d="M96.4484 40.0332L96.9832 40.443L96.0395 40.6375L95.832 40.1496L96.4484 40.0332Z" fill="#698DFE" fill-opacity="0.2"/>
<path d="M98.8769 41.9968L96.8413 43.5273L96.0384 43.2578L96.0798 42.8142L98.4193 41.7371L98.8769 41.9968Z" fill="#698DFE" fill-opacity="0.2"/>
<path d="M98.8768 41.9968L96.8413 43.5273L96.5999 42.9981L98.5507 41.8115L98.8768 41.9968Z" fill="#698DFE" fill-opacity="0.2"/>
<path d="M96.5999 42.9981L96.8413 43.5274L96.0384 43.2579L96.0798 42.8142L96.5999 42.9981Z" fill="#698DFE" fill-opacity="0.2"/>
<path d="M98.2585 41.9968L100.294 43.5273L101.097 43.2578L101.056 42.8144L98.7161 41.7371L98.2585 41.9968Z" fill="#698DFE" fill-opacity="0.2"/>
<path d="M98.2585 41.9968L100.294 43.5273L100.536 42.998L98.5846 41.8118L98.2585 41.9968Z" fill="#698DFE" fill-opacity="0.2"/>
<path d="M100.536 42.9978L100.294 43.5271L101.097 43.2576L101.055 42.8142L100.536 42.9978Z" fill="#698DFE" fill-opacity="0.2"/>
<path d="M98.6224 45.3829H98.4002C98.1779 45.3829 98.0668 45.2718 98.0668 45.0495V37.6596C98.0668 37.4373 98.1779 37.3262 98.4002 37.3262H98.6224C98.8447 37.3262 98.9558 37.4373 98.9558 37.6596V45.0495C98.9558 45.2718 98.8447 45.3829 98.6224 45.3829Z" fill="#698DFE" fill-opacity="0.2"/>
<path d="M96.3395 44.9424C96.3395 44.9424 97.6867 44.4312 97.9 44.2631C98.0562 44.1401 98.2943 42.7429 98.5085 42.7429C98.7693 42.7429 98.9182 44.0881 99.0855 44.2631C99.243 44.4279 100.641 44.9702 100.641 44.9702C100.641 44.9702 99.2908 45.4372 99.1872 45.5864C99.0205 45.8231 98.5085 46.9999 98.5085 46.9999C98.5085 46.9999 97.9806 45.7497 97.8139 45.5886C97.6433 45.4216 96.3395 44.9424 96.3395 44.9424Z" fill="#698DFE" fill-opacity="0.2"/>
<path d="M96.4832 36.2813L93.4769 36.6858L92.8365 35.9657L93.1555 35.5417L96.1845 35.764L96.4832 36.2813Z" fill="#698DFE" fill-opacity="0.2"/>
<path d="M96.4832 36.2813L93.4769 36.6858L93.5644 36.0176L96.2704 35.9124L96.4832 36.2813Z" fill="#698DFE" fill-opacity="0.2"/>
<path d="M93.5644 36.0177L93.4769 36.6858L92.8365 35.9657L93.1555 35.5417L93.5644 36.0177Z" fill="#698DFE" fill-opacity="0.2"/>
<path d="M93.0782 39.1023L90.7351 38.1043L90.5667 37.2745L90.9718 37.0886L93.0743 38.5761L93.0782 39.1023Z" fill="#698DFE" fill-opacity="0.2"/>
<path d="M93.0782 39.1022L90.7351 38.1043L91.0727 37.6309L93.0754 38.7271L93.0782 39.1022Z" fill="#698DFE" fill-opacity="0.2"/>
<path d="M91.0726 37.6309L90.7351 38.1043L90.5667 37.2745L90.9718 37.0886L91.0726 37.6309Z" fill="#698DFE" fill-opacity="0.2"/>
<path d="M92.769 38.5667L92.4615 41.0948L93.0963 41.6554L93.4597 41.3979L93.2227 38.8331L92.769 38.5667Z" fill="#698DFE" fill-opacity="0.2"/>
<path d="M92.769 38.5667L92.4615 41.0948L93.0405 41.0395L93.0927 38.7567L92.769 38.5667Z" fill="#698DFE" fill-opacity="0.2"/>
<path d="M93.0405 41.0393L92.4615 41.0946L93.0963 41.6552L93.4597 41.3977L93.0405 41.0393Z" fill="#698DFE" fill-opacity="0.2"/>
<path d="M96.9961 36.546L96.885 36.3535C96.8631 36.3156 96.8339 36.2823 96.7991 36.2557C96.7644 36.229 96.7247 36.2094 96.6824 36.1981C96.6401 36.1868 96.596 36.1839 96.5525 36.1896C96.5091 36.1954 96.4673 36.2096 96.4293 36.2315L91.0616 39.3309C90.8532 39.3803 90.6846 39.4123 90.6271 39.3892C90.3748 39.2887 89.2586 38.3774 89.2586 38.3774C89.2586 38.3774 89.4953 39.7459 89.4369 39.9782C89.3814 40.2004 88.5615 41.2839 88.5615 41.2839C88.5615 41.2839 89.8373 41.1395 90.1251 41.165C90.3062 41.1809 91.3853 42.1163 91.3853 42.1163C91.3853 42.1163 91.1558 40.6341 91.2186 40.4155C91.2364 40.3549 91.3241 40.2552 91.4408 40.1377L96.8738 37.0017C96.9118 36.9798 96.9451 36.9506 96.9718 36.9159C96.9985 36.8812 97.018 36.8415 97.0294 36.7992C97.0408 36.7569 97.0437 36.7127 97.0379 36.6693C97.0322 36.6259 97.018 36.584 96.9961 36.546Z" fill="#698DFE" fill-opacity="0.2"/>
<path d="M96.811 34.0956L94.9574 31.6941L95.2611 30.7795L95.7872 30.8437L97.1097 33.5783L96.811 34.0956Z" fill="#698DFE" fill-opacity="0.2"/>
<path d="M96.811 34.0956L94.9574 31.6942L95.5797 31.4358L97.0241 33.7267L96.811 34.0956Z" fill="#698DFE" fill-opacity="0.2"/>
<path d="M95.5797 31.4357L94.9574 31.6941L95.2611 30.7795L95.7872 30.8437L95.5797 31.4357Z" fill="#698DFE" fill-opacity="0.2"/>
<path d="M92.6655 32.5573L92.3579 30.0289L92.9927 29.4683L93.3561 29.7261L93.1191 32.2909L92.6655 32.5573Z" fill="#698DFE" fill-opacity="0.2"/>
<path d="M92.6655 32.5575L92.3579 30.0291L92.9369 30.0846L92.9891 32.3674L92.6655 32.5575Z" fill="#698DFE" fill-opacity="0.2"/>
<path d="M92.9369 30.0845L92.3579 30.0289L92.9927 29.4683L93.3561 29.7261L92.9369 30.0845Z" fill="#698DFE" fill-opacity="0.2"/>
<path d="M92.9746 32.0217L90.6315 33.0194L90.4631 33.8495L90.8682 34.0354L92.9707 32.5476L92.9746 32.0217Z" fill="#698DFE" fill-opacity="0.2"/>
<path d="M92.9746 32.0217L90.6315 33.0194L90.969 33.4931L92.9718 32.3968L92.9746 32.0217Z" fill="#698DFE" fill-opacity="0.2"/>
<path d="M90.969 33.493L90.6315 33.0193L90.4631 33.8494L90.8682 34.0353L90.969 33.493Z" fill="#698DFE" fill-opacity="0.2"/>
<path d="M89.8603 30.6438L89.9714 30.4513C90.0825 30.2589 90.2343 30.2182 90.4268 30.3293L96.8267 34.0243C97.0192 34.1354 97.0599 34.2872 96.9487 34.4797L96.8376 34.6722C96.7265 34.8647 96.5747 34.9053 96.3822 34.7942L89.9823 31.0992C89.7898 30.9881 89.7491 30.8363 89.8603 30.6438Z" fill="#698DFE" fill-opacity="0.2"/>
<path d="M91.3828 28.8872C91.3828 28.8872 91.1519 30.3096 91.1908 30.5783C91.2186 30.775 92.3101 31.6798 92.2032 31.8651C92.0726 32.091 90.8332 31.5476 90.5982 31.6048C90.376 31.6587 89.2091 32.5986 89.2091 32.5986C89.2091 32.5986 89.4794 31.1964 89.4036 31.0314C89.2816 30.7694 88.5187 29.7368 88.5187 29.7368C88.5187 29.7368 89.8662 29.9035 90.0876 29.8418C90.3173 29.7765 91.3828 28.8872 91.3828 28.8872Z" fill="#698DFE" fill-opacity="0.2"/>
<path d="M95.9839 35.528C95.9839 36.1911 96.2473 36.8271 96.7162 37.296C97.1851 37.7649 97.8211 38.0283 98.4842 38.0283C99.1474 38.0283 99.7834 37.7649 100.252 37.296C100.721 36.8271 100.985 36.1911 100.985 35.528C100.985 35.1996 100.92 34.8745 100.794 34.5711C100.669 34.2677 100.484 33.9921 100.252 33.7599C100.02 33.5277 99.7445 33.3436 99.4411 33.2179C99.1377 33.0923 98.8126 33.0276 98.4842 33.0276C98.1559 33.0276 97.8308 33.0923 97.5274 33.2179C97.224 33.3436 96.9484 33.5277 96.7162 33.7599C96.484 33.9921 96.2999 34.2677 96.1742 34.5711C96.0486 34.8745 95.9839 35.1996 95.9839 35.528Z" fill="#698DFE" fill-opacity="0.2"/>
<path d="M290.169 45.0707L290.67 43.8507L291.08 43.7661L291.171 43.9783L290.428 45.0707H290.169Z" fill="#698DFE" fill-opacity="0.2"/>
<path d="M290.169 45.0706L290.67 43.8506L290.903 44.0288L290.354 45.0706H290.169Z" fill="#698DFE" fill-opacity="0.2"/>
<path d="M290.903 44.0288L290.67 43.8507L291.08 43.7661L291.171 43.9783L290.903 44.0288Z" fill="#698DFE" fill-opacity="0.2"/>
<path d="M289.847 43.1754L290.732 42.51L291.081 42.6272L291.063 42.82L290.046 43.2883L289.847 43.1754Z" fill="#698DFE" fill-opacity="0.2"/>
<path d="M289.847 43.1754L290.732 42.51L290.837 42.7401L289.989 43.2559L289.847 43.1754Z" fill="#698DFE" fill-opacity="0.2"/>
<path d="M290.837 42.7401L290.732 42.51L291.081 42.6272L291.063 42.82L290.837 42.7401Z" fill="#698DFE" fill-opacity="0.2"/>
<path d="M290.116 43.1754L289.231 42.51L288.881 42.6271L288.899 42.82L289.917 43.2883L290.116 43.1754Z" fill="#698DFE" fill-opacity="0.2"/>
<path d="M290.116 43.1754L289.231 42.51L289.126 42.74L289.974 43.2559L290.116 43.1754Z" fill="#698DFE" fill-opacity="0.2"/>
<path d="M289.126 42.74L289.231 42.51L288.881 42.6271L288.899 42.82L289.126 42.74Z" fill="#698DFE" fill-opacity="0.2"/>
<path d="M289.957 41.7031H290.054C290.151 41.7031 290.199 41.7514 290.199 41.8481V45.0611C290.199 45.1577 290.151 45.206 290.054 45.206H289.957C289.861 45.206 289.812 45.1577 289.812 45.0611V41.8481C289.812 41.7514 289.861 41.7031 289.957 41.7031Z" fill="#698DFE" fill-opacity="0.2"/>
<path d="M290.95 41.8938C290.95 41.8938 290.364 42.1167 290.271 42.1898C290.203 42.2433 290.1 42.8508 290.007 42.8508C289.893 42.8508 289.829 42.2659 289.756 42.1898C289.687 42.1182 289.079 41.8824 289.079 41.8824C289.079 41.8824 289.666 41.6794 289.712 41.6146C289.784 41.5117 290.007 41 290.007 41C290.007 41 290.236 41.5436 290.309 41.6136C290.383 41.6861 290.95 41.8938 290.95 41.8938Z" fill="#698DFE" fill-opacity="0.2"/>
<path d="M290.896 45.6932L292.203 45.5173L292.482 45.8304L292.343 46.0146L291.026 45.9181L290.896 45.6932Z" fill="#698DFE" fill-opacity="0.2"/>
<path d="M290.896 45.6932L292.203 45.5173L292.165 45.8078L290.989 45.8536L290.896 45.6932Z" fill="#698DFE" fill-opacity="0.2"/>
<path d="M292.165 45.8078L292.203 45.5173L292.482 45.8304L292.343 46.0146L292.165 45.8078Z" fill="#698DFE" fill-opacity="0.2"/>
<path d="M292.377 44.4668L293.395 44.9006L293.469 45.2615L293.293 45.3423L292.378 44.6955L292.377 44.4668Z" fill="#698DFE" fill-opacity="0.2"/>
<path d="M292.377 44.4668L293.395 44.9006L293.249 45.1065L292.378 44.6299L292.377 44.4668Z" fill="#698DFE" fill-opacity="0.2"/>
<path d="M293.249 45.1066L293.395 44.9006L293.468 45.2616L293.293 45.3424L293.249 45.1066Z" fill="#698DFE" fill-opacity="0.2"/>
<path d="M292.511 44.6998L292.645 43.6004L292.369 43.3567L292.211 43.4688L292.314 44.5839L292.511 44.6998Z" fill="#698DFE" fill-opacity="0.2"/>
<path d="M292.511 44.6997L292.645 43.6003L292.393 43.6245L292.37 44.617L292.511 44.6997Z" fill="#698DFE" fill-opacity="0.2"/>
<path d="M292.393 43.6246L292.645 43.6004L292.369 43.3567L292.211 43.4688L292.393 43.6246Z" fill="#698DFE" fill-opacity="0.2"/>
<path d="M293.707 43.8267L293.755 43.9103C293.804 43.994 293.786 44.06 293.702 44.1083L290.92 45.7149C290.836 45.7632 290.77 45.7455 290.722 45.6618L290.673 45.5781C290.625 45.4944 290.643 45.4284 290.726 45.3801L293.509 43.7736C293.593 43.7253 293.659 43.743 293.707 43.8267Z" fill="#698DFE" fill-opacity="0.2"/>
<path d="M294.037 44.7817C294.037 44.7817 293.552 44.3857 293.442 44.3418C293.362 44.3098 292.784 44.5238 292.738 44.4431C292.681 44.3449 293.155 43.9962 293.185 43.8955C293.212 43.8004 293.112 43.156 293.112 43.156C293.112 43.156 293.581 43.5626 293.66 43.5696C293.785 43.5806 294.34 43.5179 294.34 43.5179C294.34 43.5179 293.984 43.989 293.959 44.0856C293.934 44.1867 294.037 44.7817 294.037 44.7817Z" fill="#698DFE" fill-opacity="0.2"/>
<path d="M290.721 46.6348L291.527 47.6789L291.395 48.0765L291.166 48.0485L290.591 46.8597L290.721 46.6348Z" fill="#698DFE" fill-opacity="0.2"/>
<path d="M290.721 46.6348L291.527 47.6789L291.256 47.7912L290.628 46.7952L290.721 46.6348Z" fill="#698DFE" fill-opacity="0.2"/>
<path d="M291.256 47.7913L291.527 47.679L291.395 48.0766L291.166 48.0486L291.256 47.7913Z" fill="#698DFE" fill-opacity="0.2"/>
<path d="M292.523 47.3037L292.657 48.4029L292.381 48.6467L292.223 48.5346L292.326 47.4195L292.523 47.3037Z" fill="#698DFE" fill-opacity="0.2"/>
<path d="M292.523 47.3037L292.657 48.4029L292.405 48.3787L292.383 47.3863L292.523 47.3037Z" fill="#698DFE" fill-opacity="0.2"/>
<path d="M292.405 48.3787L292.657 48.4028L292.381 48.6466L292.223 48.5345L292.405 48.3787Z" fill="#698DFE" fill-opacity="0.2"/>
<path d="M292.389 47.5364L293.408 47.1025L293.481 46.7417L293.305 46.6609L292.39 47.3076L292.389 47.5364Z" fill="#698DFE" fill-opacity="0.2"/>
<path d="M292.389 47.5364L293.408 47.1026L293.261 46.8967L292.39 47.3732L292.389 47.5364Z" fill="#698DFE" fill-opacity="0.2"/>
<path d="M293.261 46.8967L293.408 47.1025L293.481 46.7417L293.305 46.6609L293.261 46.8967Z" fill="#698DFE" fill-opacity="0.2"/>
<path d="M293.743 48.1355L293.695 48.2192C293.646 48.3029 293.58 48.3205 293.497 48.2722L290.714 46.6657C290.63 46.6174 290.613 46.5514 290.661 46.4677L290.709 46.384C290.758 46.3003 290.824 46.2827 290.907 46.331L293.69 47.9375C293.773 47.9858 293.791 48.0518 293.743 48.1355Z" fill="#698DFE" fill-opacity="0.2"/>
<path d="M293.081 48.8998C293.081 48.8998 293.181 48.2813 293.164 48.1645C293.152 48.079 292.678 47.6856 292.724 47.605C292.781 47.5068 293.32 47.7431 293.422 47.7182C293.519 47.6948 294.026 47.2861 294.026 47.2861C294.026 47.2861 293.908 47.8958 293.941 47.9675C293.994 48.0814 294.326 48.5304 294.326 48.5304C294.326 48.5304 293.74 48.4579 293.644 48.4847C293.545 48.5132 293.081 48.8998 293.081 48.8998Z" fill="#698DFE" fill-opacity="0.2"/>
<path d="M289.842 46.9292L289.341 48.1492L288.93 48.2337L288.84 48.0216L289.582 46.9292H289.842Z" fill="#698DFE" fill-opacity="0.2"/>
<path d="M289.842 46.9292L289.341 48.1492L289.108 47.971L289.657 46.9292H289.842Z" fill="#698DFE" fill-opacity="0.2"/>
<path d="M289.108 47.9709L289.341 48.1491L288.93 48.2337L288.84 48.0216L289.108 47.9709Z" fill="#698DFE" fill-opacity="0.2"/>
<path d="M290.164 48.8246L289.279 49.49L288.93 49.3729L288.948 49.18L289.965 48.7117L290.164 48.8246Z" fill="#698DFE" fill-opacity="0.2"/>
<path d="M290.164 48.8247L289.279 49.4901L289.174 49.26L290.022 48.7441L290.164 48.8247Z" fill="#698DFE" fill-opacity="0.2"/>
<path d="M289.174 49.2599L289.279 49.49L288.93 49.3728L288.948 49.1799L289.174 49.2599Z" fill="#698DFE" fill-opacity="0.2"/>
<path d="M289.895 48.8246L290.78 49.49L291.129 49.3729L291.111 49.1801L290.094 48.7117L289.895 48.8246Z" fill="#698DFE" fill-opacity="0.2"/>
<path d="M289.895 48.8246L290.78 49.49L290.885 49.2599L290.037 48.7441L289.895 48.8246Z" fill="#698DFE" fill-opacity="0.2"/>
<path d="M290.885 49.26L290.78 49.4901L291.129 49.373L291.111 49.1802L290.885 49.26Z" fill="#698DFE" fill-opacity="0.2"/>
<path d="M290.053 50.2969H289.957C289.86 50.2969 289.812 50.2486 289.812 50.1519V46.9389C289.812 46.8423 289.86 46.7939 289.957 46.7939H290.053C290.15 46.7939 290.198 46.8423 290.198 46.9389V50.1519C290.198 50.2486 290.15 50.2969 290.053 50.2969Z" fill="#698DFE" fill-opacity="0.2"/>
<path d="M289.061 50.1055C289.061 50.1055 289.646 49.8832 289.739 49.8101C289.807 49.7566 289.911 49.1492 290.004 49.1492C290.117 49.1492 290.182 49.734 290.255 49.8101C290.323 49.8818 290.931 50.1175 290.931 50.1175C290.931 50.1175 290.344 50.3206 290.299 50.3855C290.226 50.4884 290.004 51 290.004 51C290.004 51 289.774 50.4565 289.702 50.3864C289.628 50.3138 289.061 50.1055 289.061 50.1055Z" fill="#698DFE" fill-opacity="0.2"/>
<path d="M289.123 46.3396L287.816 46.5155L287.538 46.2024L287.676 46.0181L288.993 46.1147L289.123 46.3396Z" fill="#698DFE" fill-opacity="0.2"/>
<path d="M289.123 46.3396L287.816 46.5155L287.854 46.225L289.031 46.1792L289.123 46.3396Z" fill="#698DFE" fill-opacity="0.2"/>
<path d="M287.854 46.225L287.816 46.5155L287.538 46.2024L287.676 46.0181L287.854 46.225Z" fill="#698DFE" fill-opacity="0.2"/>
<path d="M287.643 47.5662L286.624 47.1323L286.551 46.7715L286.727 46.6907L287.641 47.3374L287.643 47.5662Z" fill="#698DFE" fill-opacity="0.2"/>
<path d="M287.643 47.5662L286.624 47.1323L286.771 46.9265L287.641 47.4032L287.643 47.5662Z" fill="#698DFE" fill-opacity="0.2"/>
<path d="M286.771 46.9265L286.624 47.1323L286.551 46.7715L286.727 46.6907L286.771 46.9265Z" fill="#698DFE" fill-opacity="0.2"/>
<path d="M287.508 47.3333L287.375 48.4324L287.651 48.6762L287.809 48.5642L287.705 47.4491L287.508 47.3333Z" fill="#698DFE" fill-opacity="0.2"/>
<path d="M287.508 47.3333L287.375 48.4324L287.626 48.4084L287.649 47.4159L287.508 47.3333Z" fill="#698DFE" fill-opacity="0.2"/>
<path d="M287.626 48.4084L287.375 48.4325L287.651 48.6762L287.809 48.5643L287.626 48.4084Z" fill="#698DFE" fill-opacity="0.2"/>
<path d="M289.346 46.4548L289.298 46.3711C289.288 46.3546 289.276 46.3401 289.261 46.3285C289.245 46.3169 289.228 46.3084 289.21 46.3035C289.191 46.2986 289.172 46.2973 289.153 46.2998C289.134 46.3023 289.116 46.3085 289.1 46.3181L286.766 47.6656C286.675 47.6871 286.602 47.701 286.577 47.691C286.467 47.6472 285.982 47.251 285.982 47.251C285.982 47.251 286.085 47.846 286.06 47.947C286.035 48.0437 285.679 48.5147 285.679 48.5147C285.679 48.5147 286.234 48.4519 286.359 48.463C286.438 48.4699 286.907 48.8766 286.907 48.8766C286.907 48.8766 286.807 48.2322 286.834 48.1372C286.842 48.1108 286.88 48.0675 286.931 48.0164L289.293 46.6529C289.31 46.6434 289.324 46.6307 289.336 46.6156C289.347 46.6005 289.356 46.5832 289.361 46.5648C289.366 46.5465 289.367 46.5273 289.364 46.5084C289.362 46.4895 289.356 46.4713 289.346 46.4548Z" fill="#698DFE" fill-opacity="0.2"/>
<path d="M289.266 45.3893L288.46 44.3452L288.592 43.9475L288.821 43.9754L289.395 45.1644L289.266 45.3893Z" fill="#698DFE" fill-opacity="0.2"/>
<path d="M289.266 45.3894L288.46 44.3452L288.73 44.2329L289.358 45.2289L289.266 45.3894Z" fill="#698DFE" fill-opacity="0.2"/>
<path d="M288.73 44.2328L288.46 44.3452L288.592 43.9475L288.821 43.9754L288.73 44.2328Z" fill="#698DFE" fill-opacity="0.2"/>
<path d="M287.463 44.7208L287.329 43.6214L287.605 43.3777L287.763 43.4898L287.66 44.6049L287.463 44.7208Z" fill="#698DFE" fill-opacity="0.2"/>
<path d="M287.463 44.7207L287.329 43.6213L287.581 43.6455L287.604 44.638L287.463 44.7207Z" fill="#698DFE" fill-opacity="0.2"/>
<path d="M287.581 43.6456L287.329 43.6214L287.605 43.3777L287.763 43.4898L287.581 43.6456Z" fill="#698DFE" fill-opacity="0.2"/>
<path d="M287.598 44.4878L286.579 44.9216L286.506 45.2825L286.682 45.3633L287.596 44.7164L287.598 44.4878Z" fill="#698DFE" fill-opacity="0.2"/>
<path d="M287.598 44.4878L286.579 44.9216L286.726 45.1275L287.596 44.6509L287.598 44.4878Z" fill="#698DFE" fill-opacity="0.2"/>
<path d="M286.726 45.1273L286.579 44.9214L286.506 45.2823L286.682 45.3631L286.726 45.1273Z" fill="#698DFE" fill-opacity="0.2"/>
<path d="M286.244 43.8886L286.292 43.8049C286.34 43.7212 286.406 43.7036 286.49 43.7519L289.272 45.3584C289.356 45.4067 289.374 45.4727 289.326 45.5564L289.277 45.6401C289.229 45.7238 289.163 45.7414 289.079 45.6931L286.297 44.0866C286.213 44.0383 286.195 43.9723 286.244 43.8886Z" fill="#698DFE" fill-opacity="0.2"/>
<path d="M286.906 43.1248C286.906 43.1248 286.805 43.7432 286.822 43.86C286.834 43.9455 287.309 44.3389 287.262 44.4195C287.205 44.5177 286.667 44.2814 286.564 44.3063C286.468 44.3298 285.96 44.7384 285.96 44.7384C285.96 44.7384 286.078 44.1288 286.045 44.057C285.992 43.9431 285.66 43.4941 285.66 43.4941C285.66 43.4941 286.246 43.5666 286.342 43.5398C286.442 43.5114 286.906 43.1248 286.906 43.1248Z" fill="#698DFE" fill-opacity="0.2"/>
<path d="M288.906 46.0122C288.906 46.3005 289.021 46.577 289.224 46.7809C289.428 46.9847 289.705 47.0993 289.993 47.0993C290.281 47.0993 290.558 46.9847 290.762 46.7809C290.966 46.577 291.08 46.3005 291.08 46.0122C291.08 45.8694 291.052 45.728 290.997 45.5961C290.943 45.4642 290.863 45.3444 290.762 45.2435C290.661 45.1425 290.541 45.0624 290.409 45.0078C290.277 44.9532 290.136 44.925 289.993 44.925C289.85 44.925 289.709 44.9532 289.577 45.0078C289.445 45.0624 289.325 45.1425 289.224 45.2435C289.123 45.3444 289.043 45.4642 288.989 45.5961C288.934 45.728 288.906 45.8694 288.906 46.0122Z" fill="#698DFE" fill-opacity="0.2"/>
<path d="M151.202 16.8848L151.804 15.4208L152.296 15.3193L152.405 15.574L151.514 16.8848H151.202Z" fill="#698DFE" fill-opacity="0.2"/>
<path d="M151.202 16.8846L151.804 15.4207L152.083 15.6345L151.425 16.8846H151.202Z" fill="#698DFE" fill-opacity="0.2"/>
<path d="M152.083 15.6346L151.804 15.4208L152.296 15.3193L152.405 15.574L152.083 15.6346Z" fill="#698DFE" fill-opacity="0.2"/>
<path d="M150.816 14.6105L151.878 13.812L152.297 13.9526L152.275 14.1839L151.055 14.7459L150.816 14.6105Z" fill="#698DFE" fill-opacity="0.2"/>
<path d="M150.816 14.6105L151.878 13.812L152.004 14.0881L150.986 14.7071L150.816 14.6105Z" fill="#698DFE" fill-opacity="0.2"/>
<path d="M152.004 14.0881L151.878 13.812L152.297 13.9526L152.275 14.1839L152.004 14.0881Z" fill="#698DFE" fill-opacity="0.2"/>
<path d="M151.139 14.6105L150.077 13.812L149.658 13.9525L149.679 14.1839L150.9 14.7459L151.139 14.6105Z" fill="#698DFE" fill-opacity="0.2"/>
<path d="M151.139 14.6105L150.077 13.812L149.951 14.088L150.969 14.7071L151.139 14.6105Z" fill="#698DFE" fill-opacity="0.2"/>
<path d="M149.951 14.088L150.077 13.812L149.658 13.9525L149.679 14.1839L149.951 14.088Z" fill="#698DFE" fill-opacity="0.2"/>
<path d="M150.949 12.8438H151.065C151.181 12.8438 151.239 12.9017 151.239 13.0177V16.8733C151.239 16.9893 151.181 17.0473 151.065 17.0473H150.949C150.833 17.0473 150.775 16.9893 150.775 16.8733V13.0177C150.775 12.9017 150.833 12.8438 150.949 12.8438Z" fill="#698DFE" fill-opacity="0.2"/>
<path d="M152.14 13.0726C152.14 13.0726 151.437 13.34 151.326 13.4277C151.244 13.492 151.12 14.2209 151.008 14.2209C150.872 14.2209 150.794 13.5191 150.707 13.4277C150.625 13.3418 149.895 13.0588 149.895 13.0588C149.895 13.0588 150.599 12.8153 150.654 12.7375C150.741 12.614 151.008 12 151.008 12C151.008 12 151.283 12.6523 151.37 12.7363C151.46 12.8233 152.14 13.0726 152.14 13.0726Z" fill="#698DFE" fill-opacity="0.2"/>
<path d="M152.075 17.6319L153.644 17.4209L153.978 17.7966L153.812 18.0177L152.231 17.9018L152.075 17.6319Z" fill="#698DFE" fill-opacity="0.2"/>
<path d="M152.075 17.6319L153.644 17.4209L153.598 17.7695L152.187 17.8244L152.075 17.6319Z" fill="#698DFE" fill-opacity="0.2"/>
<path d="M153.598 17.7695L153.644 17.4209L153.978 17.7966L153.812 18.0177L153.598 17.7695Z" fill="#698DFE" fill-opacity="0.2"/>
<path d="M153.852 16.1602L155.075 16.6807L155.162 17.1138L154.951 17.2107L153.854 16.4345L153.852 16.1602Z" fill="#698DFE" fill-opacity="0.2"/>
<path d="M153.852 16.1602L155.075 16.6807L154.898 16.9278L153.854 16.3558L153.852 16.1602Z" fill="#698DFE" fill-opacity="0.2"/>
<path d="M154.898 16.9278L155.075 16.6807L155.162 17.1138L154.951 17.2107L154.898 16.9278Z" fill="#698DFE" fill-opacity="0.2"/>
<path d="M154.013 16.4396L154.174 15.1204L153.843 14.8279L153.653 14.9624L153.777 16.3006L154.013 16.4396Z" fill="#698DFE" fill-opacity="0.2"/>
<path d="M154.013 16.4395L154.174 15.1204L153.872 15.1494L153.845 16.3404L154.013 16.4395Z" fill="#698DFE" fill-opacity="0.2"/>
<path d="M153.872 15.1494L154.174 15.1204L153.843 14.8279L153.653 14.9624L153.872 15.1494Z" fill="#698DFE" fill-opacity="0.2"/>
<path d="M155.448 15.3919L155.506 15.4923C155.564 15.5927 155.543 15.6719 155.443 15.7299L152.104 17.6577C152.003 17.7157 151.924 17.6945 151.866 17.5941L151.808 17.4936C151.75 17.3932 151.771 17.314 151.872 17.256L155.211 15.3282C155.311 15.2702 155.39 15.2915 155.448 15.3919Z" fill="#698DFE" fill-opacity="0.2"/>
<path d="M155.845 16.538C155.845 16.538 155.263 16.0627 155.131 16.0101C155.035 15.9717 154.341 16.2286 154.285 16.1317C154.217 16.0139 154.786 15.5954 154.822 15.4745C154.855 15.3605 154.735 14.5872 154.735 14.5872C154.735 14.5872 155.298 15.0751 155.392 15.0835C155.542 15.0967 156.208 15.0214 156.208 15.0214C156.208 15.0214 155.78 15.5867 155.751 15.7027C155.721 15.824 155.845 16.538 155.845 16.538Z" fill="#698DFE" fill-opacity="0.2"/>
<path d="M151.865 18.7617L152.832 20.0147L152.674 20.4918L152.399 20.4582L151.709 19.0316L151.865 18.7617Z" fill="#698DFE" fill-opacity="0.2"/>
<path d="M151.865 18.7617L152.832 20.0147L152.507 20.1495L151.754 18.9542L151.865 18.7617Z" fill="#698DFE" fill-opacity="0.2"/>
<path d="M152.507 20.1495L152.832 20.0146L152.674 20.4918L152.399 20.4582L152.507 20.1495Z" fill="#698DFE" fill-opacity="0.2"/>
<path d="M154.028 19.5645L154.188 20.8835L153.857 21.176L153.668 21.0415L153.791 19.7035L154.028 19.5645Z" fill="#698DFE" fill-opacity="0.2"/>
<path d="M154.028 19.5645L154.188 20.8835L153.886 20.8545L153.859 19.6636L154.028 19.5645Z" fill="#698DFE" fill-opacity="0.2"/>
<path d="M153.886 20.8542L154.188 20.8832L153.857 21.1757L153.668 21.0412L153.886 20.8542Z" fill="#698DFE" fill-opacity="0.2"/>
<path d="M153.866 19.8438L155.089 19.3231L155.177 18.8902L154.966 18.7932L153.869 19.5693L153.866 19.8438Z" fill="#698DFE" fill-opacity="0.2"/>
<path d="M153.866 19.8438L155.089 19.3232L154.913 19.0762L153.868 19.648L153.866 19.8438Z" fill="#698DFE" fill-opacity="0.2"/>
<path d="M154.913 19.0762L155.089 19.3231L155.177 18.8902L154.966 18.7932L154.913 19.0762Z" fill="#698DFE" fill-opacity="0.2"/>
<path d="M155.491 20.5627L155.433 20.6632C155.375 20.7636 155.296 20.7848 155.196 20.7268L151.857 18.799C151.756 18.741 151.735 18.6618 151.793 18.5614L151.851 18.461C151.909 18.3606 151.988 18.3393 152.089 18.3973L155.428 20.3251C155.528 20.3831 155.549 20.4623 155.491 20.5627Z" fill="#698DFE" fill-opacity="0.2"/>
<path d="M154.697 21.4796C154.697 21.4796 154.817 20.7374 154.797 20.5973C154.783 20.4947 154.213 20.0226 154.269 19.9259C154.337 19.808 154.984 20.0916 155.106 20.0617C155.222 20.0336 155.831 19.5432 155.831 19.5432C155.831 19.5432 155.69 20.2748 155.73 20.3609C155.793 20.4976 156.191 21.0363 156.191 21.0363C156.191 21.0363 155.488 20.9494 155.373 20.9815C155.254 21.0157 154.697 21.4796 154.697 21.4796Z" fill="#698DFE" fill-opacity="0.2"/>
<path d="M150.81 19.1152L150.209 20.5792L149.716 20.6807L149.608 20.4261L150.499 19.1152H150.81Z" fill="#698DFE" fill-opacity="0.2"/>
<path d="M150.81 19.1152L150.209 20.5792L149.93 20.3654L150.588 19.1152H150.81Z" fill="#698DFE" fill-opacity="0.2"/>
<path d="M149.93 20.3652L150.209 20.579L149.716 20.6805L149.608 20.426L149.93 20.3652Z" fill="#698DFE" fill-opacity="0.2"/>
<path d="M151.197 21.3897L150.135 22.1882L149.716 22.0476L149.737 21.8161L150.958 21.2542L151.197 21.3897Z" fill="#698DFE" fill-opacity="0.2"/>
<path d="M151.197 21.3896L150.135 22.1882L150.009 21.912L151.026 21.293L151.197 21.3896Z" fill="#698DFE" fill-opacity="0.2"/>
<path d="M150.009 21.9121L150.135 22.1882L149.716 22.0476L149.737 21.8162L150.009 21.9121Z" fill="#698DFE" fill-opacity="0.2"/>
<path d="M150.874 21.3897L151.936 22.1882L152.355 22.0476L152.333 21.8163L151.113 21.2542L150.874 21.3897Z" fill="#698DFE" fill-opacity="0.2"/>
<path d="M150.874 21.3897L151.936 22.1883L152.062 21.9121L151.044 21.2932L150.874 21.3897Z" fill="#698DFE" fill-opacity="0.2"/>
<path d="M152.062 21.912L151.936 22.1881L152.355 22.0475L152.333 21.8162L152.062 21.912Z" fill="#698DFE" fill-opacity="0.2"/>
<path d="M151.064 23.1564H150.948C150.832 23.1564 150.774 23.0984 150.774 22.9824V19.1268C150.774 19.0109 150.832 18.9529 150.948 18.9529H151.064C151.18 18.9529 151.238 19.0109 151.238 19.1268V22.9824C151.238 23.0984 151.18 23.1564 151.064 23.1564Z" fill="#698DFE" fill-opacity="0.2"/>
<path d="M149.873 22.9266C149.873 22.9266 150.576 22.6599 150.687 22.5722C150.768 22.508 150.893 21.7791 151.004 21.7791C151.141 21.7791 151.218 22.4809 151.305 22.5722C151.388 22.6582 152.117 22.9411 152.117 22.9411C152.117 22.9411 151.413 23.1848 151.359 23.2626C151.272 23.3861 151.004 24.0001 151.004 24.0001C151.004 24.0001 150.729 23.3478 150.642 23.2638C150.553 23.1766 149.873 22.9266 149.873 22.9266Z" fill="#698DFE" fill-opacity="0.2"/>
<path d="M149.948 18.4076L148.379 18.6186L148.045 18.2429L148.212 18.0217L149.792 18.1377L149.948 18.4076Z" fill="#698DFE" fill-opacity="0.2"/>
<path d="M149.948 18.4076L148.379 18.6186L148.425 18.27L149.837 18.2151L149.948 18.4076Z" fill="#698DFE" fill-opacity="0.2"/>
<path d="M148.425 18.27L148.379 18.6186L148.045 18.2429L148.212 18.0217L148.425 18.27Z" fill="#698DFE" fill-opacity="0.2"/>
<path d="M148.171 19.8794L146.949 19.3588L146.861 18.9258L147.072 18.8289L148.169 19.6049L148.171 19.8794Z" fill="#698DFE" fill-opacity="0.2"/>
<path d="M148.171 19.8795L146.949 19.3588L147.125 19.1118L148.17 19.6838L148.171 19.8795Z" fill="#698DFE" fill-opacity="0.2"/>
<path d="M147.125 19.1118L146.949 19.3588L146.861 18.9258L147.072 18.8289L147.125 19.1118Z" fill="#698DFE" fill-opacity="0.2"/>
<path d="M148.01 19.5999L147.849 20.9189L148.181 21.2114L148.37 21.077L148.247 19.7389L148.01 19.5999Z" fill="#698DFE" fill-opacity="0.2"/>
<path d="M148.01 19.5999L147.849 20.9189L148.152 20.89L148.179 19.699L148.01 19.5999Z" fill="#698DFE" fill-opacity="0.2"/>
<path d="M148.152 20.8901L147.849 20.919L148.181 21.2115L148.37 21.0771L148.152 20.8901Z" fill="#698DFE" fill-opacity="0.2"/>
<path d="M150.215 18.5458L150.157 18.4454C150.146 18.4256 150.131 18.4082 150.113 18.3943C150.094 18.3804 150.074 18.3702 150.052 18.3643C150.03 18.3584 150.007 18.3569 149.984 18.3599C149.961 18.3629 149.939 18.3703 149.92 18.3818L147.119 19.9988C147.01 20.0246 146.922 20.0413 146.892 20.0292C146.761 19.9768 146.178 19.5013 146.178 19.5013C146.178 19.5013 146.302 20.2154 146.271 20.3365C146.242 20.4525 145.815 21.0178 145.815 21.0178C145.815 21.0178 146.48 20.9424 146.63 20.9558C146.725 20.964 147.288 21.4521 147.288 21.4521C147.288 21.4521 147.168 20.6788 147.201 20.5647C147.21 20.5331 147.256 20.481 147.317 20.4197L150.152 18.7836C150.171 18.7721 150.189 18.7569 150.203 18.7388C150.217 18.7207 150.227 18.7 150.233 18.6779C150.239 18.6558 150.24 18.6328 150.237 18.6101C150.234 18.5875 150.227 18.5656 150.215 18.5458Z" fill="#698DFE" fill-opacity="0.2"/>
<path d="M150.119 17.2672L149.152 16.0143L149.31 15.5371L149.585 15.5706L150.275 16.9973L150.119 17.2672Z" fill="#698DFE" fill-opacity="0.2"/>
<path d="M150.119 17.2674L149.152 16.0144L149.476 15.8796L150.23 17.0749L150.119 17.2674Z" fill="#698DFE" fill-opacity="0.2"/>
<path d="M149.476 15.8795L149.152 16.0143L149.31 15.5371L149.585 15.5706L149.476 15.8795Z" fill="#698DFE" fill-opacity="0.2"/>
<path d="M147.956 16.4647L147.795 15.1455L148.127 14.853L148.316 14.9875L148.193 16.3257L147.956 16.4647Z" fill="#698DFE" fill-opacity="0.2"/>
<path d="M147.956 16.4647L147.795 15.1455L148.097 15.1745L148.125 16.3655L147.956 16.4647Z" fill="#698DFE" fill-opacity="0.2"/>
<path d="M148.097 15.1745L147.795 15.1455L148.127 14.853L148.316 14.9875L148.097 15.1745Z" fill="#698DFE" fill-opacity="0.2"/>
<path d="M148.117 16.1853L146.895 16.7058L146.807 17.1389L147.018 17.2359L148.115 16.4597L148.117 16.1853Z" fill="#698DFE" fill-opacity="0.2"/>
<path d="M148.117 16.1853L146.895 16.7058L147.071 16.953L148.116 16.381L148.117 16.1853Z" fill="#698DFE" fill-opacity="0.2"/>
<path d="M147.071 16.9529L146.895 16.7058L146.807 17.1389L147.018 17.2359L147.071 16.9529Z" fill="#698DFE" fill-opacity="0.2"/>
<path d="M146.492 15.4664L146.55 15.366C146.608 15.2656 146.687 15.2444 146.788 15.3023L150.127 17.2302C150.227 17.2881 150.249 17.3673 150.191 17.4678L150.133 17.5682C150.075 17.6686 149.995 17.6898 149.895 17.6318L146.556 15.704C146.456 15.6461 146.434 15.5669 146.492 15.4664Z" fill="#698DFE" fill-opacity="0.2"/>
<path d="M147.287 14.5498C147.287 14.5498 147.166 15.2919 147.186 15.4321C147.201 15.5347 147.77 16.0068 147.715 16.1035C147.647 16.2214 147 15.9378 146.877 15.9677C146.761 15.9958 146.153 16.4862 146.153 16.4862C146.153 16.4862 146.294 15.7546 146.254 15.6685C146.19 15.5318 145.792 14.9931 145.792 14.9931C145.792 14.9931 146.495 15.08 146.611 15.0478C146.731 15.0138 147.287 14.5498 147.287 14.5498Z" fill="#698DFE" fill-opacity="0.2"/>
<path d="M149.687 18.0145C149.687 18.3605 149.825 18.6923 150.069 18.9369C150.314 19.1816 150.646 19.319 150.992 19.319C151.338 19.319 151.67 19.1816 151.914 18.9369C152.159 18.6923 152.296 18.3605 152.296 18.0145C152.296 17.8432 152.263 17.6735 152.197 17.5153C152.131 17.357 152.035 17.2132 151.914 17.0921C151.793 16.9709 151.649 16.8748 151.491 16.8093C151.333 16.7437 151.163 16.71 150.992 16.71C150.82 16.71 150.651 16.7437 150.493 16.8093C150.334 16.8748 150.19 16.9709 150.069 17.0921C149.948 17.2132 149.852 17.357 149.787 17.5153C149.721 17.6735 149.687 17.8432 149.687 18.0145Z" fill="#698DFE" fill-opacity="0.2"/>
<path d="M114.27 98.513L115.072 96.5611L115.728 96.4258L115.873 96.7653L114.685 98.513H114.27Z" fill="#698DFE" fill-opacity="0.2"/>
<path d="M114.27 98.513L115.072 96.561L115.444 96.8461L114.566 98.513H114.27Z" fill="#698DFE" fill-opacity="0.2"/>
<path d="M115.444 96.8461L115.072 96.5611L115.728 96.4258L115.873 96.7653L115.444 96.8461Z" fill="#698DFE" fill-opacity="0.2"/>
<path d="M113.755 95.4805L115.171 94.4158L115.729 94.6032L115.7 94.9117L114.073 95.661L113.755 95.4805Z" fill="#698DFE" fill-opacity="0.2"/>
<path d="M113.755 95.4805L115.171 94.4158L115.339 94.7839L113.982 95.6092L113.755 95.4805Z" fill="#698DFE" fill-opacity="0.2"/>
<path d="M115.339 94.7839L115.171 94.4158L115.729 94.6032L115.7 94.9117L115.339 94.7839Z" fill="#698DFE" fill-opacity="0.2"/>
<path d="M114.185 95.4805L112.769 94.4158L112.21 94.603L112.239 94.9117L113.867 95.661L114.185 95.4805Z" fill="#698DFE" fill-opacity="0.2"/>
<path d="M114.185 95.4805L112.769 94.4158L112.601 94.7837L113.958 95.6092L114.185 95.4805Z" fill="#698DFE" fill-opacity="0.2"/>
<path d="M112.601 94.7837L112.769 94.4158L112.21 94.603L112.239 94.9117L112.601 94.7837Z" fill="#698DFE" fill-opacity="0.2"/>
<path d="M113.932 93.125H114.086C114.241 93.125 114.318 93.2023 114.318 93.3569V98.4978C114.318 98.6524 114.241 98.7297 114.086 98.7297H113.932C113.777 98.7297 113.7 98.6524 113.7 98.4978V93.3569C113.7 93.2023 113.777 93.125 113.932 93.125Z" fill="#698DFE" fill-opacity="0.2"/>
<path d="M115.52 93.4302C115.52 93.4302 114.583 93.7867 114.434 93.9037C114.326 93.9893 114.16 94.9612 114.011 94.9612C113.829 94.9612 113.726 94.0254 113.61 93.9037C113.5 93.7891 112.527 93.4118 112.527 93.4118C112.527 93.4118 113.466 93.0871 113.539 92.9833C113.655 92.8187 114.011 92 114.011 92C114.011 92 114.378 92.8697 114.494 92.9818C114.613 93.0977 115.52 93.4302 115.52 93.4302Z" fill="#698DFE" fill-opacity="0.2"/>
<path d="M115.434 99.5092L117.525 99.2278L117.971 99.7287L117.749 100.023L115.642 99.869L115.434 99.5092Z" fill="#698DFE" fill-opacity="0.2"/>
<path d="M115.434 99.5092L117.525 99.2278L117.465 99.6926L115.582 99.7658L115.434 99.5092Z" fill="#698DFE" fill-opacity="0.2"/>
<path d="M117.465 99.6926L117.525 99.2278L117.971 99.7287L117.749 100.023L117.465 99.6926Z" fill="#698DFE" fill-opacity="0.2"/>
<path d="M117.803 97.5469L119.433 98.2409L119.55 98.8184L119.268 98.9477L117.806 97.9127L117.803 97.5469Z" fill="#698DFE" fill-opacity="0.2"/>
<path d="M117.803 97.5469L119.433 98.2409L119.198 98.5704L117.805 97.8078L117.803 97.5469Z" fill="#698DFE" fill-opacity="0.2"/>
<path d="M119.198 98.5705L119.433 98.241L119.55 98.8184L119.268 98.9477L119.198 98.5705Z" fill="#698DFE" fill-opacity="0.2"/>
<path d="M118.018 97.9194L118.232 96.1605L117.79 95.7705L117.537 95.9499L117.702 97.7341L118.018 97.9194Z" fill="#698DFE" fill-opacity="0.2"/>
<path d="M118.018 97.9195L118.232 96.1606L117.829 96.1993L117.793 97.7874L118.018 97.9195Z" fill="#698DFE" fill-opacity="0.2"/>
<path d="M117.829 96.1992L118.232 96.1605L117.79 95.7705L117.537 95.9499L117.829 96.1992Z" fill="#698DFE" fill-opacity="0.2"/>
<path d="M119.931 96.5226L120.008 96.6565C120.086 96.7904 120.057 96.896 119.923 96.9733L115.471 99.5437C115.337 99.621 115.232 99.5927 115.155 99.4588L115.077 99.3249C115 99.191 115.028 99.0854 115.162 99.0081L119.614 96.4377C119.748 96.3604 119.854 96.3887 119.931 96.5226Z" fill="#698DFE" fill-opacity="0.2"/>
<path d="M120.46 98.0509C120.46 98.0509 119.683 97.4171 119.508 97.347C119.38 97.2958 118.455 97.6382 118.38 97.5091C118.29 97.352 119.048 96.7941 119.096 96.6329C119.14 96.4808 118.98 95.4497 118.98 95.4497C118.98 95.4497 119.73 96.1002 119.856 96.1114C120.057 96.129 120.944 96.0287 120.944 96.0287C120.944 96.0287 120.374 96.7825 120.335 96.9371C120.295 97.0988 120.46 98.0509 120.46 98.0509Z" fill="#698DFE" fill-opacity="0.2"/>
<path d="M115.153 101.016L116.443 102.686L116.231 103.322L115.865 103.278L114.945 101.375L115.153 101.016Z" fill="#698DFE" fill-opacity="0.2"/>
<path d="M115.153 101.016L116.443 102.686L116.01 102.866L115.005 101.272L115.153 101.016Z" fill="#698DFE" fill-opacity="0.2"/>
<path d="M116.01 102.866L116.443 102.686L116.231 103.323L115.865 103.278L116.01 102.866Z" fill="#698DFE" fill-opacity="0.2"/>
<path d="M118.037 102.086L118.251 103.844L117.81 104.234L117.557 104.055L117.721 102.271L118.037 102.086Z" fill="#698DFE" fill-opacity="0.2"/>
<path d="M118.037 102.086L118.251 103.844L117.848 103.806L117.812 102.218L118.037 102.086Z" fill="#698DFE" fill-opacity="0.2"/>
<path d="M117.848 103.806L118.251 103.844L117.81 104.234L117.557 104.055L117.848 103.806Z" fill="#698DFE" fill-opacity="0.2"/>
<path d="M117.822 102.458L119.452 101.764L119.569 101.187L119.287 101.058L117.825 102.092L117.822 102.458Z" fill="#698DFE" fill-opacity="0.2"/>
<path d="M117.822 102.458L119.452 101.764L119.217 101.435L117.824 102.197L117.822 102.458Z" fill="#698DFE" fill-opacity="0.2"/>
<path d="M119.217 101.435L119.452 101.764L119.569 101.187L119.287 101.058L119.217 101.435Z" fill="#698DFE" fill-opacity="0.2"/>
<path d="M119.989 103.417L119.911 103.551C119.834 103.685 119.728 103.713 119.594 103.636L115.142 101.065C115.008 100.988 114.98 100.882 115.057 100.748L115.135 100.614C115.212 100.48 115.318 100.452 115.452 100.53L119.904 103.1C120.038 103.177 120.066 103.283 119.989 103.417Z" fill="#698DFE" fill-opacity="0.2"/>
<path d="M118.929 104.639C118.929 104.639 119.09 103.65 119.063 103.463C119.044 103.326 118.284 102.697 118.359 102.568C118.449 102.411 119.312 102.789 119.475 102.749C119.63 102.711 120.441 102.058 120.441 102.058C120.441 102.058 120.253 103.033 120.306 103.148C120.391 103.33 120.922 104.048 120.922 104.048C120.922 104.048 119.984 103.932 119.83 103.975C119.672 104.021 118.929 104.639 118.929 104.639Z" fill="#698DFE" fill-opacity="0.2"/>
<path d="M113.747 101.487L112.945 103.439L112.288 103.574L112.144 103.235L113.331 101.487H113.747Z" fill="#698DFE" fill-opacity="0.2"/>
<path d="M113.747 101.487L112.945 103.439L112.573 103.154L113.451 101.487H113.747Z" fill="#698DFE" fill-opacity="0.2"/>
<path d="M112.573 103.154L112.945 103.439L112.288 103.574L112.144 103.235L112.573 103.154Z" fill="#698DFE" fill-opacity="0.2"/>
<path d="M114.262 104.52L112.846 105.584L112.288 105.397L112.316 105.088L113.944 104.339L114.262 104.52Z" fill="#698DFE" fill-opacity="0.2"/>
<path d="M114.262 104.52L112.846 105.584L112.678 105.216L114.035 104.391L114.262 104.52Z" fill="#698DFE" fill-opacity="0.2"/>
<path d="M112.678 105.216L112.846 105.584L112.288 105.397L112.316 105.088L112.678 105.216Z" fill="#698DFE" fill-opacity="0.2"/>
<path d="M113.832 104.52L115.248 105.584L115.807 105.397L115.778 105.088L114.15 104.339L113.832 104.52Z" fill="#698DFE" fill-opacity="0.2"/>
<path d="M113.832 104.52L115.248 105.584L115.416 105.216L114.059 104.391L113.832 104.52Z" fill="#698DFE" fill-opacity="0.2"/>
<path d="M115.416 105.216L115.248 105.584L115.807 105.397L115.778 105.088L115.416 105.216Z" fill="#698DFE" fill-opacity="0.2"/>
<path d="M114.085 106.875H113.931C113.776 106.875 113.699 106.798 113.699 106.643V101.502C113.699 101.348 113.776 101.271 113.931 101.271H114.085C114.24 101.271 114.317 101.348 114.317 101.502V106.643C114.317 106.798 114.24 106.875 114.085 106.875Z" fill="#698DFE" fill-opacity="0.2"/>
<path d="M112.497 106.569C112.497 106.569 113.434 106.213 113.583 106.096C113.691 106.011 113.857 105.039 114.006 105.039C114.187 105.039 114.291 105.974 114.407 106.096C114.517 106.211 115.49 106.588 115.49 106.588C115.49 106.588 114.55 106.913 114.478 107.017C114.362 107.181 114.006 108 114.006 108C114.006 108 113.639 107.13 113.523 107.018C113.404 106.902 112.497 106.569 112.497 106.569Z" fill="#698DFE" fill-opacity="0.2"/>
<path d="M112.597 100.544L110.506 100.825L110.06 100.324L110.282 100.029L112.389 100.184L112.597 100.544Z" fill="#698DFE" fill-opacity="0.2"/>
<path d="M112.597 100.544L110.506 100.825L110.566 100.36L112.449 100.287L112.597 100.544Z" fill="#698DFE" fill-opacity="0.2"/>
<path d="M110.567 100.36L110.506 100.825L110.06 100.324L110.282 100.029L110.567 100.36Z" fill="#698DFE" fill-opacity="0.2"/>
<path d="M110.228 102.506L108.598 101.812L108.481 101.234L108.763 101.105L110.226 102.14L110.228 102.506Z" fill="#698DFE" fill-opacity="0.2"/>
<path d="M110.228 102.506L108.598 101.812L108.833 101.482L110.226 102.245L110.228 102.506Z" fill="#698DFE" fill-opacity="0.2"/>
<path d="M108.833 101.482L108.598 101.812L108.481 101.234L108.763 101.105L108.833 101.482Z" fill="#698DFE" fill-opacity="0.2"/>
<path d="M110.013 102.133L109.799 103.892L110.241 104.282L110.494 104.103L110.329 102.319L110.013 102.133Z" fill="#698DFE" fill-opacity="0.2"/>
<path d="M110.013 102.133L109.799 103.892L110.202 103.854L110.238 102.265L110.013 102.133Z" fill="#698DFE" fill-opacity="0.2"/>
<path d="M110.202 103.854L109.799 103.892L110.241 104.282L110.494 104.103L110.202 103.854Z" fill="#698DFE" fill-opacity="0.2"/>
<path d="M112.954 100.728L112.877 100.594C112.861 100.567 112.841 100.544 112.817 100.526C112.793 100.507 112.765 100.494 112.736 100.486C112.706 100.478 112.675 100.476 112.645 100.48C112.615 100.484 112.586 100.494 112.56 100.509L108.825 102.665C108.681 102.699 108.563 102.722 108.523 102.706C108.348 102.636 107.571 102.002 107.571 102.002C107.571 102.002 107.736 102.954 107.695 103.115C107.657 103.27 107.086 104.024 107.086 104.024C107.086 104.024 107.974 103.923 108.174 103.941C108.3 103.952 109.051 104.603 109.051 104.603C109.051 104.603 108.891 103.572 108.935 103.419C108.947 103.377 109.008 103.308 109.089 103.226L112.869 101.045C112.895 101.029 112.918 101.009 112.937 100.985C112.955 100.961 112.969 100.933 112.977 100.904C112.985 100.874 112.987 100.844 112.983 100.813C112.979 100.783 112.969 100.754 112.954 100.728Z" fill="#698DFE" fill-opacity="0.2"/>
<path d="M112.825 99.0231L111.536 97.3525L111.747 96.7163L112.113 96.761L113.033 98.6633L112.825 99.0231Z" fill="#698DFE" fill-opacity="0.2"/>
<path d="M112.825 99.0229L111.536 97.3523L111.968 97.1726L112.973 98.7663L112.825 99.0229Z" fill="#698DFE" fill-opacity="0.2"/>
<path d="M111.968 97.1728L111.536 97.3525L111.747 96.7163L112.113 96.761L111.968 97.1728Z" fill="#698DFE" fill-opacity="0.2"/>
<path d="M109.941 97.9529L109.727 96.194L110.169 95.804L110.422 95.9833L110.257 97.7675L109.941 97.9529Z" fill="#698DFE" fill-opacity="0.2"/>
<path d="M109.941 97.953L109.727 96.1941L110.13 96.2327L110.166 97.8208L109.941 97.953Z" fill="#698DFE" fill-opacity="0.2"/>
<path d="M110.13 96.2326L109.727 96.194L110.169 95.804L110.422 95.9833L110.13 96.2326Z" fill="#698DFE" fill-opacity="0.2"/>
<path d="M110.156 97.5803L108.526 98.2743L108.409 98.8518L108.691 98.9811L110.154 97.9462L110.156 97.5803Z" fill="#698DFE" fill-opacity="0.2"/>
<path d="M110.156 97.5803L108.526 98.2743L108.761 98.6039L110.154 97.8412L110.156 97.5803Z" fill="#698DFE" fill-opacity="0.2"/>
<path d="M108.761 98.6039L108.526 98.2744L108.409 98.8519L108.691 98.9812L108.761 98.6039Z" fill="#698DFE" fill-opacity="0.2"/>
<path d="M107.99 96.6218L108.067 96.4879C108.144 96.354 108.25 96.3257 108.384 96.403L112.836 98.9735C112.97 99.0508 112.998 99.1564 112.921 99.2903L112.844 99.4242C112.766 99.5581 112.661 99.5864 112.527 99.509L108.075 96.9386C107.941 96.8613 107.912 96.7557 107.99 96.6218Z" fill="#698DFE" fill-opacity="0.2"/>
<path d="M109.049 95.3997C109.049 95.3997 108.888 96.3892 108.915 96.5761C108.935 96.7129 109.694 97.3424 109.62 97.4713C109.529 97.6284 108.667 97.2504 108.503 97.2902C108.348 97.3277 107.537 97.9815 107.537 97.9815C107.537 97.9815 107.725 97.0061 107.672 96.8913C107.587 96.709 107.057 95.9907 107.057 95.9907C107.057 95.9907 107.994 96.1066 108.148 96.0637C108.308 96.0183 109.049 95.3997 109.049 95.3997Z" fill="#698DFE" fill-opacity="0.2"/>
<path d="M112.25 100.019C112.25 100.481 112.433 100.923 112.759 101.249C113.085 101.576 113.528 101.759 113.989 101.759C114.45 101.759 114.893 101.576 115.219 101.249C115.545 100.923 115.728 100.481 115.728 100.019C115.728 99.791 115.683 99.5648 115.596 99.3538C115.509 99.1427 115.38 98.951 115.219 98.7895C115.057 98.628 114.866 98.4998 114.655 98.4124C114.444 98.325 114.217 98.28 113.989 98.28C113.761 98.28 113.534 98.325 113.323 98.4124C113.112 98.4998 112.921 98.628 112.759 98.7895C112.598 98.951 112.469 99.1427 112.382 99.3538C112.295 99.5648 112.25 99.791 112.25 100.019Z" fill="#698DFE" fill-opacity="0.2"/>
<path d="M226.169 79.0707L226.67 77.8507L227.08 77.7661L227.171 77.9783L226.428 79.0707H226.169Z" fill="#698DFE" fill-opacity="0.2"/>
<path d="M226.169 79.0706L226.67 77.8506L226.903 78.0288L226.354 79.0706H226.169Z" fill="#698DFE" fill-opacity="0.2"/>
<path d="M226.903 78.0288L226.67 77.8507L227.08 77.7661L227.171 77.9783L226.903 78.0288Z" fill="#698DFE" fill-opacity="0.2"/>
<path d="M225.847 77.1754L226.732 76.51L227.081 76.6272L227.063 76.82L226.046 77.2883L225.847 77.1754Z" fill="#698DFE" fill-opacity="0.2"/>
<path d="M225.847 77.1754L226.732 76.51L226.837 76.7401L225.989 77.2559L225.847 77.1754Z" fill="#698DFE" fill-opacity="0.2"/>
<path d="M226.837 76.7401L226.732 76.51L227.081 76.6272L227.063 76.82L226.837 76.7401Z" fill="#698DFE" fill-opacity="0.2"/>
<path d="M226.116 77.1754L225.231 76.51L224.881 76.6271L224.899 76.82L225.917 77.2883L226.116 77.1754Z" fill="#698DFE" fill-opacity="0.2"/>
<path d="M226.116 77.1754L225.231 76.51L225.126 76.74L225.974 77.2559L226.116 77.1754Z" fill="#698DFE" fill-opacity="0.2"/>
<path d="M225.126 76.74L225.231 76.51L224.881 76.6271L224.899 76.82L225.126 76.74Z" fill="#698DFE" fill-opacity="0.2"/>
<path d="M225.957 75.7031H226.054C226.151 75.7031 226.199 75.7514 226.199 75.8481V79.0611C226.199 79.1577 226.151 79.206 226.054 79.206H225.957C225.861 79.206 225.812 79.1577 225.812 79.0611V75.8481C225.812 75.7514 225.861 75.7031 225.957 75.7031Z" fill="#698DFE" fill-opacity="0.2"/>
<path d="M226.95 75.8938C226.95 75.8938 226.364 76.1167 226.271 76.1898C226.203 76.2433 226.1 76.8508 226.007 76.8508C225.893 76.8508 225.829 76.2659 225.756 76.1898C225.687 76.1182 225.079 75.8824 225.079 75.8824C225.079 75.8824 225.666 75.6794 225.712 75.6146C225.784 75.5117 226.007 75 226.007 75C226.007 75 226.236 75.5436 226.309 75.6136C226.383 75.6861 226.95 75.8938 226.95 75.8938Z" fill="#698DFE" fill-opacity="0.2"/>
<path d="M226.896 79.6932L228.203 79.5173L228.482 79.8304L228.343 80.0146L227.026 79.9181L226.896 79.6932Z" fill="#698DFE" fill-opacity="0.2"/>
<path d="M226.896 79.6932L228.203 79.5173L228.165 79.8078L226.989 79.8536L226.896 79.6932Z" fill="#698DFE" fill-opacity="0.2"/>
<path d="M228.165 79.8078L228.203 79.5173L228.482 79.8304L228.343 80.0146L228.165 79.8078Z" fill="#698DFE" fill-opacity="0.2"/>
<path d="M228.377 78.4668L229.395 78.9006L229.469 79.2615L229.293 79.3423L228.378 78.6955L228.377 78.4668Z" fill="#698DFE" fill-opacity="0.2"/>
<path d="M228.377 78.4668L229.395 78.9006L229.249 79.1065L228.378 78.6299L228.377 78.4668Z" fill="#698DFE" fill-opacity="0.2"/>
<path d="M229.249 79.1066L229.395 78.9006L229.468 79.2616L229.293 79.3424L229.249 79.1066Z" fill="#698DFE" fill-opacity="0.2"/>
<path d="M228.511 78.6998L228.645 77.6004L228.369 77.3567L228.211 77.4688L228.314 78.5839L228.511 78.6998Z" fill="#698DFE" fill-opacity="0.2"/>
<path d="M228.511 78.6997L228.645 77.6003L228.393 77.6245L228.37 78.617L228.511 78.6997Z" fill="#698DFE" fill-opacity="0.2"/>
<path d="M228.393 77.6246L228.645 77.6004L228.369 77.3567L228.211 77.4688L228.393 77.6246Z" fill="#698DFE" fill-opacity="0.2"/>
<path d="M229.707 77.8267L229.755 77.9103C229.804 77.994 229.786 78.06 229.702 78.1083L226.92 79.7149C226.836 79.7632 226.77 79.7455 226.722 79.6618L226.673 79.5781C226.625 79.4944 226.643 79.4284 226.726 79.3801L229.509 77.7736C229.593 77.7253 229.659 77.743 229.707 77.8267Z" fill="#698DFE" fill-opacity="0.2"/>
<path d="M230.037 78.7817C230.037 78.7817 229.552 78.3857 229.442 78.3418C229.362 78.3098 228.784 78.5238 228.738 78.4431C228.681 78.3449 229.155 77.9962 229.185 77.8955C229.212 77.8004 229.112 77.156 229.112 77.156C229.112 77.156 229.581 77.5626 229.66 77.5696C229.785 77.5806 230.34 77.5179 230.34 77.5179C230.34 77.5179 229.984 77.989 229.959 78.0856C229.934 78.1867 230.037 78.7817 230.037 78.7817Z" fill="#698DFE" fill-opacity="0.2"/>
<path d="M226.721 80.6348L227.527 81.6789L227.395 82.0765L227.166 82.0485L226.591 80.8597L226.721 80.6348Z" fill="#698DFE" fill-opacity="0.2"/>
<path d="M226.721 80.6348L227.527 81.6789L227.256 81.7912L226.628 80.7952L226.721 80.6348Z" fill="#698DFE" fill-opacity="0.2"/>
<path d="M227.256 81.7913L227.527 81.679L227.395 82.0766L227.166 82.0486L227.256 81.7913Z" fill="#698DFE" fill-opacity="0.2"/>
<path d="M228.523 81.3037L228.657 82.4029L228.381 82.6467L228.223 82.5346L228.326 81.4195L228.523 81.3037Z" fill="#698DFE" fill-opacity="0.2"/>
<path d="M228.523 81.3037L228.657 82.4029L228.405 82.3787L228.383 81.3863L228.523 81.3037Z" fill="#698DFE" fill-opacity="0.2"/>
<path d="M228.405 82.3787L228.657 82.4028L228.381 82.6466L228.223 82.5345L228.405 82.3787Z" fill="#698DFE" fill-opacity="0.2"/>
<path d="M228.389 81.5364L229.408 81.1025L229.481 80.7417L229.305 80.6609L228.39 81.3076L228.389 81.5364Z" fill="#698DFE" fill-opacity="0.2"/>
<path d="M228.389 81.5364L229.408 81.1026L229.261 80.8967L228.39 81.3732L228.389 81.5364Z" fill="#698DFE" fill-opacity="0.2"/>
<path d="M229.261 80.8967L229.408 81.1025L229.481 80.7417L229.305 80.6609L229.261 80.8967Z" fill="#698DFE" fill-opacity="0.2"/>
<path d="M229.743 82.1355L229.695 82.2192C229.646 82.3029 229.58 82.3205 229.497 82.2722L226.714 80.6657C226.63 80.6174 226.613 80.5514 226.661 80.4677L226.709 80.384C226.758 80.3003 226.824 80.2827 226.907 80.331L229.69 81.9375C229.773 81.9858 229.791 82.0518 229.743 82.1355Z" fill="#698DFE" fill-opacity="0.2"/>
<path d="M229.081 82.8998C229.081 82.8998 229.181 82.2813 229.164 82.1645C229.152 82.079 228.678 81.6856 228.724 81.605C228.781 81.5068 229.32 81.7431 229.422 81.7182C229.519 81.6948 230.026 81.2861 230.026 81.2861C230.026 81.2861 229.908 81.8958 229.941 81.9675C229.994 82.0814 230.326 82.5304 230.326 82.5304C230.326 82.5304 229.74 82.4579 229.644 82.4847C229.545 82.5132 229.081 82.8998 229.081 82.8998Z" fill="#698DFE" fill-opacity="0.2"/>
<path d="M225.842 80.9292L225.341 82.1492L224.93 82.2337L224.84 82.0216L225.582 80.9292H225.842Z" fill="#698DFE" fill-opacity="0.2"/>
<path d="M225.842 80.9292L225.341 82.1492L225.108 81.971L225.657 80.9292H225.842Z" fill="#698DFE" fill-opacity="0.2"/>
<path d="M225.108 81.9709L225.341 82.1491L224.93 82.2337L224.84 82.0216L225.108 81.9709Z" fill="#698DFE" fill-opacity="0.2"/>
<path d="M226.164 82.8246L225.279 83.49L224.93 83.3729L224.948 83.18L225.965 82.7117L226.164 82.8246Z" fill="#698DFE" fill-opacity="0.2"/>
<path d="M226.164 82.8247L225.279 83.4901L225.174 83.26L226.022 82.7441L226.164 82.8247Z" fill="#698DFE" fill-opacity="0.2"/>
<path d="M225.174 83.2599L225.279 83.49L224.93 83.3728L224.948 83.1799L225.174 83.2599Z" fill="#698DFE" fill-opacity="0.2"/>
<path d="M225.895 82.8246L226.78 83.49L227.129 83.3729L227.111 83.1801L226.094 82.7117L225.895 82.8246Z" fill="#698DFE" fill-opacity="0.2"/>
<path d="M225.895 82.8246L226.78 83.49L226.885 83.2599L226.037 82.7441L225.895 82.8246Z" fill="#698DFE" fill-opacity="0.2"/>
<path d="M226.885 83.26L226.78 83.4901L227.129 83.373L227.111 83.1802L226.885 83.26Z" fill="#698DFE" fill-opacity="0.2"/>
<path d="M226.053 84.2969H225.957C225.86 84.2969 225.812 84.2486 225.812 84.1519V80.9389C225.812 80.8423 225.86 80.7939 225.957 80.7939H226.053C226.15 80.7939 226.198 80.8423 226.198 80.9389V84.1519C226.198 84.2486 226.15 84.2969 226.053 84.2969Z" fill="#698DFE" fill-opacity="0.2"/>
<path d="M225.061 84.1055C225.061 84.1055 225.646 83.8832 225.739 83.8101C225.807 83.7566 225.911 83.1492 226.004 83.1492C226.117 83.1492 226.182 83.734 226.255 83.8101C226.323 83.8818 226.931 84.1175 226.931 84.1175C226.931 84.1175 226.344 84.3206 226.299 84.3855C226.226 84.4884 226.004 85 226.004 85C226.004 85 225.774 84.4565 225.702 84.3864C225.628 84.3138 225.061 84.1055 225.061 84.1055Z" fill="#698DFE" fill-opacity="0.2"/>
<path d="M225.123 80.3396L223.816 80.5155L223.538 80.2024L223.676 80.0181L224.993 80.1147L225.123 80.3396Z" fill="#698DFE" fill-opacity="0.2"/>
<path d="M225.123 80.3396L223.816 80.5155L223.854 80.225L225.031 80.1792L225.123 80.3396Z" fill="#698DFE" fill-opacity="0.2"/>
<path d="M223.854 80.225L223.816 80.5155L223.538 80.2024L223.676 80.0181L223.854 80.225Z" fill="#698DFE" fill-opacity="0.2"/>
<path d="M223.643 81.5662L222.624 81.1323L222.551 80.7715L222.727 80.6907L223.641 81.3374L223.643 81.5662Z" fill="#698DFE" fill-opacity="0.2"/>
<path d="M223.643 81.5662L222.624 81.1323L222.771 80.9265L223.641 81.4032L223.643 81.5662Z" fill="#698DFE" fill-opacity="0.2"/>
<path d="M222.771 80.9265L222.624 81.1323L222.551 80.7715L222.727 80.6907L222.771 80.9265Z" fill="#698DFE" fill-opacity="0.2"/>
<path d="M223.508 81.3333L223.375 82.4324L223.651 82.6762L223.809 82.5642L223.705 81.4491L223.508 81.3333Z" fill="#698DFE" fill-opacity="0.2"/>
<path d="M223.508 81.3333L223.375 82.4324L223.626 82.4084L223.649 81.4159L223.508 81.3333Z" fill="#698DFE" fill-opacity="0.2"/>
<path d="M223.626 82.4084L223.375 82.4325L223.651 82.6762L223.809 82.5643L223.626 82.4084Z" fill="#698DFE" fill-opacity="0.2"/>
<path d="M225.346 80.4548L225.298 80.3711C225.288 80.3546 225.276 80.3401 225.261 80.3285C225.245 80.3169 225.228 80.3084 225.21 80.3035C225.191 80.2986 225.172 80.2973 225.153 80.2998C225.134 80.3023 225.116 80.3085 225.1 80.3181L222.766 81.6656C222.675 81.6871 222.602 81.701 222.577 81.691C222.467 81.6472 221.982 81.251 221.982 81.251C221.982 81.251 222.085 81.846 222.06 81.947C222.035 82.0437 221.679 82.5147 221.679 82.5147C221.679 82.5147 222.234 82.4519 222.359 82.463C222.438 82.4699 222.907 82.8766 222.907 82.8766C222.907 82.8766 222.807 82.2322 222.834 82.1372C222.842 82.1108 222.88 82.0675 222.931 82.0164L225.293 80.6529C225.31 80.6434 225.324 80.6307 225.336 80.6156C225.347 80.6005 225.356 80.5832 225.361 80.5648C225.366 80.5465 225.367 80.5273 225.364 80.5084C225.362 80.4895 225.356 80.4713 225.346 80.4548Z" fill="#698DFE" fill-opacity="0.2"/>
<path d="M225.266 79.3893L224.46 78.3452L224.592 77.9475L224.821 77.9754L225.395 79.1644L225.266 79.3893Z" fill="#698DFE" fill-opacity="0.2"/>
<path d="M225.266 79.3894L224.46 78.3452L224.73 78.2329L225.358 79.2289L225.266 79.3894Z" fill="#698DFE" fill-opacity="0.2"/>
<path d="M224.73 78.2328L224.46 78.3452L224.592 77.9475L224.821 77.9754L224.73 78.2328Z" fill="#698DFE" fill-opacity="0.2"/>
<path d="M223.463 78.7208L223.329 77.6214L223.605 77.3777L223.763 77.4898L223.66 78.6049L223.463 78.7208Z" fill="#698DFE" fill-opacity="0.2"/>
<path d="M223.463 78.7207L223.329 77.6213L223.581 77.6455L223.604 78.638L223.463 78.7207Z" fill="#698DFE" fill-opacity="0.2"/>
<path d="M223.581 77.6456L223.329 77.6214L223.605 77.3777L223.763 77.4898L223.581 77.6456Z" fill="#698DFE" fill-opacity="0.2"/>
<path d="M223.598 78.4878L222.579 78.9216L222.506 79.2825L222.682 79.3633L223.596 78.7164L223.598 78.4878Z" fill="#698DFE" fill-opacity="0.2"/>
<path d="M223.598 78.4878L222.579 78.9216L222.726 79.1275L223.596 78.6509L223.598 78.4878Z" fill="#698DFE" fill-opacity="0.2"/>
<path d="M222.726 79.1273L222.579 78.9214L222.506 79.2823L222.682 79.3631L222.726 79.1273Z" fill="#698DFE" fill-opacity="0.2"/>
<path d="M222.244 77.8886L222.292 77.8049C222.34 77.7212 222.406 77.7036 222.49 77.7519L225.272 79.3584C225.356 79.4067 225.374 79.4727 225.326 79.5564L225.277 79.6401C225.229 79.7238 225.163 79.7414 225.079 79.6931L222.297 78.0866C222.213 78.0383 222.195 77.9723 222.244 77.8886Z" fill="#698DFE" fill-opacity="0.2"/>
<path d="M222.906 77.1248C222.906 77.1248 222.805 77.7432 222.822 77.86C222.834 77.9455 223.309 78.3389 223.262 78.4195C223.205 78.5177 222.667 78.2814 222.564 78.3063C222.468 78.3298 221.96 78.7384 221.96 78.7384C221.96 78.7384 222.078 78.1288 222.045 78.057C221.992 77.9431 221.66 77.4941 221.66 77.4941C221.66 77.4941 222.246 77.5666 222.342 77.5398C222.442 77.5114 222.906 77.1248 222.906 77.1248Z" fill="#698DFE" fill-opacity="0.2"/>
<path d="M224.906 80.0122C224.906 80.3005 225.021 80.577 225.224 80.7809C225.428 80.9847 225.705 81.0993 225.993 81.0993C226.281 81.0993 226.558 80.9847 226.762 80.7809C226.966 80.577 227.08 80.3005 227.08 80.0122C227.08 79.8694 227.052 79.728 226.997 79.5961C226.943 79.4642 226.863 79.3444 226.762 79.2435C226.661 79.1425 226.541 79.0624 226.409 79.0078C226.277 78.9532 226.136 78.925 225.993 78.925C225.85 78.925 225.709 78.9532 225.577 79.0078C225.445 79.0624 225.325 79.1425 225.224 79.2435C225.123 79.3444 225.043 79.4642 224.989 79.5961C224.934 79.728 224.906 79.8694 224.906 80.0122Z" fill="#698DFE" fill-opacity="0.2"/>
<path d="M221.337 19.1413L222.34 16.7013L223.161 16.5322L223.341 16.9567L221.857 19.1413H221.337Z" fill="#698DFE" fill-opacity="0.2"/>
<path d="M221.337 19.1411L222.34 16.7012L222.805 17.0575L221.708 19.1411H221.337Z" fill="#698DFE" fill-opacity="0.2"/>
<path d="M222.805 17.0577L222.34 16.7013L223.161 16.5322L223.341 16.9567L222.805 17.0577Z" fill="#698DFE" fill-opacity="0.2"/>
<path d="M220.693 15.3506L222.464 14.0198L223.162 14.2541L223.126 14.6397L221.091 15.5763L220.693 15.3506Z" fill="#698DFE" fill-opacity="0.2"/>
<path d="M220.693 15.3506L222.464 14.0198L222.674 14.48L220.977 15.5115L220.693 15.3506Z" fill="#698DFE" fill-opacity="0.2"/>
<path d="M222.674 14.48L222.464 14.0198L223.162 14.2541L223.126 14.6397L222.674 14.48Z" fill="#698DFE" fill-opacity="0.2"/>
<path d="M221.231 15.3506L219.461 14.0198L218.763 14.2539L218.799 14.6397L220.833 15.5763L221.231 15.3506Z" fill="#698DFE" fill-opacity="0.2"/>
<path d="M221.231 15.3506L219.461 14.0198L219.251 14.4797L220.947 15.5115L221.231 15.3506Z" fill="#698DFE" fill-opacity="0.2"/>
<path d="M219.251 14.4797L219.461 14.0198L218.763 14.2539L218.799 14.6397L219.251 14.4797Z" fill="#698DFE" fill-opacity="0.2"/>
<path d="M220.915 12.4062H221.108C221.301 12.4062 221.398 12.5029 221.398 12.6961V19.1222C221.398 19.3155 221.301 19.4121 221.108 19.4121H220.915C220.721 19.4121 220.625 19.3155 220.625 19.1222V12.6961C220.625 12.5029 220.721 12.4062 220.915 12.4062Z" fill="#698DFE" fill-opacity="0.2"/>
<path d="M222.9 12.7877C222.9 12.7877 221.728 13.2334 221.543 13.3796C221.407 13.4866 221.2 14.7015 221.014 14.7015C220.787 14.7015 220.657 13.5318 220.512 13.3796C220.375 13.2363 219.159 12.7647 219.159 12.7647C219.159 12.7647 220.332 12.3589 220.423 12.2292C220.568 12.0233 221.013 11 221.013 11C221.013 11 221.472 12.0871 221.617 12.2272C221.766 12.3722 222.9 12.7877 222.9 12.7877Z" fill="#698DFE" fill-opacity="0.2"/>
<path d="M222.792 20.3867L225.407 20.0349L225.964 20.6611L225.686 21.0295L223.052 20.8365L222.792 20.3867Z" fill="#698DFE" fill-opacity="0.2"/>
<path d="M222.792 20.3867L225.407 20.0349L225.331 20.6159L222.978 20.7075L222.792 20.3867Z" fill="#698DFE" fill-opacity="0.2"/>
<path d="M225.331 20.6159L225.407 20.0349L225.964 20.6611L225.686 21.0295L225.331 20.6159Z" fill="#698DFE" fill-opacity="0.2"/>
<path d="M225.753 17.9336L227.791 18.8011L227.937 19.523L227.585 19.6846L225.757 18.3909L225.753 17.9336Z" fill="#698DFE" fill-opacity="0.2"/>
<path d="M225.753 17.9336L227.791 18.8011L227.498 19.213L225.756 18.2597L225.753 17.9336Z" fill="#698DFE" fill-opacity="0.2"/>
<path d="M227.497 19.2129L227.791 18.801L227.937 19.5229L227.585 19.6845L227.497 19.2129Z" fill="#698DFE" fill-opacity="0.2"/>
<path d="M226.022 18.3993L226.29 16.2006L225.738 15.7131L225.422 15.9373L225.628 18.1676L226.022 18.3993Z" fill="#698DFE" fill-opacity="0.2"/>
<path d="M226.022 18.3993L226.29 16.2007L225.786 16.249L225.741 18.2341L226.022 18.3993Z" fill="#698DFE" fill-opacity="0.2"/>
<path d="M225.786 16.249L226.29 16.2006L225.738 15.7131L225.422 15.9373L225.786 16.249Z" fill="#698DFE" fill-opacity="0.2"/>
<path d="M228.414 16.6531L228.511 16.8204C228.607 16.9878 228.572 17.1198 228.404 17.2164L222.839 20.4295C222.672 20.5261 222.54 20.4907 222.443 20.3234L222.347 20.156C222.25 19.9886 222.285 19.8566 222.453 19.76L228.018 16.547C228.185 16.4503 228.317 16.4857 228.414 16.6531Z" fill="#698DFE" fill-opacity="0.2"/>
<path d="M229.075 18.5635C229.075 18.5635 228.104 17.7713 227.885 17.6836C227.725 17.6196 226.569 18.0477 226.476 17.8863C226.362 17.6899 227.311 16.9924 227.369 16.791C227.425 16.6008 227.225 15.312 227.225 15.312C227.225 15.312 228.163 16.1252 228.32 16.1392C228.571 16.1612 229.68 16.0358 229.68 16.0358C229.68 16.0358 228.968 16.978 228.919 17.1712C228.869 17.3734 229.075 18.5635 229.075 18.5635Z" fill="#698DFE" fill-opacity="0.2"/>
<path d="M222.441 22.2695L224.053 24.3578L223.789 25.153L223.332 25.097L222.182 22.7194L222.441 22.2695Z" fill="#698DFE" fill-opacity="0.2"/>
<path d="M222.441 22.2695L224.053 24.3578L223.512 24.5824L222.256 22.5904L222.441 22.2695Z" fill="#698DFE" fill-opacity="0.2"/>
<path d="M223.512 24.5823L224.053 24.3577L223.789 25.1529L223.332 25.0969L223.512 24.5823Z" fill="#698DFE" fill-opacity="0.2"/>
<path d="M226.046 23.6072L226.314 25.8056L225.762 26.2931L225.446 26.0689L225.652 23.8389L226.046 23.6072Z" fill="#698DFE" fill-opacity="0.2"/>
<path d="M226.046 23.6072L226.314 25.8056L225.81 25.7572L225.765 23.7724L226.046 23.6072Z" fill="#698DFE" fill-opacity="0.2"/>
<path d="M225.81 25.7571L226.314 25.8054L225.762 26.2929L225.446 26.0687L225.81 25.7571Z" fill="#698DFE" fill-opacity="0.2"/>
<path d="M225.777 24.073L227.815 23.2052L227.961 22.4836L227.609 22.322L225.781 23.6154L225.777 24.073Z" fill="#698DFE" fill-opacity="0.2"/>
<path d="M225.777 24.0729L227.815 23.2051L227.522 22.7935L225.78 23.7465L225.777 24.0729Z" fill="#698DFE" fill-opacity="0.2"/>
<path d="M227.522 22.7936L227.815 23.2052L227.961 22.4836L227.609 22.322L227.522 22.7936Z" fill="#698DFE" fill-opacity="0.2"/>
<path d="M228.486 25.271L228.389 25.4383C228.292 25.6057 228.16 25.6411 227.993 25.5445L222.428 22.3314C222.26 22.2348 222.225 22.1028 222.322 21.9354L222.418 21.7681C222.515 21.6007 222.647 21.5653 222.814 21.6619L228.379 24.875C228.547 24.9716 228.582 25.1036 228.486 25.271Z" fill="#698DFE" fill-opacity="0.2"/>
<path d="M227.162 26.7993C227.162 26.7993 227.362 25.5624 227.329 25.3288C227.304 25.1578 226.355 24.3709 226.448 24.2098C226.562 24.0134 227.64 24.4859 227.844 24.4362C228.037 24.3893 229.052 23.572 229.052 23.572C229.052 23.572 228.817 24.7913 228.883 24.9348C228.989 25.1626 229.652 26.0605 229.652 26.0605C229.652 26.0605 228.48 25.9156 228.288 25.9692C228.09 26.0262 227.162 26.7993 227.162 26.7993Z" fill="#698DFE" fill-opacity="0.2"/>
<path d="M220.684 22.8584L219.681 25.2984L218.86 25.4675L218.68 25.0433L220.164 22.8584H220.684Z" fill="#698DFE" fill-opacity="0.2"/>
<path d="M220.684 22.8584L219.681 25.2984L219.216 24.942L220.313 22.8584H220.684Z" fill="#698DFE" fill-opacity="0.2"/>
<path d="M219.216 24.9421L219.681 25.2985L218.86 25.4676L218.68 25.0434L219.216 24.9421Z" fill="#698DFE" fill-opacity="0.2"/>
<path d="M221.328 26.6495L219.558 27.9803L218.859 27.746L218.895 27.3602L220.93 26.4236L221.328 26.6495Z" fill="#698DFE" fill-opacity="0.2"/>
<path d="M221.328 26.6494L219.558 27.9803L219.348 27.5201L221.044 26.4883L221.328 26.6494Z" fill="#698DFE" fill-opacity="0.2"/>
<path d="M219.348 27.52L219.558 27.9802L218.859 27.7459L218.895 27.3601L219.348 27.52Z" fill="#698DFE" fill-opacity="0.2"/>
<path d="M220.79 26.6495L222.56 27.9803L223.258 27.746L223.222 27.3604L221.188 26.4236L220.79 26.6495Z" fill="#698DFE" fill-opacity="0.2"/>
<path d="M220.79 26.6494L222.56 27.9803L222.77 27.5201L221.074 26.4885L220.79 26.6494Z" fill="#698DFE" fill-opacity="0.2"/>
<path d="M222.77 27.52L222.56 27.9802L223.258 27.7459L223.222 27.3604L222.77 27.52Z" fill="#698DFE" fill-opacity="0.2"/>
<path d="M221.106 29.5937H220.913C220.72 29.5937 220.623 29.4971 220.623 29.3038V22.8778C220.623 22.6845 220.72 22.5879 220.913 22.5879H221.106C221.3 22.5879 221.396 22.6845 221.396 22.8778V29.3038C221.396 29.4971 221.3 29.5937 221.106 29.5937Z" fill="#698DFE" fill-opacity="0.2"/>
<path d="M219.121 29.2109C219.121 29.2109 220.293 28.7664 220.478 28.6203C220.614 28.5133 220.821 27.2983 221.007 27.2983C221.234 27.2983 221.364 28.4681 221.509 28.6203C221.646 28.7635 222.862 29.2351 222.862 29.2351C222.862 29.2351 221.688 29.6412 221.598 29.7709C221.453 29.9768 221.007 31.0001 221.007 31.0001C221.007 31.0001 220.548 29.913 220.403 29.7729C220.255 29.6277 219.121 29.2109 219.121 29.2109Z" fill="#698DFE" fill-opacity="0.2"/>
<path d="M219.246 21.6795L216.632 22.0312L216.075 21.405L216.353 21.0364L218.987 21.2296L219.246 21.6795Z" fill="#698DFE" fill-opacity="0.2"/>
<path d="M219.246 21.6795L216.632 22.0312L216.708 21.4502L219.061 21.3586L219.246 21.6795Z" fill="#698DFE" fill-opacity="0.2"/>
<path d="M216.708 21.4502L216.632 22.0312L216.075 21.405L216.353 21.0364L216.708 21.4502Z" fill="#698DFE" fill-opacity="0.2"/>
<path d="M216.285 24.1323L214.248 23.2646L214.101 22.543L214.454 22.3813L216.282 23.6748L216.285 24.1323Z" fill="#698DFE" fill-opacity="0.2"/>
<path d="M216.285 24.1324L214.248 23.2647L214.541 22.853L216.283 23.8063L216.285 24.1324Z" fill="#698DFE" fill-opacity="0.2"/>
<path d="M214.541 22.8529L214.248 23.2646L214.101 22.543L214.454 22.3813L214.541 22.8529Z" fill="#698DFE" fill-opacity="0.2"/>
<path d="M216.017 23.6665L215.749 25.8649L216.301 26.3524L216.617 26.1285L216.411 23.8982L216.017 23.6665Z" fill="#698DFE" fill-opacity="0.2"/>
<path d="M216.017 23.6665L215.749 25.8649L216.253 25.8168L216.298 23.8317L216.017 23.6665Z" fill="#698DFE" fill-opacity="0.2"/>
<path d="M216.253 25.8169L215.749 25.865L216.301 26.3525L216.617 26.1285L216.253 25.8169Z" fill="#698DFE" fill-opacity="0.2"/>
<path d="M219.692 21.9098L219.596 21.7424C219.577 21.7094 219.551 21.6805 219.521 21.6573C219.491 21.6341 219.456 21.6171 219.419 21.6073C219.383 21.5974 219.344 21.5949 219.307 21.5999C219.269 21.6049 219.232 21.6173 219.199 21.6363L214.532 24.3314C214.351 24.3744 214.204 24.4022 214.154 24.3822C213.935 24.2947 212.964 23.5023 212.964 23.5023C212.964 23.5023 213.17 24.6923 213.119 24.8943C213.071 25.0876 212.358 26.0297 212.358 26.0297C212.358 26.0297 213.467 25.9041 213.717 25.9263C213.875 25.9401 214.813 26.7535 214.813 26.7535C214.813 26.7535 214.614 25.4647 214.668 25.2746C214.684 25.2219 214.76 25.1352 214.862 25.033L219.586 22.306C219.619 22.287 219.648 22.2616 219.671 22.2314C219.694 22.2012 219.711 22.1667 219.721 22.1299C219.731 22.0931 219.734 22.0548 219.729 22.017C219.724 21.9792 219.711 21.9428 219.692 21.9098Z" fill="#698DFE" fill-opacity="0.2"/>
<path d="M219.531 19.7788L217.919 17.6905L218.183 16.8953L218.641 16.9511L219.791 19.3289L219.531 19.7788Z" fill="#698DFE" fill-opacity="0.2"/>
<path d="M219.531 19.7787L217.919 17.6905L218.461 17.4658L219.717 19.4579L219.531 19.7787Z" fill="#698DFE" fill-opacity="0.2"/>
<path d="M218.461 17.4659L217.919 17.6905L218.183 16.8953L218.641 16.9511L218.461 17.4659Z" fill="#698DFE" fill-opacity="0.2"/>
<path d="M215.926 18.4413L215.659 16.2426L216.211 15.7551L216.527 15.9793L216.321 18.2096L215.926 18.4413Z" fill="#698DFE" fill-opacity="0.2"/>
<path d="M215.926 18.4411L215.659 16.2424L216.163 16.2907L216.208 18.2758L215.926 18.4411Z" fill="#698DFE" fill-opacity="0.2"/>
<path d="M216.163 16.291L215.659 16.2426L216.211 15.7551L216.527 15.9793L216.163 16.291Z" fill="#698DFE" fill-opacity="0.2"/>
<path d="M216.195 17.9756L214.158 18.8431L214.011 19.5649L214.364 19.7266L216.192 18.4329L216.195 17.9756Z" fill="#698DFE" fill-opacity="0.2"/>
<path d="M216.195 17.9756L214.158 18.8431L214.451 19.255L216.193 18.3017L216.195 17.9756Z" fill="#698DFE" fill-opacity="0.2"/>
<path d="M214.451 19.2549L214.158 18.843L214.011 19.5649L214.364 19.7265L214.451 19.2549Z" fill="#698DFE" fill-opacity="0.2"/>
<path d="M213.487 16.7772L213.584 16.6098C213.68 16.4425 213.812 16.4071 213.98 16.5037L219.545 19.7168C219.712 19.8134 219.748 19.9454 219.651 20.1128L219.554 20.2801C219.458 20.4475 219.326 20.4829 219.158 20.3863L213.593 17.1732C213.426 17.0766 213.391 16.9446 213.487 16.7772Z" fill="#698DFE" fill-opacity="0.2"/>
<path d="M214.811 15.2498C214.811 15.2498 214.61 16.4867 214.644 16.7203C214.668 16.8913 215.618 17.6781 215.525 17.8393C215.411 18.0357 214.333 17.5631 214.129 17.6129C213.936 17.6598 212.921 18.477 212.921 18.477C212.921 18.477 213.156 17.2578 213.09 17.1143C212.984 16.8865 212.321 15.9885 212.321 15.9885C212.321 15.9885 213.492 16.1335 213.685 16.0798C213.885 16.0231 214.811 15.2498 214.811 15.2498Z" fill="#698DFE" fill-opacity="0.2"/>
<path d="M218.812 21.0241C218.812 21.6007 219.041 22.1537 219.449 22.5615C219.857 22.9692 220.41 23.1983 220.986 23.1983C221.563 23.1983 222.116 22.9692 222.524 22.5615C222.932 22.1537 223.161 21.6007 223.161 21.0241C223.161 20.7386 223.104 20.4558 222.995 20.192C222.886 19.9283 222.726 19.6886 222.524 19.4867C222.322 19.2848 222.082 19.1246 221.818 19.0154C221.555 18.9061 221.272 18.8499 220.986 18.8499C220.701 18.8499 220.418 18.9061 220.154 19.0154C219.891 19.1246 219.651 19.2848 219.449 19.4867C219.247 19.6886 219.087 19.9283 218.978 20.192C218.868 20.4558 218.812 20.7386 218.812 21.0241Z" fill="#698DFE" fill-opacity="0.2"/>
<defs>
<radialGradient id="paint0_radial" cx="0" cy="0" r="1" gradientUnits="userSpaceOnUse" gradientTransform="translate(168 80) rotate(90) scale(80)">
<stop offset="0.0104167" stop-color="#698DFE"/>
<stop offset="0.989583" stop-color="#E8EDFF"/>
</radialGradient>
</defs>
</svg>
