<svg width="18" height="7" viewBox="0 0 18 7" fill="none" xmlns="http://www.w3.org/2000/svg">
<path d="M0.825068 0.676584L9 5.07734L17.1761 0.676584C17.2689 0.590076 17.3911 0.541977 17.518 0.541977C17.645 0.541977 17.7672 0.590076 17.86 0.676584C17.9043 0.719195 17.9395 0.770299 17.9636 0.826838C17.9876 0.883376 18 0.944187 18 1.00563C18 1.06707 17.9876 1.12788 17.9636 1.18442C17.9395 1.24096 17.9043 1.29206 17.86 1.33467L9.31048 6.03354C9.21762 6.12005 9.09542 6.16815 8.9685 6.16815C8.84159 6.16815 8.71939 6.12005 8.62652 6.03354L0.13998 1.33467C0.0957145 1.29206 0.0605017 1.24096 0.0364494 1.18442C0.0123972 1.12788 0 1.06707 0 1.00563C0 0.944187 0.0123972 0.883376 0.0364494 0.826838C0.0605017 0.770299 0.0957145 0.719195 0.13998 0.676584C0.232846 0.590076 0.355046 0.541977 0.481961 0.541977C0.608877 0.541977 0.731077 0.590076 0.823943 0.676584H0.825068Z" fill="#B6B6B6"/>
</svg>
